<svg width="16" height="13" viewBox="0 0 16 13" fill="none" xmlns="http://www.w3.org/2000/svg">
<path d="M11.5 12H15V10.625C15 9.48591 14.0598 8.5625 12.9 8.5625C12.2311 8.5625 11.6352 8.86967 11.2506 9.34824M11.5 12H4.5M11.5 12V10.625C11.5 10.1738 11.4115 9.74297 11.2506 9.34824M4.5 12H1V10.625C1 9.48591 1.9402 8.5625 3.1 8.5625C3.76892 8.5625 4.3648 8.86967 4.74937 9.34824M4.5 12V10.625C4.5 10.1738 4.5885 9.74297 4.74937 9.34824M4.74937 9.34824C5.26545 8.08196 6.52637 7.1875 8 7.1875C9.47363 7.1875 10.7345 8.08196 11.2506 9.34824M10.1 3.0625C10.1 4.20159 9.1598 5.125 8 5.125C6.8402 5.125 5.9 4.20159 5.9 3.0625C5.9 1.92341 6.8402 1 8 1C9.1598 1 10.1 1.92341 10.1 3.0625ZM14.3 5.125C14.3 5.88439 13.6732 6.5 12.9 6.5C12.1268 6.5 11.5 5.88439 11.5 5.125C11.5 4.36561 12.1268 3.75 12.9 3.75C13.6732 3.75 14.3 4.36561 14.3 5.125ZM4.5 5.125C4.5 5.88439 3.8732 6.5 3.1 6.5C2.3268 6.5 1.7 5.88439 1.7 5.125C1.7 4.36561 2.3268 3.75 3.1 3.75C3.8732 3.75 4.5 4.36561 4.5 5.125Z" stroke="#7C8698" stroke-linecap="round" stroke-linejoin="round"/>
</svg>
