<svg width="27" height="27" viewBox="0 0 27 27" fill="none" xmlns="http://www.w3.org/2000/svg">
<path fill-rule="evenodd" clip-rule="evenodd" d="M11.8673 24.2187L12.1487 23.7434C12.5995 22.9817 12.8249 22.6009 13.184 22.3885C13.5431 22.1761 14.0115 22.1611 14.9483 22.1311C15.8267 22.103 16.4171 22.0264 16.9219 21.8173C17.9847 21.3771 18.829 20.5327 19.2692 19.4699C19.5994 18.6728 19.5994 17.6623 19.5994 15.6414V14.7739C19.5994 11.9343 19.5994 10.5145 18.9602 9.47149C18.6026 8.88787 18.1119 8.39719 17.5283 8.03954C16.4853 7.40039 15.0655 7.40039 12.2259 7.40039H9.6235C6.78389 7.40039 5.36409 7.40039 4.32109 8.03954C3.73748 8.39719 3.24679 8.88787 2.88915 9.47149C2.25 10.5145 2.25 11.9343 2.25 14.7739V15.6414C2.25 17.6623 2.25 18.6728 2.58016 19.4699C3.02038 20.5327 3.86475 21.3771 4.92752 21.8173C5.4323 22.0264 6.02266 22.103 6.90105 22.1311C7.83785 22.1611 8.30625 22.1761 8.66535 22.3885C9.02444 22.6009 9.24987 22.9817 9.70071 23.7434L9.98202 24.2187C10.4012 24.9268 11.4482 24.9268 11.8673 24.2187ZM14.7199 16.0751C15.3187 16.0751 15.8042 15.5896 15.8042 14.9908C15.8042 14.3919 15.3187 13.9064 14.7199 13.9064C14.121 13.9064 13.6355 14.3919 13.6355 14.9908C13.6355 15.5896 14.121 16.0751 14.7199 16.0751ZM12.009 14.9908C12.009 15.5896 11.5236 16.0751 10.9247 16.0751C10.3258 16.0751 9.84036 15.5896 9.84036 14.9908C9.84036 14.3919 10.3258 13.9064 10.9247 13.9064C11.5236 13.9064 12.009 14.3919 12.009 14.9908ZM7.12952 16.0751C7.72838 16.0751 8.21386 15.5896 8.21386 14.9908C8.21386 14.3919 7.72838 13.9064 7.12952 13.9064C6.53066 13.9064 6.04518 14.3919 6.04518 14.9908C6.04518 15.5896 6.53066 16.0751 7.12952 16.0751Z" fill="#000080"/>
<path d="M17.0658 2.25C18.3615 2.24999 19.3919 2.24998 20.2182 2.32855C21.0655 2.40911 21.7819 2.57798 22.42 2.96905C23.0766 3.37139 23.6286 3.92342 24.031 4.57999C24.422 5.21815 24.5909 5.93453 24.6714 6.78182C24.75 7.60814 24.75 8.63854 24.75 9.93419V10.8191C24.75 11.7412 24.75 12.4747 24.7094 13.0694C24.6679 13.6779 24.5812 14.2004 24.3786 14.6896C23.8833 15.8853 22.9334 16.8352 21.7378 17.3304C21.7079 17.3428 21.6778 17.3548 21.6476 17.3663C21.5033 17.4215 21.3797 17.4688 21.2711 17.504C21.2869 16.9766 21.2869 16.3758 21.2869 15.6979V14.6941C21.2869 13.3422 21.287 12.2099 21.1994 11.2892C21.1078 10.3254 20.9084 9.42099 20.3991 8.58978C19.9023 7.7791 19.2207 7.0975 18.41 6.60072C17.5788 6.09135 16.6744 5.892 15.7106 5.80036C14.7899 5.71283 13.6575 5.71286 12.3057 5.71289H9.54367C8.62557 5.71287 7.80868 5.71285 7.09061 5.74026C7.12406 5.62433 7.16989 5.49144 7.22369 5.33546C7.31519 5.07018 7.43084 4.81928 7.57748 4.57999C7.97982 3.92342 8.53185 3.3714 9.18841 2.96905C9.82657 2.57798 10.543 2.40911 11.3902 2.32855C12.2166 2.24998 13.2469 2.24999 14.5426 2.25H17.0658Z" fill="#000080"/>
</svg>
