<svg width="1006" height="827" viewBox="0 0 1006 827" fill="none" xmlns="http://www.w3.org/2000/svg">
<rect width="1006" height="827" rx="5" fill="white"/>
<path d="M53.068 60.164L46.854 71.214V78H43.266V71.162L37.052 60.164H40.874L45.086 67.912L49.272 60.164H53.068ZM57.76 65.13C61.712 65.13 64.312 67.756 64.312 71.578C64.312 75.4 61.712 78.13 57.76 78.13C53.86 78.13 51.234 75.53 51.234 71.708C51.234 67.86 53.86 65.13 57.76 65.13ZM57.76 68.068C55.992 68.068 54.822 69.498 54.822 71.656C54.822 73.762 55.992 75.192 57.76 75.192C59.58 75.192 60.698 73.762 60.698 71.656C60.698 69.498 59.58 68.068 57.76 68.068ZM74.5363 65.26H78.0983V78H74.6663L74.5623 76.128C73.8343 77.324 72.5863 78.13 70.8183 78.13C67.9063 78.13 66.4243 76.076 66.4243 73.45V65.26H70.0123V72.618C70.0123 74.1 70.7663 75.036 72.1963 75.036C73.5223 75.036 74.5363 73.97 74.5363 72.384V65.26ZM87.8068 65.13C88.0928 65.13 88.4568 65.156 88.6128 65.234L88.5868 68.718C88.3788 68.64 88.1968 68.588 87.7028 68.588C86.0908 68.588 84.7908 69.602 84.5828 71.422V78H81.0208V65.26H84.4528L84.5308 67.34C85.1288 66.04 86.1428 65.13 87.8068 65.13ZM103.838 59.54H107.4V78H103.942L103.864 76.154C103.11 77.298 101.81 78.13 99.9123 78.13C96.6883 78.13 94.3483 75.79 94.3483 71.786C94.3483 67.886 96.5583 65.13 100.094 65.13C101.966 65.13 103.136 65.884 103.838 67.002V59.54ZM100.796 75.14C102.772 75.14 103.838 73.476 103.838 72.046V71.24C103.838 69.706 102.72 68.12 100.822 68.12C99.1323 68.12 97.9623 69.524 97.9623 71.682C97.9623 73.788 99.0803 75.14 100.796 75.14ZM122.549 75.062L122.757 77.87C122.263 78.026 121.665 78.13 120.937 78.13C119.559 78.13 118.493 77.48 118.051 76.076H118.025C117.609 76.856 116.543 78.13 113.839 78.13C111.031 78.13 109.523 76.752 109.523 74.646C109.523 71.526 112.721 70.616 116.205 70.616H117.843V70.044C117.843 68.718 117.037 67.834 115.425 67.834C114.073 67.834 113.215 68.51 113.085 69.602H109.861C110.069 66.716 112.305 65.13 115.607 65.13C119.325 65.13 121.301 67.08 121.301 70.304V74.412C121.301 74.932 121.535 75.192 121.899 75.192C122.133 75.192 122.263 75.166 122.549 75.062ZM114.827 75.53C116.699 75.53 117.843 74.386 117.843 73.372V72.566H115.997C114.099 72.566 112.981 73.112 112.981 74.23C112.981 75.062 113.605 75.53 114.827 75.53ZM134.684 74.386C134.71 76.752 132.552 78.13 129.146 78.13C125.558 78.13 123.738 76.674 123.712 74.022L126.754 74.048C126.832 75.088 127.534 75.66 129.094 75.66C130.602 75.66 131.252 75.218 131.226 74.49C131.226 72.098 123.972 74.048 123.972 68.9C123.972 66.56 126.052 65.13 129.406 65.13C132.656 65.13 134.476 66.638 134.502 69.16H131.408C131.33 68.12 130.628 67.6 129.38 67.6C128.028 67.6 127.43 68.068 127.43 68.796C127.43 71.136 134.684 69.082 134.684 74.386ZM144.439 65.13C147.351 65.13 148.911 67.21 148.911 69.81V78H145.349V70.72C145.349 69.212 144.569 68.224 143.113 68.224C141.553 68.224 140.539 69.29 140.539 70.876V78H136.951V59.54H140.487V67.132C141.241 65.962 142.515 65.13 144.439 65.13ZM159.211 65.13C162.435 65.13 164.749 67.392 164.749 71.422C164.749 75.374 162.539 78.13 159.081 78.13C157.157 78.13 155.935 77.324 155.233 76.128L155.155 78H151.697V59.54H155.259V67.054C156.013 65.936 157.313 65.13 159.211 65.13ZM158.275 75.14C159.965 75.14 161.135 73.736 161.135 71.578C161.135 69.472 160.043 68.12 158.301 68.12C156.325 68.12 155.259 69.784 155.259 71.214V72.02C155.259 73.554 156.377 75.14 158.275 75.14ZM172.852 65.13C176.804 65.13 179.404 67.756 179.404 71.578C179.404 75.4 176.804 78.13 172.852 78.13C168.952 78.13 166.326 75.53 166.326 71.708C166.326 67.86 168.952 65.13 172.852 65.13ZM172.852 68.068C171.084 68.068 169.914 69.498 169.914 71.656C169.914 73.762 171.084 75.192 172.852 75.192C174.672 75.192 175.79 73.762 175.79 71.656C175.79 69.498 174.672 68.068 172.852 68.068ZM193.892 75.062L194.1 77.87C193.606 78.026 193.008 78.13 192.28 78.13C190.902 78.13 189.836 77.48 189.394 76.076H189.368C188.952 76.856 187.886 78.13 185.182 78.13C182.374 78.13 180.866 76.752 180.866 74.646C180.866 71.526 184.064 70.616 187.548 70.616H189.186V70.044C189.186 68.718 188.38 67.834 186.768 67.834C185.416 67.834 184.558 68.51 184.428 69.602H181.204C181.412 66.716 183.648 65.13 186.95 65.13C190.668 65.13 192.644 67.08 192.644 70.304V74.412C192.644 74.932 192.878 75.192 193.242 75.192C193.476 75.192 193.606 75.166 193.892 75.062ZM186.17 75.53C188.042 75.53 189.186 74.386 189.186 73.372V72.566H187.34C185.442 72.566 184.324 73.112 184.324 74.23C184.324 75.062 184.948 75.53 186.17 75.53ZM202.568 65.13C202.854 65.13 203.218 65.156 203.374 65.234L203.348 68.718C203.14 68.64 202.958 68.588 202.464 68.588C200.852 68.588 199.552 69.602 199.344 71.422V78H195.782V65.26H199.214L199.292 67.34C199.89 66.04 200.904 65.13 202.568 65.13ZM213.68 59.54H217.242V78H213.784L213.706 76.154C212.952 77.298 211.652 78.13 209.754 78.13C206.53 78.13 204.19 75.79 204.19 71.786C204.19 67.886 206.4 65.13 209.936 65.13C211.808 65.13 212.978 65.884 213.68 67.002V59.54ZM210.638 75.14C212.614 75.14 213.68 73.476 213.68 72.046V71.24C213.68 69.706 212.562 68.12 210.664 68.12C208.974 68.12 207.804 69.524 207.804 71.682C207.804 73.788 208.922 75.14 210.638 75.14ZM229.452 61.152C229.452 62.452 228.438 63.362 227.138 63.362C225.864 63.362 224.85 62.452 224.85 61.152C224.85 59.878 225.864 58.916 227.138 58.916C228.438 58.916 229.452 59.878 229.452 61.152ZM225.344 78V65.26H228.932V78H225.344ZM239.352 65.13C242.238 65.13 243.798 67.158 243.798 70.018V78H240.236V70.824C240.236 69.212 239.482 68.224 237.974 68.224C236.414 68.224 235.4 69.29 235.4 70.876V78H231.838V65.26H235.27L235.374 67.132C236.128 65.936 237.402 65.13 239.352 65.13ZM253.27 62.192C251.684 62.192 250.93 63.05 250.93 64.35V65.26H254.622V68.094H250.93V78H247.368V68.094H245.548V65.26H247.368V64.22C247.368 61.282 249.448 59.202 252.724 59.202C253.504 59.202 254.414 59.332 254.83 59.436L254.7 62.426C254.388 62.296 253.816 62.192 253.27 62.192ZM261.797 65.13C265.749 65.13 268.349 67.756 268.349 71.578C268.349 75.4 265.749 78.13 261.797 78.13C257.897 78.13 255.271 75.53 255.271 71.708C255.271 67.86 257.897 65.13 261.797 65.13ZM261.797 68.068C260.029 68.068 258.859 69.498 258.859 71.656C258.859 73.762 260.029 75.192 261.797 75.192C263.617 75.192 264.735 73.762 264.735 71.656C264.735 69.498 263.617 68.068 261.797 68.068Z" fill="black"/>
<path d="M40.632 101V91.896H37.16V90.024H46.312V91.896H42.84V101H40.632ZM51.9084 93.08C53.7004 93.08 54.6604 94.36 54.6604 95.96V101H52.4684V96.52C52.4684 95.592 51.9884 94.984 51.0924 94.984C50.1324 94.984 49.5084 95.64 49.5084 96.616V101H47.3004V89.64H49.4764V94.312C49.9404 93.592 50.7244 93.08 51.9084 93.08ZM58.9028 90.632C58.9028 91.432 58.2788 91.992 57.4788 91.992C56.6948 91.992 56.0708 91.432 56.0708 90.632C56.0708 89.848 56.6948 89.256 57.4788 89.256C58.2788 89.256 58.9028 89.848 58.9028 90.632ZM56.3748 101V93.16H58.5828V101H56.3748ZM66.675 98.776C66.691 100.232 65.363 101.08 63.267 101.08C61.059 101.08 59.939 100.184 59.923 98.552L61.795 98.568C61.843 99.208 62.275 99.56 63.235 99.56C64.163 99.56 64.563 99.288 64.547 98.84C64.547 97.368 60.083 98.568 60.083 95.4C60.083 93.96 61.363 93.08 63.427 93.08C65.427 93.08 66.547 94.008 66.563 95.56H64.659C64.611 94.92 64.179 94.6 63.411 94.6C62.579 94.6 62.211 94.888 62.211 95.336C62.211 96.776 66.675 95.512 66.675 98.776ZM73.7978 90.632C73.7978 91.432 73.1738 91.992 72.3738 91.992C71.5898 91.992 70.9658 91.432 70.9658 90.632C70.9658 89.848 71.5898 89.256 72.3738 89.256C73.1738 89.256 73.7978 89.848 73.7978 90.632ZM71.2698 101V93.16H73.4778V101H71.2698ZM81.57 98.776C81.586 100.232 80.258 101.08 78.162 101.08C75.954 101.08 74.834 100.184 74.818 98.552L76.69 98.568C76.738 99.208 77.17 99.56 78.13 99.56C79.058 99.56 79.458 99.288 79.442 98.84C79.442 97.368 74.978 98.568 74.978 95.4C74.978 93.96 76.258 93.08 78.322 93.08C80.322 93.08 81.442 94.008 81.458 95.56H79.554C79.506 94.92 79.074 94.6 78.306 94.6C77.474 94.6 77.106 94.888 77.106 95.336C77.106 96.776 81.57 95.512 81.57 98.776ZM91.1568 99.08L91.2208 100.872C90.9328 100.984 90.4368 101.08 89.8608 101.08C87.7808 101.08 86.6288 99.864 86.6288 98.088V94.904H85.4768V93.16H86.7568V90.936H88.8208V93.16H91.1568V94.904H88.8208V97.992C88.8208 98.76 89.2048 99.256 90.2128 99.256C90.5488 99.256 90.8528 99.192 91.1568 99.08ZM96.9721 93.08C98.7641 93.08 99.7241 94.36 99.7241 95.96V101H97.5321V96.52C97.5321 95.592 97.0521 94.984 96.1561 94.984C95.1961 94.984 94.5721 95.64 94.5721 96.616V101H92.3641V89.64H94.5401V94.312C95.0041 93.592 95.7881 93.08 96.9721 93.08ZM108.655 97.144V97.56H103.135C103.295 98.76 103.999 99.368 105.023 99.368C106.079 99.368 106.463 98.824 106.591 98.408H108.623C108.367 99.768 107.279 101.08 104.911 101.08C102.527 101.08 101.023 99.432 101.023 97.096C101.023 94.728 102.671 93.08 104.943 93.08C107.327 93.08 108.655 94.744 108.655 97.144ZM104.959 94.712C104.079 94.712 103.375 95.208 103.167 96.296H106.607C106.463 95.176 105.855 94.712 104.959 94.712ZM117.852 93.08C119.836 93.08 121.26 94.472 121.26 96.952C121.26 99.384 119.9 101.08 117.772 101.08C116.588 101.08 115.836 100.584 115.404 99.848L115.356 101H113.228V89.64H115.42V94.264C115.884 93.576 116.684 93.08 117.852 93.08ZM117.276 99.24C118.316 99.24 119.036 98.376 119.036 97.048C119.036 95.752 118.364 94.92 117.292 94.92C116.076 94.92 115.42 95.944 115.42 96.824V97.32C115.42 98.264 116.108 99.24 117.276 99.24ZM126.822 93.08C126.998 93.08 127.222 93.096 127.318 93.144L127.302 95.288C127.174 95.24 127.062 95.208 126.758 95.208C125.766 95.208 124.966 95.832 124.838 96.952V101H122.646V93.16H124.758L124.806 94.44C125.174 93.64 125.798 93.08 126.822 93.08ZM135.452 97.144V97.56H129.932C130.092 98.76 130.796 99.368 131.82 99.368C132.876 99.368 133.26 98.824 133.388 98.408H135.42C135.164 99.768 134.076 101.08 131.708 101.08C129.324 101.08 127.82 99.432 127.82 97.096C127.82 94.728 129.468 93.08 131.74 93.08C134.124 93.08 135.452 94.744 135.452 97.144ZM131.756 94.712C130.876 94.712 130.172 95.208 129.964 96.296H133.404C133.26 95.176 132.652 94.712 131.756 94.712ZM144.362 99.192L144.49 100.92C144.186 101.016 143.818 101.08 143.37 101.08C142.522 101.08 141.866 100.68 141.594 99.816H141.578C141.322 100.296 140.666 101.08 139.002 101.08C137.274 101.08 136.346 100.232 136.346 98.936C136.346 97.016 138.314 96.456 140.458 96.456H141.466V96.104C141.466 95.288 140.97 94.744 139.978 94.744C139.146 94.744 138.618 95.16 138.538 95.832H136.554C136.682 94.056 138.058 93.08 140.09 93.08C142.378 93.08 143.594 94.28 143.594 96.264V98.792C143.594 99.112 143.738 99.272 143.962 99.272C144.106 99.272 144.186 99.256 144.362 99.192ZM139.61 99.48C140.762 99.48 141.466 98.776 141.466 98.152V97.656H140.33C139.162 97.656 138.474 97.992 138.474 98.68C138.474 99.192 138.858 99.48 139.61 99.48ZM150.917 101L148.821 97.912L147.717 99.128V101H145.525V89.64H147.717V96.392L150.485 93.144H153.093L150.229 96.344L153.381 101H150.917ZM159.149 89.64H161.341V101H159.213L159.165 99.864C158.701 100.568 157.901 101.08 156.733 101.08C154.749 101.08 153.309 99.64 153.309 97.176C153.309 94.776 154.669 93.08 156.845 93.08C157.997 93.08 158.717 93.544 159.149 94.232V89.64ZM157.277 99.24C158.493 99.24 159.149 98.216 159.149 97.336V96.84C159.149 95.896 158.461 94.92 157.293 94.92C156.253 94.92 155.533 95.784 155.533 97.112C155.533 98.408 156.221 99.24 157.277 99.24ZM166.727 93.08C169.159 93.08 170.759 94.696 170.759 97.048C170.759 99.4 169.159 101.08 166.727 101.08C164.327 101.08 162.711 99.48 162.711 97.128C162.711 94.76 164.327 93.08 166.727 93.08ZM166.727 94.888C165.639 94.888 164.919 95.768 164.919 97.096C164.919 98.392 165.639 99.272 166.727 99.272C167.847 99.272 168.535 98.392 168.535 97.096C168.535 95.768 167.847 94.888 166.727 94.888ZM180.942 93.16H183.23L181.006 101H178.494L177.406 96.872C177.358 96.632 177.262 96.2 177.246 96.024H177.198C177.182 96.2 177.118 96.632 177.054 96.872L175.966 101H173.454L171.23 93.16H173.518L174.59 97.896C174.67 98.312 174.75 98.616 174.782 98.92H174.83C174.878 98.616 174.958 98.312 175.054 97.896L176.238 93.16H178.206L179.406 97.896C179.502 98.312 179.582 98.616 179.63 98.92H179.678C179.71 98.616 179.774 98.344 179.87 97.896L180.942 93.16ZM188.869 93.08C190.645 93.08 191.605 94.328 191.605 96.088V101H189.413V96.584C189.413 95.592 188.949 94.984 188.021 94.984C187.061 94.984 186.437 95.64 186.437 96.616V101H184.245V93.16H186.357L186.421 94.312C186.885 93.576 187.669 93.08 188.869 93.08ZM200.118 93.08C202.55 93.08 204.15 94.696 204.15 97.048C204.15 99.4 202.55 101.08 200.118 101.08C197.718 101.08 196.102 99.48 196.102 97.128C196.102 94.76 197.718 93.08 200.118 93.08ZM200.118 94.888C199.03 94.888 198.31 95.768 198.31 97.096C198.31 98.392 199.03 99.272 200.118 99.272C201.238 99.272 201.926 98.392 201.926 97.096C201.926 95.768 201.238 94.888 200.118 94.888ZM209.598 91.272C208.622 91.272 208.158 91.8 208.158 92.6V93.16H210.43V94.904H208.158V101H205.966V94.904H204.846V93.16H205.966V92.52C205.966 90.712 207.246 89.432 209.262 89.432C209.742 89.432 210.302 89.512 210.558 89.576L210.478 91.416C210.286 91.336 209.934 91.272 209.598 91.272ZM219.063 93.16H221.287L218.423 101L218.247 101.464C217.511 103.48 216.679 104.312 214.919 104.312C214.439 104.312 213.927 104.248 213.639 104.152L213.767 102.328C213.991 102.424 214.199 102.488 214.519 102.488C215.223 102.488 215.815 102.264 216.071 101.416L216.151 101.16L213.175 93.16H215.543L217.079 98.056C217.143 98.264 217.207 98.552 217.287 98.952H217.335C217.399 98.552 217.463 98.264 217.527 98.056L219.063 93.16ZM225.588 93.08C228.02 93.08 229.62 94.696 229.62 97.048C229.62 99.4 228.02 101.08 225.588 101.08C223.188 101.08 221.572 99.48 221.572 97.128C221.572 94.76 223.188 93.08 225.588 93.08ZM225.588 94.888C224.5 94.888 223.78 95.768 223.78 97.096C223.78 98.392 224.5 99.272 225.588 99.272C226.708 99.272 227.396 98.392 227.396 97.096C227.396 95.768 226.708 94.888 225.588 94.888ZM235.912 93.16H238.104V101H235.992L235.928 99.848C235.48 100.584 234.712 101.08 233.624 101.08C231.832 101.08 230.92 99.816 230.92 98.2V93.16H233.128V97.688C233.128 98.6 233.592 99.176 234.472 99.176C235.288 99.176 235.912 98.52 235.912 97.544V93.16ZM244.078 93.08C244.254 93.08 244.478 93.096 244.574 93.144L244.558 95.288C244.43 95.24 244.318 95.208 244.014 95.208C243.022 95.208 242.222 95.832 242.094 96.952V101H239.902V93.16H242.014L242.062 94.44C242.43 93.64 243.054 93.08 244.078 93.08ZM252.696 93.08C252.872 93.08 253.096 93.096 253.192 93.144L253.176 95.288C253.048 95.24 252.936 95.208 252.632 95.208C251.64 95.208 250.84 95.832 250.712 96.952V101H248.52V93.16H250.632L250.68 94.44C251.048 93.64 251.672 93.08 252.696 93.08ZM261.326 97.144V97.56H255.806C255.966 98.76 256.67 99.368 257.694 99.368C258.75 99.368 259.134 98.824 259.262 98.408H261.294C261.038 99.768 259.95 101.08 257.582 101.08C255.198 101.08 253.694 99.432 253.694 97.096C253.694 94.728 255.342 93.08 257.614 93.08C259.998 93.08 261.326 94.744 261.326 97.144ZM257.63 94.712C256.75 94.712 256.046 95.208 255.838 96.296H259.278C259.134 95.176 258.526 94.712 257.63 94.712ZM266.14 101.08C263.788 101.08 262.284 99.432 262.284 97.096C262.284 94.728 263.9 93.08 266.172 93.08C268.508 93.08 269.628 94.488 269.82 96.232H267.708C267.58 95.48 267.148 94.888 266.236 94.888C265.212 94.888 264.492 95.656 264.492 97.096C264.492 98.504 265.18 99.272 266.22 99.272C267.18 99.272 267.58 98.696 267.708 97.96H269.82C269.612 99.672 268.476 101.08 266.14 101.08ZM275.278 93.08C275.454 93.08 275.678 93.096 275.774 93.144L275.758 95.288C275.63 95.24 275.518 95.208 275.214 95.208C274.222 95.208 273.422 95.832 273.294 96.952V101H271.102V93.16H273.214L273.262 94.44C273.63 93.64 274.254 93.08 275.278 93.08ZM281.776 93.16H283.968V101H281.856L281.792 99.848C281.344 100.584 280.576 101.08 279.488 101.08C277.696 101.08 276.784 99.816 276.784 98.2V93.16H278.992V97.688C278.992 98.6 279.456 99.176 280.336 99.176C281.152 99.176 281.776 98.52 281.776 97.544V93.16ZM288.295 90.632C288.295 91.432 287.671 91.992 286.871 91.992C286.087 91.992 285.463 91.432 285.463 90.632C285.463 89.848 286.087 89.256 286.871 89.256C287.671 89.256 288.295 89.848 288.295 90.632ZM285.767 101V93.16H287.975V101H285.767ZM294.755 99.08L294.819 100.872C294.531 100.984 294.035 101.08 293.459 101.08C291.379 101.08 290.227 99.864 290.227 98.088V94.904H289.075V93.16H290.355V90.936H292.419V93.16H294.755V94.904H292.419V97.992C292.419 98.76 292.803 99.256 293.811 99.256C294.147 99.256 294.451 99.192 294.755 99.08ZM305.45 93.08C307.194 93.08 308.122 94.312 308.122 96.056V101H305.914V96.536C305.914 95.544 305.418 94.984 304.618 94.984C303.738 94.984 303.13 95.64 303.13 96.616V101H300.938V96.536C300.938 95.56 300.458 94.984 299.642 94.984C298.762 94.984 298.154 95.64 298.154 96.616V101H295.962V93.16H298.074L298.138 94.296C298.586 93.576 299.354 93.08 300.442 93.08C301.706 93.08 302.538 93.736 302.906 94.712C303.306 93.768 304.154 93.08 305.45 93.08ZM317.05 97.144V97.56H311.53C311.69 98.76 312.394 99.368 313.418 99.368C314.474 99.368 314.858 98.824 314.986 98.408H317.018C316.762 99.768 315.674 101.08 313.306 101.08C310.922 101.08 309.418 99.432 309.418 97.096C309.418 94.728 311.066 93.08 313.338 93.08C315.722 93.08 317.05 94.744 317.05 97.144ZM313.354 94.712C312.474 94.712 311.77 95.208 311.562 96.296H315.002C314.858 95.176 314.25 94.712 313.354 94.712ZM323.048 93.08C324.824 93.08 325.784 94.328 325.784 96.088V101H323.592V96.584C323.592 95.592 323.128 94.984 322.2 94.984C321.24 94.984 320.616 95.64 320.616 96.616V101H318.424V93.16H320.536L320.6 94.312C321.064 93.576 321.848 93.08 323.048 93.08ZM332.412 99.08L332.476 100.872C332.188 100.984 331.692 101.08 331.116 101.08C329.036 101.08 327.884 99.864 327.884 98.088V94.904H326.732V93.16H328.012V90.936H330.076V93.16H332.412V94.904H330.076V97.992C330.076 98.76 330.46 99.256 331.468 99.256C331.804 99.256 332.108 99.192 332.412 99.08ZM339.346 90.632C339.346 91.432 338.722 91.992 337.922 91.992C337.138 91.992 336.514 91.432 336.514 90.632C336.514 89.848 337.138 89.256 337.922 89.256C338.722 89.256 339.346 89.848 339.346 90.632ZM336.818 101V93.16H339.026V101H336.818ZM345.439 93.08C347.215 93.08 348.175 94.328 348.175 96.088V101H345.983V96.584C345.983 95.592 345.519 94.984 344.591 94.984C343.631 94.984 343.007 95.64 343.007 96.616V101H340.815V93.16H342.927L342.991 94.312C343.455 93.576 344.239 93.08 345.439 93.08ZM354.004 91.272C353.028 91.272 352.564 91.8 352.564 92.6V93.16H354.836V94.904H352.564V101H350.372V94.904H349.252V93.16H350.372V92.52C350.372 90.712 351.652 89.432 353.668 89.432C354.148 89.432 354.708 89.512 354.964 89.576L354.884 91.416C354.692 91.336 354.34 91.272 354.004 91.272ZM359.251 93.08C361.683 93.08 363.283 94.696 363.283 97.048C363.283 99.4 361.683 101.08 359.251 101.08C356.851 101.08 355.235 99.48 355.235 97.128C355.235 94.76 356.851 93.08 359.251 93.08ZM359.251 94.888C358.163 94.888 357.443 95.768 357.443 97.096C357.443 98.392 358.163 99.272 359.251 99.272C360.371 99.272 361.059 98.392 361.059 97.096C361.059 95.768 360.371 94.888 359.251 94.888Z" fill="#7C8698"/>
<rect x="37" y="137" width="446" height="277" rx="5" fill="#010D3E"/>
<path d="M81.324 215L80.442 212.318H75.456L74.574 215H72.09L76.5 202.652H79.398L83.808 215H81.324ZM76.122 210.356H79.776L77.958 204.848L76.122 210.356ZM88.5126 215.09C85.8666 215.09 84.1746 213.236 84.1746 210.608C84.1746 207.944 85.9926 206.09 88.5486 206.09C91.1766 206.09 92.4366 207.674 92.6526 209.636H90.2766C90.1326 208.79 89.6466 208.124 88.6206 208.124C87.4686 208.124 86.6586 208.988 86.6586 210.608C86.6586 212.192 87.4326 213.056 88.6026 213.056C89.6826 213.056 90.1326 212.408 90.2766 211.58H92.6526C92.4186 213.506 91.1406 215.09 88.5126 215.09ZM99.6235 212.84L99.6955 214.856C99.3715 214.982 98.8135 215.09 98.1655 215.09C95.8255 215.09 94.5295 213.722 94.5295 211.724V208.142H93.2335V206.18H94.6735V203.678H96.9955V206.18H99.6235V208.142H96.9955V211.616C96.9955 212.48 97.4275 213.038 98.5615 213.038C98.9395 213.038 99.2815 212.966 99.6235 212.84ZM103.826 203.336C103.826 204.236 103.124 204.866 102.224 204.866C101.342 204.866 100.64 204.236 100.64 203.336C100.64 202.454 101.342 201.788 102.224 201.788C103.124 201.788 103.826 202.454 103.826 203.336ZM100.982 215V206.18H103.466V215H100.982ZM111.22 206.18H113.722L110.5 215H107.746L104.524 206.18H107.17L108.934 211.634C109.024 211.868 109.096 212.21 109.186 212.66H109.24C109.312 212.21 109.384 211.868 109.456 211.634L111.22 206.18ZM122.644 210.662V211.13H116.434C116.614 212.48 117.406 213.164 118.558 213.164C119.746 213.164 120.178 212.552 120.322 212.084H122.608C122.32 213.614 121.096 215.09 118.432 215.09C115.75 215.09 114.058 213.236 114.058 210.608C114.058 207.944 115.912 206.09 118.468 206.09C121.15 206.09 122.644 207.962 122.644 210.662ZM118.486 207.926C117.496 207.926 116.704 208.484 116.47 209.708H120.34C120.178 208.448 119.494 207.926 118.486 207.926ZM128.881 210.932C128.899 212.372 129.583 212.93 130.519 212.93C131.527 212.93 132.139 212.3 132.139 210.932V202.652H134.623V210.788C134.623 213.362 133.237 215.072 130.483 215.072C127.855 215.072 126.433 213.56 126.451 210.932H128.881ZM140.712 206.09C143.448 206.09 145.248 207.908 145.248 210.554C145.248 213.2 143.448 215.09 140.712 215.09C138.012 215.09 136.194 213.29 136.194 210.644C136.194 207.98 138.012 206.09 140.712 206.09ZM140.712 208.124C139.488 208.124 138.678 209.114 138.678 210.608C138.678 212.066 139.488 213.056 140.712 213.056C141.972 213.056 142.746 212.066 142.746 210.608C142.746 209.114 141.972 208.124 140.712 208.124ZM152.002 206.09C154.234 206.09 155.836 207.656 155.836 210.446C155.836 213.182 154.306 215.09 151.912 215.09C150.58 215.09 149.734 214.532 149.248 213.704L149.194 215H146.8V202.22H149.266V207.422C149.788 206.648 150.688 206.09 152.002 206.09ZM151.354 213.02C152.524 213.02 153.334 212.048 153.334 210.554C153.334 209.096 152.578 208.16 151.372 208.16C150.004 208.16 149.266 209.312 149.266 210.302V210.86C149.266 211.922 150.04 213.02 151.354 213.02ZM166.773 215.108C163.245 215.108 160.599 212.714 160.599 208.844C160.599 204.974 163.245 202.526 166.773 202.526C170.301 202.526 172.929 204.92 172.929 208.79C172.929 212.678 170.301 215.108 166.773 215.108ZM166.773 212.966C168.789 212.966 170.409 211.436 170.409 208.826C170.409 206.216 168.789 204.686 166.773 204.686C164.739 204.686 163.119 206.216 163.119 208.826C163.119 211.436 164.739 212.966 166.773 212.966ZM179.295 204.056C178.197 204.056 177.675 204.65 177.675 205.55V206.18H180.231V208.142H177.675V215H175.209V208.142H173.949V206.18H175.209V205.46C175.209 203.426 176.649 201.986 178.917 201.986C179.457 201.986 180.087 202.076 180.375 202.148L180.285 204.218C180.069 204.128 179.673 204.056 179.295 204.056ZM186.147 204.056C185.049 204.056 184.527 204.65 184.527 205.55V206.18H187.083V208.142H184.527V215H182.061V208.142H180.801V206.18H182.061V205.46C182.061 203.426 183.501 201.986 185.769 201.986C186.309 201.986 186.939 202.076 187.227 202.148L187.137 204.218C186.921 204.128 186.525 204.056 186.147 204.056ZM196.118 210.662V211.13H189.908C190.088 212.48 190.88 213.164 192.032 213.164C193.22 213.164 193.652 212.552 193.796 212.084H196.082C195.794 213.614 194.57 215.09 191.906 215.09C189.224 215.09 187.532 213.236 187.532 210.608C187.532 207.944 189.386 206.09 191.942 206.09C194.624 206.09 196.118 207.962 196.118 210.662ZM191.96 207.926C190.97 207.926 190.178 208.484 189.944 209.708H193.814C193.652 208.448 192.968 207.926 191.96 207.926ZM202.362 206.09C202.56 206.09 202.812 206.108 202.92 206.162L202.902 208.574C202.758 208.52 202.632 208.484 202.29 208.484C201.174 208.484 200.274 209.186 200.13 210.446V215H197.664V206.18H200.04L200.094 207.62C200.508 206.72 201.21 206.09 202.362 206.09ZM211.185 212.498C211.203 214.136 209.709 215.09 207.351 215.09C204.867 215.09 203.607 214.082 203.589 212.246L205.695 212.264C205.749 212.984 206.235 213.38 207.315 213.38C208.359 213.38 208.809 213.074 208.791 212.57C208.791 210.914 203.769 212.264 203.769 208.7C203.769 207.08 205.209 206.09 207.531 206.09C209.781 206.09 211.041 207.134 211.059 208.88H208.917C208.863 208.16 208.377 207.8 207.513 207.8C206.577 207.8 206.163 208.124 206.163 208.628C206.163 210.248 211.185 208.826 211.185 212.498Z" fill="white"/>
<path d="M80.288 342L79.504 339.616H75.072L74.288 342H72.08L76 331.024H78.576L82.496 342H80.288ZM75.664 337.872H78.912L77.296 332.976L75.664 337.872ZM88.3745 342V332.896H84.9025V331.024H94.0545V332.896H90.5825V342H88.3745ZM96.9085 334.08C99.3405 334.08 100.941 335.696 100.941 338.048C100.941 340.4 99.3405 342.08 96.9085 342.08C94.5085 342.08 92.8925 340.48 92.8925 338.128C92.8925 335.76 94.5085 334.08 96.9085 334.08ZM96.9085 335.888C95.8205 335.888 95.1005 336.768 95.1005 338.096C95.1005 339.392 95.8205 340.272 96.9085 340.272C98.0285 340.272 98.7165 339.392 98.7165 338.096C98.7165 336.768 98.0285 335.888 96.9085 335.888ZM107.172 340.08L107.236 341.872C106.948 341.984 106.452 342.08 105.876 342.08C103.796 342.08 102.644 340.864 102.644 339.088V335.904H101.492V334.16H102.772V331.936H104.836V334.16H107.172V335.904H104.836V338.992C104.836 339.76 105.22 340.256 106.228 340.256C106.564 340.256 106.868 340.192 107.172 340.08ZM115.915 340.192L116.043 341.92C115.739 342.016 115.371 342.08 114.923 342.08C114.075 342.08 113.419 341.68 113.147 340.816H113.131C112.875 341.296 112.219 342.08 110.555 342.08C108.827 342.08 107.899 341.232 107.899 339.936C107.899 338.016 109.867 337.456 112.011 337.456H113.019V337.104C113.019 336.288 112.523 335.744 111.531 335.744C110.699 335.744 110.171 336.16 110.091 336.832H108.107C108.235 335.056 109.611 334.08 111.643 334.08C113.931 334.08 115.147 335.28 115.147 337.264V339.792C115.147 340.112 115.291 340.272 115.515 340.272C115.659 340.272 115.739 340.256 115.915 340.192ZM111.163 340.48C112.315 340.48 113.019 339.776 113.019 339.152V338.656H111.883C110.715 338.656 110.027 338.992 110.027 339.68C110.027 340.192 110.411 340.48 111.163 340.48ZM119.991 340.192L120.119 341.92C119.815 342.016 119.447 342.08 118.967 342.08C117.687 342.08 117.031 341.312 117.031 339.92V330.64H119.223V339.792C119.223 340.096 119.383 340.272 119.607 340.272C119.735 340.272 119.815 340.256 119.991 340.192ZM128.187 334.08C130.619 334.08 132.219 335.696 132.219 338.048C132.219 340.4 130.619 342.08 128.187 342.08C125.787 342.08 124.171 340.48 124.171 338.128C124.171 335.76 125.787 334.08 128.187 334.08ZM128.187 335.888C127.099 335.888 126.379 336.768 126.379 338.096C126.379 339.392 127.099 340.272 128.187 340.272C129.307 340.272 129.995 339.392 129.995 338.096C129.995 336.768 129.307 335.888 128.187 335.888ZM137.666 332.272C136.69 332.272 136.226 332.8 136.226 333.6V334.16H138.498V335.904H136.226V342H134.034V335.904H132.914V334.16H134.034V333.52C134.034 331.712 135.314 330.432 137.33 330.432C137.81 330.432 138.37 330.512 138.626 330.576L138.546 332.416C138.354 332.336 138.002 332.272 137.666 332.272ZM146.276 340.144H147.988V342H142.068V340.144H144.084V333.808C143.524 334.096 143.028 334.192 142.1 334.192V332.352C143.332 332.352 144.052 332 144.564 331.024H146.276V340.144ZM152.112 340.144H156.384V342H148.88V340.528L152.688 336.704C153.424 335.968 153.968 335.232 153.968 334.304C153.968 333.296 153.408 332.816 152.544 332.816C151.6 332.816 150.928 333.44 150.928 334.656L148.704 334.672C148.704 332.256 150.304 330.88 152.528 330.88C154.768 330.88 156.208 332.192 156.208 334.304C156.208 335.744 155.552 336.768 154.224 338.064L152.112 340.144ZM165.307 338.848C165.323 340.848 163.499 342.112 161.259 342.112C158.971 342.112 157.355 340.832 157.355 338.56L159.563 338.576C159.579 339.712 160.331 340.176 161.355 340.176C162.411 340.176 163.083 339.696 163.067 338.784C163.067 337.744 162.363 337.296 161.259 337.296H160.235V335.6H161.179C162.171 335.6 162.827 335.136 162.843 334.208C162.843 333.232 162.155 332.816 161.339 332.816C160.475 332.816 159.771 333.296 159.771 334.496H157.563C157.547 332.256 159.147 330.896 161.371 330.88C163.499 330.88 165.067 332.144 165.083 334.16C165.083 335.168 164.619 335.904 163.899 336.368C164.747 336.864 165.291 337.664 165.307 338.848ZM170.984 338.384C171 339.664 171.608 340.16 172.44 340.16C173.336 340.16 173.88 339.6 173.88 338.384V331.024H176.088V338.256C176.088 340.544 174.856 342.064 172.408 342.064C170.072 342.064 168.808 340.72 168.824 338.384H170.984ZM181.5 334.08C183.932 334.08 185.532 335.696 185.532 338.048C185.532 340.4 183.932 342.08 181.5 342.08C179.1 342.08 177.484 340.48 177.484 338.128C177.484 335.76 179.1 334.08 181.5 334.08ZM181.5 335.888C180.412 335.888 179.692 336.768 179.692 338.096C179.692 339.392 180.412 340.272 181.5 340.272C182.62 340.272 183.308 339.392 183.308 338.096C183.308 336.768 182.62 335.888 181.5 335.888ZM191.536 334.08C193.52 334.08 194.944 335.472 194.944 337.952C194.944 340.384 193.584 342.08 191.456 342.08C190.272 342.08 189.52 341.584 189.088 340.848L189.04 342H186.912V330.64H189.104V335.264C189.568 334.576 190.368 334.08 191.536 334.08ZM190.96 340.24C192 340.24 192.72 339.376 192.72 338.048C192.72 336.752 192.048 335.92 190.976 335.92C189.76 335.92 189.104 336.944 189.104 337.824V338.32C189.104 339.264 189.792 340.24 190.96 340.24ZM206.227 331.024H208.435L204.515 342H202.131L198.211 331.024H200.419L203.331 339.712L206.227 331.024ZM211.851 331.632C211.851 332.432 211.227 332.992 210.427 332.992C209.643 332.992 209.019 332.432 209.019 331.632C209.019 330.848 209.643 330.256 210.427 330.256C211.227 330.256 211.851 330.848 211.851 331.632ZM209.323 342V334.16H211.531V342H209.323ZM220.535 338.144V338.56H215.015C215.175 339.76 215.879 340.368 216.903 340.368C217.959 340.368 218.343 339.824 218.471 339.408H220.503C220.247 340.768 219.159 342.08 216.791 342.08C214.407 342.08 212.903 340.432 212.903 338.096C212.903 335.728 214.551 334.08 216.823 334.08C219.207 334.08 220.535 335.744 220.535 338.144ZM216.839 335.712C215.959 335.712 215.255 336.208 215.047 337.296H218.487C218.343 336.176 217.735 335.712 216.839 335.712ZM230.712 334.16H233L230.776 342H228.264L227.176 337.872C227.128 337.632 227.032 337.2 227.016 337.024H226.968C226.952 337.2 226.888 337.632 226.824 337.872L225.736 342H223.224L221 334.16H223.288L224.36 338.896C224.44 339.312 224.52 339.616 224.552 339.92H224.6C224.648 339.616 224.728 339.312 224.824 338.896L226.008 334.16H227.976L229.176 338.896C229.272 339.312 229.352 339.616 229.4 339.92H229.448C229.48 339.616 229.544 339.344 229.64 338.896L230.712 334.16ZM240.225 339.776C240.241 341.232 238.913 342.08 236.817 342.08C234.609 342.08 233.489 341.184 233.473 339.552L235.345 339.568C235.393 340.208 235.825 340.56 236.785 340.56C237.713 340.56 238.113 340.288 238.097 339.84C238.097 338.368 233.633 339.568 233.633 336.4C233.633 334.96 234.913 334.08 236.977 334.08C238.977 334.08 240.097 335.008 240.113 336.56H238.209C238.161 335.92 237.729 335.6 236.961 335.6C236.129 335.6 235.761 335.888 235.761 336.336C235.761 337.776 240.225 336.512 240.225 339.776Z" fill="#D8D8D8"/>
<path d="M109.17 300.21C109.24 308.96 101.26 314.49 91.46 314.49C81.45 314.49 74.38 308.89 74.38 298.95L84.04 299.02C84.11 303.99 87.4 306.02 91.88 306.02C96.5 306.02 99.44 303.92 99.37 299.93C99.37 295.38 96.29 293.42 91.46 293.42H86.98V286H91.11C95.45 286 98.32 283.97 98.39 279.91C98.39 275.64 95.38 273.82 91.81 273.82C88.03 273.82 84.95 275.92 84.95 281.17H75.29C75.22 271.37 82.22 265.42 91.95 265.35C101.26 265.35 108.12 270.88 108.19 279.7C108.19 284.11 106.16 287.33 103.01 289.36C106.72 291.53 109.1 295.03 109.17 300.21ZM135.015 283.69C144.045 283.62 150.835 289.5 150.835 298.6C150.835 307.63 144.535 314.49 133.825 314.49C121.785 314.49 114.505 305.67 114.505 290.27C114.505 274.24 121.855 265.42 133.755 265.42C143.275 265.42 149.785 271.09 149.785 279.21L140.125 279.14C140.055 275.5 137.325 273.89 133.825 273.89C127.945 273.89 124.445 278.37 124.095 288.38C126.615 285.58 130.325 283.69 135.015 283.69ZM133.475 306.02C138.305 306.02 141.175 303.01 141.175 298.6C141.175 294.26 138.515 291.25 133.545 291.25C127.735 291.25 123.325 296.01 126.475 302.24L126.335 302.17C127.805 304.83 130.185 306.02 133.475 306.02Z" fill="white"/>
<rect x="522" y="137" width="446" height="277" rx="5" fill="#EAEEFE"/>
<path d="M561.086 215V204.758H557.18V202.652H567.476V204.758H563.57V215H561.086ZM570.687 206.09C573.423 206.09 575.223 207.908 575.223 210.554C575.223 213.2 573.423 215.09 570.687 215.09C567.987 215.09 566.169 213.29 566.169 210.644C566.169 207.98 567.987 206.09 570.687 206.09ZM570.687 208.124C569.463 208.124 568.653 209.114 568.653 210.608C568.653 212.066 569.463 213.056 570.687 213.056C571.947 213.056 572.721 212.066 572.721 210.608C572.721 209.114 571.947 208.124 570.687 208.124ZM582.233 212.84L582.305 214.856C581.981 214.982 581.423 215.09 580.775 215.09C578.435 215.09 577.139 213.722 577.139 211.724V208.142H575.843V206.18H577.283V203.678H579.605V206.18H582.233V208.142H579.605V211.616C579.605 212.48 580.037 213.038 581.171 213.038C581.549 213.038 581.891 212.966 582.233 212.84ZM592.069 212.966L592.213 214.91C591.871 215.018 591.457 215.09 590.953 215.09C589.999 215.09 589.261 214.64 588.955 213.668H588.937C588.649 214.208 587.911 215.09 586.039 215.09C584.095 215.09 583.051 214.136 583.051 212.678C583.051 210.518 585.265 209.888 587.677 209.888H588.811V209.492C588.811 208.574 588.253 207.962 587.137 207.962C586.201 207.962 585.607 208.43 585.517 209.186H583.285C583.429 207.188 584.977 206.09 587.263 206.09C589.837 206.09 591.205 207.44 591.205 209.672V212.516C591.205 212.876 591.367 213.056 591.619 213.056C591.781 213.056 591.871 213.038 592.069 212.966ZM586.723 213.29C588.019 213.29 588.811 212.498 588.811 211.796V211.238H587.533C586.219 211.238 585.445 211.616 585.445 212.39C585.445 212.966 585.877 213.29 586.723 213.29ZM596.654 212.966L596.798 214.91C596.456 215.018 596.042 215.09 595.502 215.09C594.062 215.09 593.324 214.226 593.324 212.66V202.22H595.79V212.516C595.79 212.858 595.97 213.056 596.222 213.056C596.366 213.056 596.456 213.038 596.654 212.966ZM609.594 215L608.712 212.318H603.726L602.844 215H600.36L604.77 202.652H607.668L612.078 215H609.594ZM604.392 210.356H608.046L606.228 204.848L604.392 210.356ZM618.29 206.09C620.522 206.09 622.124 207.656 622.124 210.446C622.124 213.182 620.594 215.09 618.2 215.09C616.904 215.09 616.04 214.55 615.554 213.74V218.636H613.088V206.162H615.482L615.536 207.458C616.04 206.666 616.958 206.09 618.29 206.09ZM617.642 213.02C618.812 213.02 619.622 212.048 619.622 210.554C619.622 209.096 618.866 208.16 617.66 208.16C616.292 208.16 615.554 209.312 615.554 210.302V210.86C615.554 211.922 616.328 213.02 617.642 213.02ZM628.885 206.09C631.117 206.09 632.719 207.656 632.719 210.446C632.719 213.182 631.189 215.09 628.795 215.09C627.499 215.09 626.635 214.55 626.149 213.74V218.636H623.683V206.162H626.077L626.131 207.458C626.635 206.666 627.553 206.09 628.885 206.09ZM628.237 213.02C629.407 213.02 630.217 212.048 630.217 210.554C630.217 209.096 629.461 208.16 628.255 208.16C626.887 208.16 626.149 209.312 626.149 210.302V210.86C626.149 211.922 626.923 213.02 628.237 213.02ZM637.555 212.966L637.699 214.91C637.357 215.018 636.943 215.09 636.403 215.09C634.963 215.09 634.225 214.226 634.225 212.66V202.22H636.691V212.516C636.691 212.858 636.871 213.056 637.123 213.056C637.267 213.056 637.357 213.038 637.555 212.966ZM641.97 203.336C641.97 204.236 641.268 204.866 640.368 204.866C639.486 204.866 638.784 204.236 638.784 203.336C638.784 202.454 639.486 201.788 640.368 201.788C641.268 201.788 641.97 202.454 641.97 203.336ZM639.126 215V206.18H641.61V215H639.126ZM647.492 215.09C644.846 215.09 643.154 213.236 643.154 210.608C643.154 207.944 644.972 206.09 647.528 206.09C650.156 206.09 651.416 207.674 651.632 209.636H649.256C649.112 208.79 648.626 208.124 647.6 208.124C646.448 208.124 645.638 208.988 645.638 210.608C645.638 212.192 646.412 213.056 647.582 213.056C648.662 213.056 649.112 212.408 649.256 211.58H651.632C651.398 213.506 650.12 215.09 647.492 215.09ZM661.553 212.966L661.697 214.91C661.355 215.018 660.941 215.09 660.437 215.09C659.483 215.09 658.745 214.64 658.439 213.668H658.421C658.133 214.208 657.395 215.09 655.523 215.09C653.579 215.09 652.535 214.136 652.535 212.678C652.535 210.518 654.749 209.888 657.161 209.888H658.295V209.492C658.295 208.574 657.737 207.962 656.621 207.962C655.685 207.962 655.091 208.43 655.001 209.186H652.769C652.913 207.188 654.461 206.09 656.747 206.09C659.321 206.09 660.689 207.44 660.689 209.672V212.516C660.689 212.876 660.851 213.056 661.103 213.056C661.265 213.056 661.355 213.038 661.553 212.966ZM656.207 213.29C657.503 213.29 658.295 212.498 658.295 211.796V211.238H657.017C655.703 211.238 654.929 211.616 654.929 212.39C654.929 212.966 655.361 213.29 656.207 213.29ZM668.064 206.09C670.062 206.09 671.142 207.494 671.142 209.474V215H668.676V210.032C668.676 208.916 668.154 208.232 667.11 208.232C666.03 208.232 665.328 208.97 665.328 210.068V215H662.862V206.18H665.238L665.31 207.476C665.832 206.648 666.714 206.09 668.064 206.09ZM678.598 212.84L678.67 214.856C678.346 214.982 677.788 215.09 677.14 215.09C674.8 215.09 673.504 213.722 673.504 211.724V208.142H672.208V206.18H673.648V203.678H675.97V206.18H678.598V208.142H675.97V211.616C675.97 212.48 676.402 213.038 677.536 213.038C677.914 213.038 678.256 212.966 678.598 212.84ZM687.049 212.498C687.067 214.136 685.573 215.09 683.215 215.09C680.731 215.09 679.471 214.082 679.453 212.246L681.559 212.264C681.613 212.984 682.099 213.38 683.179 213.38C684.223 213.38 684.673 213.074 684.655 212.57C684.655 210.914 679.633 212.264 679.633 208.7C679.633 207.08 681.073 206.09 683.395 206.09C685.645 206.09 686.905 207.134 686.923 208.88H684.781C684.727 208.16 684.241 207.8 683.377 207.8C682.441 207.8 682.027 208.124 682.027 208.628C682.027 210.248 687.049 208.826 687.049 212.498Z" fill="black"/>
<path d="M561.48 330.896C564.232 330.896 565.896 332.832 565.896 336.432C565.896 340.096 564.216 342.112 561.48 342.112C559.32 342.112 557.832 340.816 557.832 338.96L560.04 338.976C560.056 339.808 560.664 340.176 561.48 340.176C562.824 340.176 563.608 339.152 563.688 336.864C563.128 337.504 562.28 337.936 561.208 337.936C559.144 337.952 557.576 336.608 557.576 334.528C557.576 332.464 559.032 330.896 561.48 330.896ZM561.544 336.208C562.856 336.208 563.88 335.104 563.16 333.696H563.176C562.824 333.104 562.296 332.832 561.544 332.832C560.456 332.832 559.8 333.52 559.8 334.528C559.8 335.52 560.408 336.208 561.544 336.208ZM571.794 335.072C573.858 335.056 575.41 336.4 575.41 338.48C575.41 340.544 573.97 342.112 571.522 342.112C568.77 342.112 567.106 340.096 567.106 336.576C567.106 332.912 568.786 330.896 571.506 330.896C573.682 330.896 575.17 332.192 575.17 334.048L572.962 334.032C572.946 333.2 572.322 332.832 571.522 332.832C570.178 332.832 569.378 333.856 569.298 336.144C569.874 335.504 570.722 335.072 571.794 335.072ZM571.442 340.176C572.546 340.176 573.202 339.488 573.202 338.48C573.202 337.488 572.594 336.8 571.458 336.8C570.13 336.8 569.122 337.888 569.842 339.312L569.81 339.296C570.146 339.904 570.69 340.176 571.442 340.176ZM582.028 334.016C582.028 336.416 588.268 334.448 588.268 338.976C588.268 340.896 586.508 342.096 583.9 342.096C581.18 342.096 579.596 340.896 579.596 338.72H581.804C581.804 339.712 582.556 340.256 584.012 340.256C585.324 340.256 586.076 339.808 586.076 338.976C586.076 336.464 579.82 338.432 579.82 334.064C579.82 332.192 581.5 330.912 583.996 330.912C586.54 330.912 588.124 332.16 588.124 334.256H585.916C585.9 333.216 585.196 332.752 583.964 332.752C582.636 332.752 582.028 333.2 582.028 334.016ZM594.319 334.08C596.111 334.08 597.071 335.36 597.071 336.96V342H594.879V337.52C594.879 336.592 594.399 335.984 593.503 335.984C592.543 335.984 591.919 336.64 591.919 337.616V342H589.711V330.64H591.887V335.312C592.351 334.592 593.135 334.08 594.319 334.08ZM602.385 334.08C604.817 334.08 606.417 335.696 606.417 338.048C606.417 340.4 604.817 342.08 602.385 342.08C599.985 342.08 598.369 340.48 598.369 338.128C598.369 335.76 599.985 334.08 602.385 334.08ZM602.385 335.888C601.297 335.888 600.577 336.768 600.577 338.096C600.577 339.392 601.297 340.272 602.385 340.272C603.505 340.272 604.193 339.392 604.193 338.096C604.193 336.768 603.505 335.888 602.385 335.888ZM611.973 334.08C612.149 334.08 612.373 334.096 612.469 334.144L612.453 336.288C612.325 336.24 612.213 336.208 611.909 336.208C610.917 336.208 610.117 336.832 609.989 337.952V342H607.797V334.16H609.909L609.957 335.44C610.325 334.64 610.949 334.08 611.973 334.08ZM618.551 340.08L618.615 341.872C618.327 341.984 617.831 342.08 617.255 342.08C615.175 342.08 614.023 340.864 614.023 339.088V335.904H612.871V334.16H614.151V331.936H616.215V334.16H618.551V335.904H616.215V338.992C616.215 339.76 616.599 340.256 617.607 340.256C617.943 340.256 618.247 340.192 618.551 340.08ZM622.671 340.192L622.799 341.92C622.495 342.016 622.127 342.08 621.647 342.08C620.367 342.08 619.711 341.312 619.711 339.92V330.64H621.903V339.792C621.903 340.096 622.063 340.272 622.287 340.272C622.415 340.272 622.495 340.256 622.671 340.192ZM626.595 331.632C626.595 332.432 625.971 332.992 625.171 332.992C624.387 332.992 623.763 332.432 623.763 331.632C623.763 330.848 624.387 330.256 625.171 330.256C625.971 330.256 626.595 330.848 626.595 331.632ZM624.067 342V334.16H626.275V342H624.067ZM634.368 339.776C634.384 341.232 633.056 342.08 630.96 342.08C628.752 342.08 627.632 341.184 627.616 339.552L629.488 339.568C629.536 340.208 629.968 340.56 630.928 340.56C631.856 340.56 632.256 340.288 632.24 339.84C632.24 338.368 627.776 339.568 627.776 336.4C627.776 334.96 629.056 334.08 631.12 334.08C633.12 334.08 634.24 335.008 634.256 336.56H632.352C632.304 335.92 631.872 335.6 631.104 335.6C630.272 335.6 629.904 335.888 629.904 336.336C629.904 337.776 634.368 336.512 634.368 339.776ZM640.661 340.08L640.725 341.872C640.437 341.984 639.941 342.08 639.365 342.08C637.285 342.08 636.133 340.864 636.133 339.088V335.904H634.981V334.16H636.261V331.936H638.325V334.16H640.661V335.904H638.325V338.992C638.325 339.76 638.709 340.256 639.717 340.256C640.053 340.256 640.357 340.192 640.661 340.08ZM648.991 338.144V338.56H643.471C643.631 339.76 644.335 340.368 645.359 340.368C646.415 340.368 646.799 339.824 646.927 339.408H648.959C648.703 340.768 647.615 342.08 645.247 342.08C642.863 342.08 641.359 340.432 641.359 338.096C641.359 335.728 643.007 334.08 645.279 334.08C647.663 334.08 648.991 335.744 648.991 338.144ZM645.295 335.712C644.415 335.712 643.711 336.208 643.503 337.296H646.943C646.799 336.176 646.191 335.712 645.295 335.712ZM655.789 330.64H657.981V342H655.853L655.805 340.864C655.341 341.568 654.541 342.08 653.373 342.08C651.389 342.08 649.949 340.64 649.949 338.176C649.949 335.776 651.309 334.08 653.485 334.08C654.637 334.08 655.357 334.544 655.789 335.232V330.64ZM653.917 340.24C655.133 340.24 655.789 339.216 655.789 338.336V337.84C655.789 336.896 655.101 335.92 653.933 335.92C652.893 335.92 652.173 336.784 652.173 338.112C652.173 339.408 652.861 340.24 653.917 340.24ZM669.872 342L669.088 339.616H664.656L663.872 342H661.664L665.584 331.024H668.16L672.08 342H669.872ZM665.248 337.872H668.496L666.88 332.976L665.248 337.872ZM677.603 334.08C679.587 334.08 681.011 335.472 681.011 337.952C681.011 340.384 679.651 342.08 677.523 342.08C676.371 342.08 675.603 341.6 675.171 340.88V345.232H672.979V334.144H675.107L675.155 335.296C675.603 334.592 676.419 334.08 677.603 334.08ZM677.027 340.24C678.067 340.24 678.787 339.376 678.787 338.048C678.787 336.752 678.115 335.92 677.043 335.92C675.827 335.92 675.171 336.944 675.171 337.824V338.32C675.171 339.264 675.859 340.24 677.027 340.24ZM687.021 334.08C689.005 334.08 690.429 335.472 690.429 337.952C690.429 340.384 689.069 342.08 686.941 342.08C685.789 342.08 685.021 341.6 684.589 340.88V345.232H682.397V334.144H684.525L684.573 335.296C685.021 334.592 685.837 334.08 687.021 334.08ZM686.445 340.24C687.485 340.24 688.205 339.376 688.205 338.048C688.205 336.752 687.533 335.92 686.461 335.92C685.245 335.92 684.589 336.944 684.589 337.824V338.32C684.589 339.264 685.277 340.24 686.445 340.24ZM694.727 340.192L694.855 341.92C694.551 342.016 694.183 342.08 693.703 342.08C692.423 342.08 691.767 341.312 691.767 339.92V330.64H693.959V339.792C693.959 340.096 694.119 340.272 694.343 340.272C694.471 340.272 694.551 340.256 694.727 340.192ZM698.652 331.632C698.652 332.432 698.028 332.992 697.228 332.992C696.444 332.992 695.82 332.432 695.82 331.632C695.82 330.848 696.444 330.256 697.228 330.256C698.028 330.256 698.652 330.848 698.652 331.632ZM696.124 342V334.16H698.332V342H696.124ZM703.56 342.08C701.208 342.08 699.704 340.432 699.704 338.096C699.704 335.728 701.32 334.08 703.592 334.08C705.928 334.08 707.048 335.488 707.24 337.232H705.128C705 336.48 704.568 335.888 703.656 335.888C702.632 335.888 701.912 336.656 701.912 338.096C701.912 339.504 702.6 340.272 703.64 340.272C704.6 340.272 705 339.696 705.128 338.96H707.24C707.032 340.672 705.896 342.08 703.56 342.08ZM716.058 340.192L716.186 341.92C715.882 342.016 715.514 342.08 715.066 342.08C714.218 342.08 713.562 341.68 713.29 340.816H713.274C713.018 341.296 712.362 342.08 710.698 342.08C708.97 342.08 708.042 341.232 708.042 339.936C708.042 338.016 710.01 337.456 712.154 337.456H713.162V337.104C713.162 336.288 712.666 335.744 711.674 335.744C710.842 335.744 710.314 336.16 710.234 336.832H708.25C708.378 335.056 709.754 334.08 711.786 334.08C714.074 334.08 715.29 335.28 715.29 337.264V339.792C715.29 340.112 715.434 340.272 715.658 340.272C715.802 340.272 715.882 340.256 716.058 340.192ZM711.306 340.48C712.458 340.48 713.162 339.776 713.162 339.152V338.656H712.026C710.858 338.656 710.17 338.992 710.17 339.68C710.17 340.192 710.554 340.48 711.306 340.48ZM721.846 334.08C723.622 334.08 724.582 335.328 724.582 337.088V342H722.39V337.584C722.39 336.592 721.926 335.984 720.998 335.984C720.038 335.984 719.414 336.64 719.414 337.616V342H717.222V334.16H719.334L719.398 335.312C719.862 334.576 720.646 334.08 721.846 334.08ZM731.21 340.08L731.274 341.872C730.986 341.984 730.49 342.08 729.914 342.08C727.834 342.08 726.682 340.864 726.682 339.088V335.904H725.53V334.16H726.81V331.936H728.874V334.16H731.21V335.904H728.874V338.992C728.874 339.76 729.258 340.256 730.266 340.256C730.602 340.256 730.906 340.192 731.21 340.08ZM738.721 339.776C738.737 341.232 737.409 342.08 735.313 342.08C733.105 342.08 731.985 341.184 731.969 339.552L733.841 339.568C733.889 340.208 734.321 340.56 735.281 340.56C736.209 340.56 736.609 340.288 736.593 339.84C736.593 338.368 732.129 339.568 732.129 336.4C732.129 334.96 733.409 334.08 735.473 334.08C737.473 334.08 738.593 335.008 738.609 336.56H736.705C736.657 335.92 736.225 335.6 735.457 335.6C734.625 335.6 734.257 335.888 734.257 336.336C734.257 337.776 738.721 336.512 738.721 339.776Z" fill="#7C8698"/>
<path d="M594.17 300.21C594.24 308.96 586.26 314.49 576.46 314.49C566.45 314.49 559.38 308.89 559.38 298.95L569.04 299.02C569.11 303.99 572.4 306.02 576.88 306.02C581.5 306.02 584.44 303.92 584.37 299.93C584.37 295.38 581.29 293.42 576.46 293.42H571.98V286H576.11C580.45 286 583.32 283.97 583.39 279.91C583.39 275.64 580.38 273.82 576.81 273.82C573.03 273.82 569.95 275.92 569.95 281.17H560.29C560.22 271.37 567.22 265.42 576.95 265.35C586.26 265.35 593.12 270.88 593.19 279.7C593.19 284.11 591.16 287.33 588.01 289.36C591.72 291.53 594.1 295.03 594.17 300.21ZM633.665 300.21C633.735 308.96 625.755 314.49 615.955 314.49C605.945 314.49 598.875 308.89 598.875 298.95L608.535 299.02C608.605 303.99 611.895 306.02 616.375 306.02C620.995 306.02 623.935 303.92 623.865 299.93C623.865 295.38 620.785 293.42 615.955 293.42H611.475V286H615.605C619.945 286 622.815 283.97 622.885 279.91C622.885 275.64 619.875 273.82 616.305 273.82C612.525 273.82 609.445 275.92 609.445 281.17H599.785C599.715 271.37 606.715 265.42 616.445 265.35C625.755 265.35 632.615 270.88 632.685 279.7C632.685 284.11 630.655 287.33 627.505 289.36C631.215 291.53 633.595 295.03 633.665 300.21ZM659.511 283.69C668.541 283.62 675.331 289.5 675.331 298.6C675.331 307.63 669.031 314.49 658.321 314.49C646.281 314.49 639.001 305.67 639.001 290.27C639.001 274.24 646.351 265.42 658.251 265.42C667.771 265.42 674.281 271.09 674.281 279.21L664.621 279.14C664.551 275.5 661.821 273.89 658.321 273.89C652.441 273.89 648.941 278.37 648.591 288.38C651.111 285.58 654.821 283.69 659.511 283.69ZM657.971 306.02C662.801 306.02 665.671 303.01 665.671 298.6C665.671 294.26 663.011 291.25 658.041 291.25C652.231 291.25 647.821 296.01 650.971 302.24L650.831 302.17C652.301 304.83 654.681 306.02 657.971 306.02Z" fill="#001E80"/>
<rect x="522" y="463" width="446" height="277" rx="5" fill="#EAEEFE"/>
<path d="M560.888 538.93H567.116V541H558.404V528.652H567.008V530.74H560.888V533.692H566.324V535.708H560.888V538.93ZM579.367 532.09C581.329 532.09 582.373 533.476 582.373 535.438V541H579.889V535.978C579.889 534.862 579.331 534.232 578.431 534.232C577.441 534.232 576.757 534.97 576.757 536.068V541H574.291V535.978C574.291 534.88 573.751 534.232 572.833 534.232C571.843 534.232 571.159 534.97 571.159 536.068V541H568.693V532.18H571.069L571.141 533.458C571.645 532.648 572.509 532.09 573.733 532.09C575.155 532.09 576.091 532.828 576.505 533.926C576.955 532.864 577.909 532.09 579.367 532.09ZM589.501 532.09C591.733 532.09 593.335 533.656 593.335 536.446C593.335 539.182 591.805 541.09 589.411 541.09C588.115 541.09 587.251 540.55 586.765 539.74V544.636H584.299V532.162H586.693L586.747 533.458C587.251 532.666 588.169 532.09 589.501 532.09ZM588.853 539.02C590.023 539.02 590.833 538.048 590.833 536.554C590.833 535.096 590.077 534.16 588.871 534.16C587.503 534.16 586.765 535.312 586.765 536.302V536.86C586.765 537.922 587.539 539.02 588.853 539.02ZM598.17 538.966L598.314 540.91C597.972 541.018 597.558 541.09 597.018 541.09C595.578 541.09 594.84 540.226 594.84 538.66V528.22H597.306V538.516C597.306 538.858 597.486 539.056 597.738 539.056C597.882 539.056 597.972 539.038 598.17 538.966ZM603.721 532.09C606.457 532.09 608.257 533.908 608.257 536.554C608.257 539.2 606.457 541.09 603.721 541.09C601.021 541.09 599.203 539.29 599.203 536.644C599.203 533.98 601.021 532.09 603.721 532.09ZM603.721 534.124C602.497 534.124 601.687 535.114 601.687 536.608C601.687 538.066 602.497 539.056 603.721 539.056C604.981 539.056 605.755 538.066 605.755 536.608C605.755 535.114 604.981 534.124 603.721 534.124ZM615.216 532.18H617.718L614.496 541L614.298 541.522C613.47 543.79 612.534 544.726 610.554 544.726C610.014 544.726 609.438 544.654 609.114 544.546L609.258 542.494C609.51 542.602 609.744 542.674 610.104 542.674C610.896 542.674 611.562 542.422 611.85 541.468L611.94 541.18L608.592 532.18H611.256L612.984 537.688C613.056 537.922 613.128 538.246 613.218 538.696H613.272C613.344 538.246 613.416 537.922 613.488 537.688L615.216 532.18ZM626.624 536.662V537.13H620.414C620.594 538.48 621.386 539.164 622.538 539.164C623.726 539.164 624.158 538.552 624.302 538.084H626.588C626.3 539.614 625.076 541.09 622.412 541.09C619.73 541.09 618.038 539.236 618.038 536.608C618.038 533.944 619.892 532.09 622.448 532.09C625.13 532.09 626.624 533.962 626.624 536.662ZM622.466 533.926C621.476 533.926 620.684 534.484 620.45 535.708H624.32C624.158 534.448 623.474 533.926 622.466 533.926ZM634.272 528.22H636.738V541H634.344L634.29 539.722C633.768 540.514 632.868 541.09 631.554 541.09C629.322 541.09 627.702 539.47 627.702 536.698C627.702 533.998 629.232 532.09 631.68 532.09C632.976 532.09 633.786 532.612 634.272 533.386V528.22ZM632.166 539.02C633.534 539.02 634.272 537.868 634.272 536.878V536.32C634.272 535.258 633.498 534.16 632.184 534.16C631.014 534.16 630.204 535.132 630.204 536.626C630.204 538.084 630.978 539.02 632.166 539.02ZM644.808 541V530.758H640.902V528.652H651.198V530.758H647.292V541H644.808ZM658.995 538.966L659.139 540.91C658.797 541.018 658.383 541.09 657.879 541.09C656.925 541.09 656.187 540.64 655.881 539.668H655.863C655.575 540.208 654.837 541.09 652.965 541.09C651.021 541.09 649.977 540.136 649.977 538.678C649.977 536.518 652.191 535.888 654.603 535.888H655.737V535.492C655.737 534.574 655.179 533.962 654.063 533.962C653.127 533.962 652.533 534.43 652.443 535.186H650.211C650.355 533.188 651.903 532.09 654.189 532.09C656.763 532.09 658.131 533.44 658.131 535.672V538.516C658.131 538.876 658.293 539.056 658.545 539.056C658.707 539.056 658.797 539.038 658.995 538.966ZM653.649 539.29C654.945 539.29 655.737 538.498 655.737 537.796V537.238H654.459C653.145 537.238 652.371 537.616 652.371 538.39C652.371 538.966 652.803 539.29 653.649 539.29ZM663.58 538.966L663.724 540.91C663.382 541.018 662.968 541.09 662.428 541.09C660.988 541.09 660.25 540.226 660.25 538.66V528.22H662.716V538.516C662.716 538.858 662.896 539.056 663.148 539.056C663.292 539.056 663.382 539.038 663.58 538.966ZM673.199 536.662V537.13H666.989C667.169 538.48 667.961 539.164 669.113 539.164C670.301 539.164 670.733 538.552 670.877 538.084H673.163C672.875 539.614 671.651 541.09 668.987 541.09C666.305 541.09 664.613 539.236 664.613 536.608C664.613 533.944 666.467 532.09 669.023 532.09C671.705 532.09 673.199 533.962 673.199 536.662ZM669.041 533.926C668.051 533.926 667.259 534.484 667.025 535.708H670.895C670.733 534.448 670.049 533.926 669.041 533.926ZM679.946 532.09C681.944 532.09 683.024 533.494 683.024 535.474V541H680.558V536.032C680.558 534.916 680.036 534.232 678.992 534.232C677.912 534.232 677.21 534.97 677.21 536.068V541H674.744V532.18H677.12L677.192 533.476C677.714 532.648 678.596 532.09 679.946 532.09ZM690.481 538.84L690.553 540.856C690.229 540.982 689.671 541.09 689.023 541.09C686.683 541.09 685.387 539.722 685.387 537.724V534.142H684.091V532.18H685.531V529.678H687.853V532.18H690.481V534.142H687.853V537.616C687.853 538.48 688.285 539.038 689.419 539.038C689.797 539.038 690.139 538.966 690.481 538.84ZM698.931 538.498C698.949 540.136 697.455 541.09 695.097 541.09C692.613 541.09 691.353 540.082 691.335 538.246L693.441 538.264C693.495 538.984 693.981 539.38 695.061 539.38C696.105 539.38 696.555 539.074 696.537 538.57C696.537 536.914 691.515 538.264 691.515 534.7C691.515 533.08 692.955 532.09 695.277 532.09C697.527 532.09 698.787 533.134 698.805 534.88H696.663C696.609 534.16 696.123 533.8 695.259 533.8C694.323 533.8 693.909 534.124 693.909 534.628C693.909 536.248 698.931 534.826 698.931 538.498Z" fill="black"/>
<path d="M562.376 661.072C564.44 661.056 565.992 662.4 565.992 664.48C565.992 666.544 564.552 668.112 562.104 668.112C559.352 668.112 557.688 666.096 557.688 662.576C557.688 658.912 559.368 656.896 562.088 656.896C564.264 656.896 565.752 658.192 565.752 660.048L563.544 660.032C563.528 659.2 562.904 658.832 562.104 658.832C560.76 658.832 559.96 659.856 559.88 662.144C560.456 661.504 561.304 661.072 562.376 661.072ZM562.024 666.176C563.128 666.176 563.784 665.488 563.784 664.48C563.784 663.488 563.176 662.8 562.04 662.8C560.712 662.8 559.704 663.888 560.424 665.312L560.392 665.296C560.728 665.904 561.272 666.176 562.024 666.176ZM571.564 664.384C571.58 665.664 572.188 666.16 573.02 666.16C573.916 666.16 574.46 665.6 574.46 664.384V657.024H576.668V664.256C576.668 666.544 575.436 668.064 572.988 668.064C570.652 668.064 569.388 666.72 569.404 664.384H571.564ZM582.08 660.08C584.512 660.08 586.112 661.696 586.112 664.048C586.112 666.4 584.512 668.08 582.08 668.08C579.68 668.08 578.064 666.48 578.064 664.128C578.064 661.76 579.68 660.08 582.08 660.08ZM582.08 661.888C580.992 661.888 580.272 662.768 580.272 664.096C580.272 665.392 580.992 666.272 582.08 666.272C583.2 666.272 583.888 665.392 583.888 664.096C583.888 662.768 583.2 661.888 582.08 661.888ZM592.116 660.08C594.1 660.08 595.524 661.472 595.524 663.952C595.524 666.384 594.164 668.08 592.036 668.08C590.852 668.08 590.1 667.584 589.668 666.848L589.62 668H587.492V656.64H589.684V661.264C590.148 660.576 590.948 660.08 592.116 660.08ZM591.54 666.24C592.58 666.24 593.3 665.376 593.3 664.048C593.3 662.752 592.628 661.92 591.556 661.92C590.34 661.92 589.684 662.944 589.684 663.824V664.32C589.684 665.264 590.372 666.24 591.54 666.24ZM604.99 666.176C606.782 666.176 607.534 665.152 607.71 663.936H609.886C609.63 666.272 608.142 668.096 604.926 668.096C601.918 668.096 599.774 665.904 599.774 662.496C599.774 659.136 601.95 656.912 604.926 656.912C608.094 656.912 609.646 658.704 609.886 661.088H607.71C607.518 659.872 606.734 658.832 604.974 658.832C603.294 658.832 601.998 660.24 602.014 662.512C602.014 664.816 603.294 666.176 604.99 666.176ZM618.751 666.192L618.879 667.92C618.575 668.016 618.207 668.08 617.759 668.08C616.911 668.08 616.255 667.68 615.983 666.816H615.967C615.711 667.296 615.055 668.08 613.391 668.08C611.663 668.08 610.735 667.232 610.735 665.936C610.735 664.016 612.703 663.456 614.847 663.456H615.855V663.104C615.855 662.288 615.359 661.744 614.367 661.744C613.535 661.744 613.007 662.16 612.927 662.832H610.943C611.071 661.056 612.447 660.08 614.479 660.08C616.767 660.08 617.983 661.28 617.983 663.264V665.792C617.983 666.112 618.127 666.272 618.351 666.272C618.495 666.272 618.575 666.256 618.751 666.192ZM613.999 666.48C615.151 666.48 615.855 665.776 615.855 665.152V664.656H614.719C613.551 664.656 612.863 664.992 612.863 665.68C612.863 666.192 613.247 666.48 613.999 666.48ZM624.797 666.08L624.861 667.872C624.573 667.984 624.077 668.08 623.501 668.08C621.421 668.08 620.269 666.864 620.269 665.088V661.904H619.117V660.16H620.397V657.936H622.461V660.16H624.797V661.904H622.461V664.992C622.461 665.76 622.845 666.256 623.853 666.256C624.189 666.256 624.493 666.192 624.797 666.08ZM633.127 664.144V664.56H627.607C627.767 665.76 628.471 666.368 629.495 666.368C630.551 666.368 630.935 665.824 631.063 665.408H633.095C632.839 666.768 631.751 668.08 629.383 668.08C626.999 668.08 625.495 666.432 625.495 664.096C625.495 661.728 627.143 660.08 629.415 660.08C631.799 660.08 633.127 661.744 633.127 664.144ZM629.431 661.712C628.551 661.712 627.847 662.208 627.639 663.296H631.079C630.935 662.176 630.327 661.712 629.431 661.712ZM639.973 660.16H642.085V668C642.085 669.904 640.629 671.392 638.069 671.392C635.941 671.392 634.533 670.56 634.357 668.8H636.421C636.549 669.456 637.109 669.728 638.069 669.728C639.285 669.728 639.893 668.992 639.893 668.08V666.864C639.461 667.584 638.709 668.064 637.541 668.064C635.445 668.064 634.085 666.4 634.085 664.096C634.085 661.552 635.685 660.08 637.621 660.08C638.773 660.08 639.509 660.528 639.909 661.168L639.973 660.16ZM638.053 666.224C639.205 666.224 639.893 665.248 639.893 664.304V663.84C639.893 662.944 639.237 661.92 638.053 661.92C637.029 661.92 636.309 662.784 636.309 664.096C636.309 665.376 637.029 666.224 638.053 666.224ZM647.472 660.08C649.904 660.08 651.504 661.696 651.504 664.048C651.504 666.4 649.904 668.08 647.472 668.08C645.072 668.08 643.456 666.48 643.456 664.128C643.456 661.76 645.072 660.08 647.472 660.08ZM647.472 661.888C646.384 661.888 645.664 662.768 645.664 664.096C645.664 665.392 646.384 666.272 647.472 666.272C648.592 666.272 649.28 665.392 649.28 664.096C649.28 662.768 648.592 661.888 647.472 661.888ZM657.06 660.08C657.236 660.08 657.46 660.096 657.556 660.144L657.54 662.288C657.412 662.24 657.3 662.208 656.996 662.208C656.004 662.208 655.204 662.832 655.076 663.952V668H652.884V660.16H654.996L655.044 661.44C655.412 660.64 656.036 660.08 657.06 660.08ZM661.174 657.632C661.174 658.432 660.55 658.992 659.75 658.992C658.966 658.992 658.342 658.432 658.342 657.632C658.342 656.848 658.966 656.256 659.75 656.256C660.55 656.256 661.174 656.848 661.174 657.632ZM658.646 668V660.16H660.854V668H658.646ZM669.858 664.144V664.56H664.338C664.498 665.76 665.202 666.368 666.226 666.368C667.282 666.368 667.666 665.824 667.794 665.408H669.826C669.57 666.768 668.482 668.08 666.114 668.08C663.73 668.08 662.226 666.432 662.226 664.096C662.226 661.728 663.874 660.08 666.146 660.08C668.53 660.08 669.858 661.744 669.858 664.144ZM666.162 661.712C665.282 661.712 664.578 662.208 664.37 663.296H667.81C667.666 662.176 667.058 661.712 666.162 661.712ZM677.536 665.776C677.552 667.232 676.224 668.08 674.128 668.08C671.92 668.08 670.8 667.184 670.784 665.552L672.656 665.568C672.704 666.208 673.136 666.56 674.096 666.56C675.024 666.56 675.424 666.288 675.408 665.84C675.408 664.368 670.944 665.568 670.944 662.4C670.944 660.96 672.224 660.08 674.288 660.08C676.288 660.08 677.408 661.008 677.424 662.56H675.52C675.472 661.92 675.04 661.6 674.272 661.6C673.44 661.6 673.072 661.888 673.072 662.336C673.072 663.776 677.536 662.512 677.536 665.776Z" fill="#7C8698"/>
<path d="M578.35 631.88H585.84V640H559.94V631.88H568.76V604.16C566.31 605.42 564.14 605.84 560.08 605.84V597.79C565.47 597.79 568.62 596.25 570.86 591.98H578.35V631.88ZM609.488 609.69C618.518 609.62 625.308 615.5 625.308 624.6C625.308 633.63 619.008 640.49 608.298 640.49C596.258 640.49 588.978 631.67 588.978 616.27C588.978 600.24 596.328 591.42 608.228 591.42C617.748 591.42 624.258 597.09 624.258 605.21L614.598 605.14C614.528 601.5 611.798 599.89 608.298 599.89C602.418 599.89 598.918 604.37 598.568 614.38C601.088 611.58 604.798 609.69 609.488 609.69ZM607.948 632.02C612.778 632.02 615.648 629.01 615.648 624.6C615.648 620.26 612.988 617.25 608.018 617.25C602.208 617.25 597.798 622.01 600.948 628.24L600.808 628.17C602.278 630.83 604.658 632.02 607.948 632.02Z" fill="#001E80"/>
<rect x="37" y="463" width="446" height="277" rx="5" fill="#EAEEFE"/>
<path d="M76.086 541V530.758H72.18V528.652H82.476V530.758H78.57V541H76.086ZM90.273 538.966L90.417 540.91C90.075 541.018 89.661 541.09 89.157 541.09C88.203 541.09 87.465 540.64 87.159 539.668H87.141C86.853 540.208 86.115 541.09 84.243 541.09C82.299 541.09 81.255 540.136 81.255 538.678C81.255 536.518 83.469 535.888 85.881 535.888H87.015V535.492C87.015 534.574 86.457 533.962 85.341 533.962C84.405 533.962 83.811 534.43 83.721 535.186H81.489C81.633 533.188 83.181 532.09 85.467 532.09C88.041 532.09 89.409 533.44 89.409 535.672V538.516C89.409 538.876 89.571 539.056 89.823 539.056C89.985 539.056 90.075 539.038 90.273 538.966ZM84.927 539.29C86.223 539.29 87.015 538.498 87.015 537.796V537.238H85.737C84.423 537.238 83.649 537.616 83.649 538.39C83.649 538.966 84.081 539.29 84.927 539.29ZM94.8577 538.966L95.0017 540.91C94.6597 541.018 94.2457 541.09 93.7057 541.09C92.2657 541.09 91.5277 540.226 91.5277 538.66V528.22H93.9937V538.516C93.9937 538.858 94.1737 539.056 94.4257 539.056C94.5697 539.056 94.6597 539.038 94.8577 538.966ZM104.477 536.662V537.13H98.2668C98.4468 538.48 99.2388 539.164 100.391 539.164C101.579 539.164 102.011 538.552 102.155 538.084H104.441C104.153 539.614 102.929 541.09 100.265 541.09C97.5828 541.09 95.8908 539.236 95.8908 536.608C95.8908 533.944 97.7448 532.09 100.301 532.09C102.983 532.09 104.477 533.962 104.477 536.662ZM100.319 533.926C99.3288 533.926 98.5368 534.484 98.3028 535.708H102.173C102.011 534.448 101.327 533.926 100.319 533.926ZM111.225 532.09C113.223 532.09 114.303 533.494 114.303 535.474V541H111.837V536.032C111.837 534.916 111.315 534.232 110.271 534.232C109.191 534.232 108.489 534.97 108.489 536.068V541H106.023V532.18H108.399L108.471 533.476C108.993 532.648 109.875 532.09 111.225 532.09ZM121.759 538.84L121.831 540.856C121.507 540.982 120.949 541.09 120.301 541.09C117.961 541.09 116.665 539.722 116.665 537.724V534.142H115.369V532.18H116.809V529.678H119.131V532.18H121.759V534.142H119.131V537.616C119.131 538.48 119.563 539.038 120.697 539.038C121.075 539.038 121.417 538.966 121.759 538.84ZM127.023 541V528.652H129.507V541H127.023ZM136.942 532.09C138.94 532.09 140.02 533.494 140.02 535.474V541H137.554V536.032C137.554 534.916 137.032 534.232 135.988 534.232C134.908 534.232 134.206 534.97 134.206 536.068V541H131.74V532.18H134.116L134.188 533.476C134.71 532.648 135.592 532.09 136.942 532.09ZM147.477 538.84L147.549 540.856C147.225 540.982 146.667 541.09 146.019 541.09C143.679 541.09 142.383 539.722 142.383 537.724V534.142H141.087V532.18H142.527V529.678H144.849V532.18H147.477V534.142H144.849V537.616C144.849 538.48 145.281 539.038 146.415 539.038C146.793 539.038 147.135 538.966 147.477 538.84ZM156.848 536.662V537.13H150.638C150.818 538.48 151.61 539.164 152.762 539.164C153.95 539.164 154.382 538.552 154.526 538.084H156.812C156.524 539.614 155.3 541.09 152.636 541.09C149.954 541.09 148.262 539.236 148.262 536.608C148.262 533.944 150.116 532.09 152.672 532.09C155.354 532.09 156.848 533.962 156.848 536.662ZM152.69 533.926C151.7 533.926 150.908 534.484 150.674 535.708H154.544C154.382 534.448 153.698 533.926 152.69 533.926ZM163.091 532.09C163.289 532.09 163.541 532.108 163.649 532.162L163.631 534.574C163.487 534.52 163.361 534.484 163.019 534.484C161.903 534.484 161.003 535.186 160.859 536.446V541H158.393V532.18H160.769L160.823 533.62C161.237 532.72 161.939 532.09 163.091 532.09ZM170.617 532.18H173.119L169.897 541H167.143L163.921 532.18H166.567L168.331 537.634C168.421 537.868 168.493 538.21 168.583 538.66H168.637C168.709 538.21 168.781 537.868 168.853 537.634L170.617 532.18ZM177.032 529.336C177.032 530.236 176.33 530.866 175.43 530.866C174.548 530.866 173.846 530.236 173.846 529.336C173.846 528.454 174.548 527.788 175.43 527.788C176.33 527.788 177.032 528.454 177.032 529.336ZM174.188 541V532.18H176.672V541H174.188ZM186.801 536.662V537.13H180.591C180.771 538.48 181.563 539.164 182.715 539.164C183.903 539.164 184.335 538.552 184.479 538.084H186.765C186.477 539.614 185.253 541.09 182.589 541.09C179.907 541.09 178.215 539.236 178.215 536.608C178.215 533.944 180.069 532.09 182.625 532.09C185.307 532.09 186.801 533.962 186.801 536.662ZM182.643 533.926C181.653 533.926 180.861 534.484 180.627 535.708H184.497C184.335 534.448 183.651 533.926 182.643 533.926ZM198.251 532.18H200.825L198.323 541H195.497L194.273 536.356C194.219 536.086 194.111 535.6 194.093 535.402H194.039C194.021 535.6 193.949 536.086 193.877 536.356L192.653 541H189.827L187.325 532.18H189.899L191.105 537.508C191.195 537.976 191.285 538.318 191.321 538.66H191.375C191.429 538.318 191.519 537.976 191.627 537.508L192.959 532.18H195.173L196.523 537.508C196.631 537.976 196.721 538.318 196.775 538.66H196.829C196.865 538.318 196.937 538.012 197.045 537.508L198.251 532.18ZM208.953 538.498C208.971 540.136 207.477 541.09 205.119 541.09C202.635 541.09 201.375 540.082 201.357 538.246L203.463 538.264C203.517 538.984 204.003 539.38 205.083 539.38C206.127 539.38 206.577 539.074 206.559 538.57C206.559 536.914 201.537 538.264 201.537 534.7C201.537 533.08 202.977 532.09 205.299 532.09C207.549 532.09 208.809 533.134 208.827 534.88H206.685C206.631 534.16 206.145 533.8 205.281 533.8C204.345 533.8 203.931 534.124 203.931 534.628C203.931 536.248 208.953 534.826 208.953 538.498Z" fill="black"/>
<path d="M76.016 666.144H80.288V668H72.784V666.528L76.592 662.704C77.328 661.968 77.872 661.232 77.872 660.304C77.872 659.296 77.312 658.816 76.448 658.816C75.504 658.816 74.832 659.44 74.832 660.656L72.608 660.672C72.608 658.256 74.208 656.88 76.432 656.88C78.672 656.88 80.112 658.192 80.112 660.304C80.112 661.744 79.456 662.768 78.128 664.064L76.016 666.144ZM85.435 660.848C87.563 660.848 89.147 662.112 89.147 664.48C89.147 666.752 87.419 668.112 85.147 668.112C82.907 668.112 81.195 666.8 81.195 664.704H83.419C83.419 665.696 84.187 666.176 85.115 666.176C86.171 666.176 86.923 665.568 86.907 664.48C86.923 663.312 86.219 662.752 85.147 662.752C84.443 662.752 83.947 663.008 83.531 663.328L81.627 662.672L82.203 657.024H88.523V658.88H83.963L83.739 661.152C84.235 660.96 84.795 660.848 85.435 660.848ZM100.589 668L99.8053 665.616H95.3733L94.5893 668H92.3813L96.3013 657.024H98.8773L102.797 668H100.589ZM95.9653 663.872H99.2133L97.5973 658.976L95.9653 663.872ZM106.979 668.08C104.627 668.08 103.123 666.432 103.123 664.096C103.123 661.728 104.739 660.08 107.011 660.08C109.347 660.08 110.467 661.488 110.659 663.232H108.547C108.419 662.48 107.987 661.888 107.075 661.888C106.051 661.888 105.331 662.656 105.331 664.096C105.331 665.504 106.019 666.272 107.059 666.272C108.019 666.272 108.419 665.696 108.547 664.96H110.659C110.451 666.672 109.315 668.08 106.979 668.08ZM116.856 666.08L116.92 667.872C116.632 667.984 116.136 668.08 115.56 668.08C113.48 668.08 112.328 666.864 112.328 665.088V661.904H111.176V660.16H112.456V657.936H114.52V660.16H116.856V661.904H114.52V664.992C114.52 665.76 114.904 666.256 115.912 666.256C116.248 666.256 116.552 666.192 116.856 666.08ZM120.591 657.632C120.591 658.432 119.967 658.992 119.167 658.992C118.383 658.992 117.759 658.432 117.759 657.632C117.759 656.848 118.383 656.256 119.167 656.256C119.967 656.256 120.591 656.848 120.591 657.632ZM118.063 668V660.16H120.271V668H118.063ZM127.163 660.16H129.387L126.523 668H124.075L121.211 660.16H123.563L125.131 665.008C125.211 665.216 125.275 665.52 125.355 665.92H125.403C125.467 665.52 125.531 665.216 125.595 665.008L127.163 660.16ZM137.318 664.144V664.56H131.798C131.958 665.76 132.662 666.368 133.686 666.368C134.742 666.368 135.126 665.824 135.254 665.408H137.286C137.03 666.768 135.942 668.08 133.574 668.08C131.19 668.08 129.686 666.432 129.686 664.096C129.686 661.728 131.334 660.08 133.606 660.08C135.99 660.08 137.318 661.744 137.318 664.144ZM133.622 661.712C132.742 661.712 132.038 662.208 131.83 663.296H135.27C135.126 662.176 134.518 661.712 133.622 661.712ZM142.164 668V657.024H144.372V668H142.164ZM150.981 660.08C152.757 660.08 153.717 661.328 153.717 663.088V668H151.525V663.584C151.525 662.592 151.061 661.984 150.133 661.984C149.173 661.984 148.549 662.64 148.549 663.616V668H146.357V660.16H148.469L148.533 661.312C148.997 660.576 149.781 660.08 150.981 660.08ZM160.345 666.08L160.409 667.872C160.121 667.984 159.625 668.08 159.049 668.08C156.969 668.08 155.817 666.864 155.817 665.088V661.904H154.665V660.16H155.945V657.936H158.009V660.16H160.345V661.904H158.009V664.992C158.009 665.76 158.393 666.256 159.401 666.256C159.737 666.256 160.041 666.192 160.345 666.08ZM168.674 664.144V664.56H163.154C163.314 665.76 164.018 666.368 165.042 666.368C166.098 666.368 166.482 665.824 166.61 665.408H168.642C168.386 666.768 167.298 668.08 164.93 668.08C162.546 668.08 161.042 666.432 161.042 664.096C161.042 661.728 162.69 660.08 164.962 660.08C167.346 660.08 168.674 661.744 168.674 664.144ZM164.978 661.712C164.098 661.712 163.394 662.208 163.186 663.296H166.626C166.482 662.176 165.874 661.712 164.978 661.712ZM174.225 660.08C174.401 660.08 174.625 660.096 174.721 660.144L174.705 662.288C174.577 662.24 174.465 662.208 174.161 662.208C173.169 662.208 172.369 662.832 172.241 663.952V668H170.049V660.16H172.161L172.209 661.44C172.577 660.64 173.201 660.08 174.225 660.08ZM180.914 660.16H183.138L180.274 668H177.826L174.962 660.16H177.314L178.882 665.008C178.962 665.216 179.026 665.52 179.106 665.92H179.154C179.218 665.52 179.282 665.216 179.346 665.008L180.914 660.16ZM186.616 657.632C186.616 658.432 185.992 658.992 185.192 658.992C184.408 658.992 183.784 658.432 183.784 657.632C183.784 656.848 184.408 656.256 185.192 656.256C185.992 656.256 186.616 656.848 186.616 657.632ZM184.088 668V660.16H186.296V668H184.088ZM195.3 664.144V664.56H189.78C189.94 665.76 190.644 666.368 191.668 666.368C192.724 666.368 193.108 665.824 193.236 665.408H195.268C195.012 666.768 193.924 668.08 191.556 668.08C189.172 668.08 187.668 666.432 187.668 664.096C187.668 661.728 189.316 660.08 191.588 660.08C193.972 660.08 195.3 661.744 195.3 664.144ZM191.604 661.712C190.724 661.712 190.02 662.208 189.812 663.296H193.252C193.108 662.176 192.5 661.712 191.604 661.712ZM205.477 660.16H207.765L205.541 668H203.029L201.941 663.872C201.893 663.632 201.797 663.2 201.781 663.024H201.733C201.717 663.2 201.653 663.632 201.589 663.872L200.501 668H197.989L195.765 660.16H198.053L199.125 664.896C199.205 665.312 199.285 665.616 199.317 665.92H199.365C199.413 665.616 199.493 665.312 199.589 664.896L200.773 660.16H202.741L203.941 664.896C204.037 665.312 204.117 665.616 204.165 665.92H204.213C204.245 665.616 204.309 665.344 204.405 664.896L205.477 660.16ZM214.99 665.776C215.006 667.232 213.678 668.08 211.582 668.08C209.374 668.08 208.254 667.184 208.238 665.552L210.11 665.568C210.158 666.208 210.59 666.56 211.55 666.56C212.478 666.56 212.878 666.288 212.862 665.84C212.862 664.368 208.398 665.568 208.398 662.4C208.398 660.96 209.678 660.08 211.742 660.08C213.742 660.08 214.862 661.008 214.878 662.56H212.974C212.926 661.92 212.494 661.6 211.726 661.6C210.894 661.6 210.526 661.888 210.526 662.336C210.526 663.776 214.99 662.512 214.99 665.776Z" fill="#7C8698"/>
<path d="M93.35 631.88H100.84V640H74.94V631.88H83.76V604.16C81.31 605.42 79.14 605.84 75.08 605.84V597.79C80.47 597.79 83.62 596.25 85.86 591.98H93.35V631.88ZM138.48 626.21C138.55 634.96 130.57 640.49 120.77 640.49C110.76 640.49 103.69 634.89 103.69 624.95L113.35 625.02C113.42 629.99 116.71 632.02 121.19 632.02C125.81 632.02 128.75 629.92 128.68 625.93C128.68 621.38 125.6 619.42 120.77 619.42H116.29V612H120.42C124.76 612 127.63 609.97 127.7 605.91C127.7 601.64 124.69 599.82 121.12 599.82C117.34 599.82 114.26 601.92 114.26 607.17H104.6C104.53 597.37 111.53 591.42 121.26 591.35C130.57 591.35 137.43 596.88 137.5 605.7C137.5 610.11 135.47 613.33 132.32 615.36C136.03 617.53 138.41 621.03 138.48 626.21ZM164.325 609.69C173.355 609.62 180.145 615.5 180.145 624.6C180.145 633.63 173.845 640.49 163.135 640.49C151.095 640.49 143.815 631.67 143.815 616.27C143.815 600.24 151.165 591.42 163.065 591.42C172.585 591.42 179.095 597.09 179.095 605.21L169.435 605.14C169.365 601.5 166.635 599.89 163.135 599.89C157.255 599.89 153.755 604.37 153.405 614.38C155.925 611.58 159.635 609.69 164.325 609.69ZM162.785 632.02C167.615 632.02 170.485 629.01 170.485 624.6C170.485 620.26 167.825 617.25 162.855 617.25C157.045 617.25 152.635 622.01 155.785 628.24L155.645 628.17C157.115 630.83 159.495 632.02 162.785 632.02Z" fill="#001E80"/>
</svg>
