<svg width="692" height="569" viewBox="0 0 692 569" fill="none" xmlns="http://www.w3.org/2000/svg">
<rect width="692" height="569" fill="white"/>
<rect x="56" y="82" width="123" height="44" rx="5" fill="black"/>
<path d="M101.72 99.848H96.456V102.936H101.064V104.728H96.456V109H94.248V98.024H101.72V99.848ZM105.245 98.632C105.245 99.432 104.621 99.992 103.821 99.992C103.037 99.992 102.413 99.432 102.413 98.632C102.413 97.848 103.037 97.256 103.821 97.256C104.621 97.256 105.245 97.848 105.245 98.632ZM102.717 109V101.16H104.925V109H102.717ZM111.945 101.16H114.057V109C114.057 110.904 112.601 112.392 110.041 112.392C107.913 112.392 106.505 111.56 106.329 109.8H108.393C108.521 110.456 109.081 110.728 110.041 110.728C111.257 110.728 111.865 109.992 111.865 109.08V107.864C111.433 108.584 110.681 109.064 109.513 109.064C107.417 109.064 106.057 107.4 106.057 105.096C106.057 102.552 107.657 101.08 109.593 101.08C110.745 101.08 111.481 101.528 111.881 102.168L111.945 101.16ZM110.025 107.224C111.177 107.224 111.865 106.248 111.865 105.304V104.84C111.865 103.944 111.209 102.92 110.025 102.92C109.001 102.92 108.281 103.784 108.281 105.096C108.281 106.376 109.001 107.224 110.025 107.224ZM125.092 101.08C126.836 101.08 127.764 102.312 127.764 104.056V109H125.556V104.536C125.556 103.544 125.06 102.984 124.26 102.984C123.38 102.984 122.772 103.64 122.772 104.616V109H120.58V104.536C120.58 103.56 120.1 102.984 119.284 102.984C118.404 102.984 117.796 103.64 117.796 104.616V109H115.604V101.16H117.716L117.78 102.296C118.228 101.576 118.996 101.08 120.084 101.08C121.348 101.08 122.18 101.736 122.548 102.712C122.948 101.768 123.796 101.08 125.092 101.08ZM136.771 107.192L136.899 108.92C136.595 109.016 136.227 109.08 135.779 109.08C134.931 109.08 134.275 108.68 134.003 107.816H133.987C133.731 108.296 133.075 109.08 131.411 109.08C129.683 109.08 128.755 108.232 128.755 106.936C128.755 105.016 130.723 104.456 132.867 104.456H133.875V104.104C133.875 103.288 133.379 102.744 132.387 102.744C131.555 102.744 131.027 103.16 130.947 103.832H128.963C129.091 102.056 130.467 101.08 132.499 101.08C134.787 101.08 136.003 102.28 136.003 104.264V106.792C136.003 107.112 136.147 107.272 136.371 107.272C136.515 107.272 136.595 107.256 136.771 107.192ZM132.019 107.48C133.171 107.48 133.875 106.776 133.875 106.152V105.656H132.739C131.571 105.656 130.883 105.992 130.883 106.68C130.883 107.192 131.267 107.48 132.019 107.48Z" fill="white"/>
<rect x="199" y="82" width="123" height="44" rx="5" fill="black"/>
<path d="M234.288 109L233.504 106.616H229.072L228.288 109H226.08L230 98.024H232.576L236.496 109H234.288ZM229.664 104.872H232.912L231.296 99.976L229.664 104.872ZM242.422 97.64H244.614V109H242.486L242.438 107.864C241.974 108.568 241.174 109.08 240.006 109.08C238.022 109.08 236.582 107.64 236.582 105.176C236.582 102.776 237.942 101.08 240.118 101.08C241.27 101.08 241.99 101.544 242.422 102.232V97.64ZM240.55 107.24C241.766 107.24 242.422 106.216 242.422 105.336V104.84C242.422 103.896 241.734 102.92 240.566 102.92C239.526 102.92 238.806 103.784 238.806 105.112C238.806 106.408 239.494 107.24 240.55 107.24ZM249.76 101.08C252.192 101.08 253.792 102.696 253.792 105.048C253.792 107.4 252.192 109.08 249.76 109.08C247.36 109.08 245.744 107.48 245.744 105.128C245.744 102.76 247.36 101.08 249.76 101.08ZM249.76 102.888C248.672 102.888 247.952 103.768 247.952 105.096C247.952 106.392 248.672 107.272 249.76 107.272C250.88 107.272 251.568 106.392 251.568 105.096C251.568 103.768 250.88 102.888 249.76 102.888ZM259.556 101.08C261.54 101.08 262.964 102.472 262.964 104.952C262.964 107.384 261.604 109.08 259.476 109.08C258.292 109.08 257.54 108.584 257.108 107.848L257.06 109H254.932V97.64H257.124V102.264C257.588 101.576 258.388 101.08 259.556 101.08ZM258.98 107.24C260.02 107.24 260.74 106.376 260.74 105.048C260.74 103.752 260.068 102.92 258.996 102.92C257.78 102.92 257.124 103.944 257.124 104.824V105.32C257.124 106.264 257.812 107.24 258.98 107.24ZM271.326 105.144V105.56H265.806C265.966 106.76 266.67 107.368 267.694 107.368C268.75 107.368 269.134 106.824 269.262 106.408H271.294C271.038 107.768 269.95 109.08 267.582 109.08C265.198 109.08 263.694 107.432 263.694 105.096C263.694 102.728 265.342 101.08 267.614 101.08C269.998 101.08 271.326 102.744 271.326 105.144ZM267.63 102.712C266.75 102.712 266.046 103.208 265.838 104.296H269.278C269.134 103.176 268.526 102.712 267.63 102.712ZM284.383 109H281.903L279.375 104.728L276.831 109H274.367L277.839 103.4L274.447 98.024H276.927L279.359 102.056L281.727 98.024H284.191L280.895 103.352L284.383 109ZM289.517 98.024C292.685 98.024 294.877 100.056 294.877 103.512C294.877 106.968 292.701 109 289.517 109H285.261V98.024H289.517ZM289.517 107.176C291.357 107.176 292.653 105.928 292.653 103.512C292.653 101.096 291.341 99.848 289.517 99.848H287.469V107.176H289.517Z" fill="white"/>
<rect x="342" y="82" width="123" height="44" rx="5" fill="black"/>
<path d="M370.744 98.024C373.176 98.024 374.696 99.24 374.696 101.48C374.696 103.72 373.176 104.984 370.744 104.984H368.456V109H366.248V98.024H370.744ZM370.744 103.176C371.864 103.176 372.456 102.472 372.456 101.496C372.456 100.536 371.864 99.848 370.744 99.848H368.456V103.176H370.744ZM380.262 101.08C382.054 101.08 383.014 102.36 383.014 103.96V109H380.822V104.52C380.822 103.592 380.342 102.984 379.446 102.984C378.486 102.984 377.862 103.64 377.862 104.616V109H375.654V97.64H377.83V102.312C378.294 101.592 379.078 101.08 380.262 101.08ZM388.089 101.08C390.521 101.08 392.121 102.696 392.121 105.048C392.121 107.4 390.521 109.08 388.089 109.08C385.689 109.08 384.073 107.48 384.073 105.128C384.073 102.76 385.689 101.08 388.089 101.08ZM388.089 102.888C387.001 102.888 386.281 103.768 386.281 105.096C386.281 106.392 387.001 107.272 388.089 107.272C389.209 107.272 389.897 106.392 389.897 105.096C389.897 103.768 389.209 102.888 388.089 102.888ZM398.112 107.08L398.176 108.872C397.888 108.984 397.392 109.08 396.816 109.08C394.736 109.08 393.584 107.864 393.584 106.088V102.904H392.432V101.16H393.712V98.936H395.776V101.16H398.112V102.904H395.776V105.992C395.776 106.76 396.16 107.256 397.168 107.256C397.504 107.256 397.808 107.192 398.112 107.08ZM402.585 101.08C405.017 101.08 406.617 102.696 406.617 105.048C406.617 107.4 405.017 109.08 402.585 109.08C400.185 109.08 398.569 107.48 398.569 105.128C398.569 102.76 400.185 101.08 402.585 101.08ZM402.585 102.888C401.497 102.888 400.777 103.768 400.777 105.096C400.777 106.392 401.497 107.272 402.585 107.272C403.705 107.272 404.393 106.392 404.393 105.096C404.393 103.768 403.705 102.888 402.585 102.888ZM414.061 106.776C414.077 108.232 412.749 109.08 410.653 109.08C408.445 109.08 407.325 108.184 407.309 106.552L409.181 106.568C409.229 107.208 409.661 107.56 410.621 107.56C411.549 107.56 411.949 107.288 411.933 106.84C411.933 105.368 407.469 106.568 407.469 103.4C407.469 101.96 408.749 101.08 410.813 101.08C412.813 101.08 413.933 102.008 413.949 103.56H412.045C411.997 102.92 411.565 102.6 410.797 102.6C409.965 102.6 409.597 102.888 409.597 103.336C409.597 104.776 414.061 103.512 414.061 106.776ZM419.825 101.08C421.617 101.08 422.577 102.36 422.577 103.96V109H420.385V104.52C420.385 103.592 419.905 102.984 419.009 102.984C418.049 102.984 417.425 103.64 417.425 104.616V109H415.217V97.64H417.393V102.312C417.857 101.592 418.641 101.08 419.825 101.08ZM427.651 101.08C430.083 101.08 431.683 102.696 431.683 105.048C431.683 107.4 430.083 109.08 427.651 109.08C425.251 109.08 423.635 107.48 423.635 105.128C423.635 102.76 425.251 101.08 427.651 101.08ZM427.651 102.888C426.563 102.888 425.843 103.768 425.843 105.096C425.843 106.392 426.563 107.272 427.651 107.272C428.771 107.272 429.459 106.392 429.459 105.096C429.459 103.768 428.771 102.888 427.651 102.888ZM437.447 101.08C439.431 101.08 440.855 102.472 440.855 104.952C440.855 107.384 439.495 109.08 437.367 109.08C436.215 109.08 435.447 108.6 435.015 107.88V112.232H432.823V101.144H434.951L434.999 102.296C435.447 101.592 436.263 101.08 437.447 101.08ZM436.871 107.24C437.911 107.24 438.631 106.376 438.631 105.048C438.631 103.752 437.959 102.92 436.887 102.92C435.671 102.92 435.015 103.944 435.015 104.824V105.32C435.015 106.264 435.703 107.24 436.871 107.24Z" fill="white"/>
<rect x="485" y="82" width="123" height="44" rx="5" fill="black"/>
<path d="M513.248 109V98.024H515.456V109H513.248ZM520.113 107.192L520.241 108.92C519.937 109.016 519.569 109.08 519.089 109.08C517.809 109.08 517.153 108.312 517.153 106.92V97.64H519.345V106.792C519.345 107.096 519.505 107.272 519.729 107.272C519.857 107.272 519.937 107.256 520.113 107.192ZM524.182 107.192L524.31 108.92C524.006 109.016 523.638 109.08 523.158 109.08C521.878 109.08 521.222 108.312 521.222 106.92V97.64H523.414V106.792C523.414 107.096 523.574 107.272 523.798 107.272C523.926 107.272 524.006 107.256 524.182 107.192ZM530.251 101.16H532.443V109H530.331L530.267 107.848C529.819 108.584 529.051 109.08 527.963 109.08C526.171 109.08 525.259 107.816 525.259 106.2V101.16H527.467V105.688C527.467 106.6 527.931 107.176 528.811 107.176C529.627 107.176 530.251 106.52 530.251 105.544V101.16ZM540.305 106.776C540.321 108.232 538.993 109.08 536.897 109.08C534.689 109.08 533.569 108.184 533.553 106.552L535.425 106.568C535.473 107.208 535.905 107.56 536.865 107.56C537.793 107.56 538.193 107.288 538.177 106.84C538.177 105.368 533.713 106.568 533.713 103.4C533.713 101.96 534.993 101.08 537.057 101.08C539.057 101.08 540.177 102.008 540.193 103.56H538.289C538.241 102.92 537.809 102.6 537.041 102.6C536.209 102.6 535.841 102.888 535.841 103.336C535.841 104.776 540.305 103.512 540.305 106.776ZM546.359 107.08L546.423 108.872C546.135 108.984 545.639 109.08 545.063 109.08C542.983 109.08 541.831 107.864 541.831 106.088V102.904H540.679V101.16H541.959V98.936H544.023V101.16H546.359V102.904H544.023V105.992C544.023 106.76 544.407 107.256 545.415 107.256C545.751 107.256 546.055 107.192 546.359 107.08ZM551.502 101.08C551.678 101.08 551.902 101.096 551.998 101.144L551.982 103.288C551.854 103.24 551.742 103.208 551.438 103.208C550.446 103.208 549.646 103.832 549.518 104.952V109H547.326V101.16H549.438L549.486 102.44C549.854 101.64 550.478 101.08 551.502 101.08ZM560.243 107.192L560.371 108.92C560.067 109.016 559.699 109.08 559.251 109.08C558.403 109.08 557.747 108.68 557.475 107.816H557.459C557.203 108.296 556.547 109.08 554.883 109.08C553.155 109.08 552.227 108.232 552.227 106.936C552.227 105.016 554.195 104.456 556.339 104.456H557.347V104.104C557.347 103.288 556.851 102.744 555.859 102.744C555.027 102.744 554.499 103.16 554.419 103.832H552.435C552.563 102.056 553.939 101.08 555.971 101.08C558.259 101.08 559.475 102.28 559.475 104.264V106.792C559.475 107.112 559.619 107.272 559.843 107.272C559.987 107.272 560.067 107.256 560.243 107.192ZM555.491 107.48C556.643 107.48 557.347 106.776 557.347 106.152V105.656H556.211C555.043 105.656 554.355 105.992 554.355 106.68C554.355 107.192 554.739 107.48 555.491 107.48ZM566.049 107.08L566.113 108.872C565.825 108.984 565.329 109.08 564.753 109.08C562.673 109.08 561.521 107.864 561.521 106.088V102.904H560.369V101.16H561.649V98.936H563.713V101.16H566.049V102.904H563.713V105.992C563.713 106.76 564.097 107.256 565.105 107.256C565.441 107.256 565.745 107.192 566.049 107.08ZM570.523 101.08C572.955 101.08 574.555 102.696 574.555 105.048C574.555 107.4 572.955 109.08 570.523 109.08C568.123 109.08 566.507 107.48 566.507 105.128C566.507 102.76 568.123 101.08 570.523 101.08ZM570.523 102.888C569.435 102.888 568.715 103.768 568.715 105.096C568.715 106.392 569.435 107.272 570.523 107.272C571.643 107.272 572.331 106.392 572.331 105.096C572.331 103.768 571.643 102.888 570.523 102.888ZM579.871 101.08C580.047 101.08 580.271 101.096 580.367 101.144L580.351 103.288C580.223 103.24 580.111 103.208 579.807 103.208C578.815 103.208 578.015 103.832 577.887 104.952V109H575.695V101.16H577.807L577.855 102.44C578.223 101.64 578.847 101.08 579.871 101.08Z" fill="white"/>
<path d="M59.74 52.02C59.74 55.02 67.54 52.56 67.54 58.22C67.54 60.62 65.34 62.12 62.08 62.12C58.68 62.12 56.7 60.62 56.7 57.9H59.46C59.46 59.14 60.4 59.82 62.22 59.82C63.86 59.82 64.8 59.26 64.8 58.22C64.8 55.08 56.98 57.54 56.98 52.08C56.98 49.74 59.08 48.14 62.2 48.14C65.38 48.14 67.36 49.7 67.36 52.32H64.6C64.58 51.02 63.7 50.44 62.16 50.44C60.5 50.44 59.74 51 59.74 52.02ZM75.7842 62L73.1642 58.14L71.7842 59.66V62H69.0442V47.8H71.7842V56.24L75.2442 52.18H78.5042L74.9242 56.18L78.8642 62H75.7842ZM82.6027 49.04C82.6027 50.04 81.8227 50.74 80.8227 50.74C79.8427 50.74 79.0627 50.04 79.0627 49.04C79.0627 48.06 79.8427 47.32 80.8227 47.32C81.8227 47.32 82.6027 48.06 82.6027 49.04ZM79.4427 62V52.2H82.2027V62H79.4427ZM87.778 59.74L87.938 61.9C87.558 62.02 87.098 62.1 86.498 62.1C84.898 62.1 84.078 61.14 84.078 59.4V47.8H86.818V59.24C86.818 59.62 87.018 59.84 87.298 59.84C87.458 59.84 87.558 59.82 87.778 59.74ZM92.8639 59.74L93.0239 61.9C92.6439 62.02 92.1839 62.1 91.5839 62.1C89.9839 62.1 89.1639 61.14 89.1639 59.4V47.8H91.9039V59.24C91.9039 59.62 92.1039 59.84 92.3839 59.84C92.5439 59.84 92.6439 59.82 92.8639 59.74ZM102.19 59.22C102.21 61.04 100.55 62.1 97.9298 62.1C95.1698 62.1 93.7698 60.98 93.7498 58.94L96.0898 58.96C96.1498 59.76 96.6898 60.2 97.8898 60.2C99.0498 60.2 99.5498 59.86 99.5298 59.3C99.5298 57.46 93.9498 58.96 93.9498 55C93.9498 53.2 95.5498 52.1 98.1298 52.1C100.63 52.1 102.03 53.26 102.05 55.2H99.6698C99.6098 54.4 99.0698 54 98.1098 54C97.0698 54 96.6098 54.36 96.6098 54.92C96.6098 56.72 102.19 55.14 102.19 59.22Z" fill="black"/>
<path d="M58.98 240.82C58.98 244.52 67.06 241.76 67.06 247.42C67.06 249.64 65.02 251.12 62 251.12C58.78 251.12 56.84 249.66 56.84 247.06H58.58C58.58 248.62 59.82 249.56 62.14 249.56C64.1 249.56 65.3 248.78 65.28 247.42C65.28 243.54 57.2 246.36 57.2 240.86C57.2 238.6 59.16 237.16 62.1 237.16C65.04 237.16 66.9 238.62 66.88 241.12H65.14C65.14 239.46 63.92 238.72 62.04 238.72C59.92 238.72 58.98 239.48 58.98 240.82ZM77.7922 246.12V246.56H70.4722C70.6122 248.42 71.6722 249.6 73.3922 249.6C75.1122 249.6 75.7722 248.7 75.9522 247.9H77.7322C77.3522 249.68 75.9922 251.1 73.3722 251.1C70.3122 251.1 68.6522 249 68.6522 246.12C68.6522 243.18 70.5922 241.1 73.3322 241.1C76.0722 241.1 77.7922 242.96 77.7922 246.12ZM73.3522 242.6C71.8522 242.6 70.7922 243.62 70.5122 245.26H76.0122C75.7922 243.5 74.8322 242.6 73.3522 242.6ZM84.7916 241.1C86.9516 241.1 88.3316 242.42 88.3316 244.82V251H86.5516V245.18C86.5516 243.52 85.7716 242.6 84.3116 242.6C82.7316 242.6 81.6716 243.64 81.6716 245.3V251H79.9116V241.2H81.5716L81.6516 242.66C82.2716 241.76 83.3116 241.1 84.7916 241.1ZM93.102 238C93.102 238.7 92.562 239.2 91.882 239.2C91.202 239.2 90.662 238.7 90.662 238C90.662 237.32 91.202 236.8 91.882 236.8C92.562 236.8 93.102 237.32 93.102 238ZM90.942 251V241.2H92.722V251H90.942ZM99.6891 241.1C102.629 241.1 104.549 243.1 104.549 246.08C104.549 249.04 102.629 251.1 99.6891 251.1C96.7891 251.1 94.8491 249.16 94.8491 246.2C94.8491 243.22 96.7891 241.1 99.6891 241.1ZM99.6891 242.6C97.8691 242.6 96.6491 244.06 96.6491 246.14C96.6491 248.2 97.8691 249.6 99.6891 249.6C101.549 249.6 102.749 248.2 102.749 246.14C102.749 244.06 101.549 242.6 99.6891 242.6ZM110.955 241.1C111.215 241.1 111.395 241.14 111.515 241.16L111.495 242.9C111.415 242.86 111.235 242.82 110.835 242.82C109.595 242.82 108.435 243.86 108.435 245.84V251H106.675V241.2H108.335L108.375 242.78C108.855 241.82 109.675 241.1 110.955 241.1ZM119.215 249.44H126.475V251H117.455V237.28H119.215V249.44ZM136.255 246.12V246.56H128.935C129.075 248.42 130.135 249.6 131.855 249.6C133.575 249.6 134.235 248.7 134.415 247.9H136.195C135.815 249.68 134.455 251.1 131.835 251.1C128.775 251.1 127.115 249 127.115 246.12C127.115 243.18 129.055 241.1 131.795 241.1C134.535 241.1 136.255 242.96 136.255 246.12ZM131.815 242.6C130.315 242.6 129.255 243.62 128.975 245.26H134.475C134.255 243.5 133.295 242.6 131.815 242.6ZM144.68 241.2H146.48L142.72 251H140.8L136.98 241.2H138.96L141.48 248.16C141.62 248.52 141.7 248.8 141.8 249.2H141.84C141.92 248.8 142 248.52 142.12 248.16L144.68 241.2ZM156.344 246.12V246.56H149.024C149.164 248.42 150.224 249.6 151.944 249.6C153.664 249.6 154.324 248.7 154.504 247.9H156.284C155.904 249.68 154.544 251.1 151.924 251.1C148.864 251.1 147.204 249 147.204 246.12C147.204 243.18 149.144 241.1 151.884 241.1C154.624 241.1 156.344 242.96 156.344 246.12ZM151.904 242.6C150.404 242.6 149.344 243.62 149.064 245.26H154.564C154.344 243.5 153.384 242.6 151.904 242.6ZM161.223 249.4L161.363 250.94C161.023 251.04 160.663 251.1 160.243 251.1C159.103 251.1 158.403 250.32 158.403 249.18V236.8H160.163V248.84C160.163 249.26 160.423 249.5 160.763 249.5C160.923 249.5 161.023 249.48 161.223 249.4Z" fill="black"/>
<path d="M60.32 209.7H67.24V212H57.56V198.28H67.12V200.6H60.32V203.88H66.36V206.12H60.32V209.7ZM77.6889 212H74.6889L72.6889 208.68L70.6889 212H67.7289L71.1089 207L67.8089 202.2H70.7889L72.7289 205.28L74.5889 202.2H77.5289L74.3089 206.94L77.6889 212ZM84.2461 202.1C86.7261 202.1 88.5061 203.84 88.5061 206.94C88.5061 209.98 86.8061 212.1 84.1461 212.1C82.7061 212.1 81.7461 211.5 81.2061 210.6V216.04H78.4661V202.18H81.1261L81.1861 203.62C81.7461 202.74 82.7661 202.1 84.2461 202.1ZM83.5261 209.8C84.8261 209.8 85.7261 208.72 85.7261 207.06C85.7261 205.44 84.8861 204.4 83.5461 204.4C82.0261 204.4 81.2061 205.68 81.2061 206.78V207.4C81.2061 208.58 82.0661 209.8 83.5261 209.8ZM98.9588 207.18V207.7H92.0588C92.2588 209.2 93.1388 209.96 94.4188 209.96C95.7388 209.96 96.2188 209.28 96.3788 208.76H98.9188C98.5988 210.46 97.2388 212.1 94.2788 212.1C91.2988 212.1 89.4188 210.04 89.4188 207.12C89.4188 204.16 91.4788 202.1 94.3188 202.1C97.2988 202.1 98.9588 204.18 98.9588 207.18ZM94.3388 204.14C93.2388 204.14 92.3588 204.76 92.0988 206.12H96.3988C96.2188 204.72 95.4588 204.14 94.3388 204.14ZM105.596 202.1C105.816 202.1 106.096 202.12 106.216 202.18L106.196 204.86C106.036 204.8 105.896 204.76 105.516 204.76C104.276 204.76 103.276 205.54 103.116 206.94V212H100.376V202.2H103.016L103.076 203.8C103.536 202.8 104.316 202.1 105.596 202.1ZM110.439 199.04C110.439 200.04 109.659 200.74 108.659 200.74C107.679 200.74 106.899 200.04 106.899 199.04C106.899 198.06 107.679 197.32 108.659 197.32C109.659 197.32 110.439 198.06 110.439 199.04ZM107.279 212V202.2H110.039V212H107.279ZM120.994 207.18V207.7H114.094C114.294 209.2 115.174 209.96 116.454 209.96C117.774 209.96 118.254 209.28 118.414 208.76H120.954C120.634 210.46 119.274 212.1 116.314 212.1C113.334 212.1 111.454 210.04 111.454 207.12C111.454 204.16 113.514 202.1 116.354 202.1C119.334 202.1 120.994 204.18 120.994 207.18ZM116.374 204.14C115.274 204.14 114.394 204.76 114.134 206.12H118.434C118.254 204.72 117.494 204.14 116.374 204.14ZM128.191 202.1C130.411 202.1 131.611 203.66 131.611 205.86V212H128.871V206.48C128.871 205.24 128.291 204.48 127.131 204.48C125.931 204.48 125.151 205.3 125.151 206.52V212H122.411V202.2H125.051L125.131 203.64C125.711 202.72 126.691 202.1 128.191 202.1ZM137.754 212.1C134.814 212.1 132.934 210.04 132.934 207.12C132.934 204.16 134.954 202.1 137.794 202.1C140.714 202.1 142.114 203.86 142.354 206.04H139.714C139.554 205.1 139.014 204.36 137.874 204.36C136.594 204.36 135.694 205.32 135.694 207.12C135.694 208.88 136.554 209.84 137.854 209.84C139.054 209.84 139.554 209.12 139.714 208.2H142.354C142.094 210.34 140.674 212.1 137.754 212.1ZM152.678 207.18V207.7H145.778C145.978 209.2 146.858 209.96 148.138 209.96C149.458 209.96 149.938 209.28 150.098 208.76H152.638C152.318 210.46 150.958 212.1 147.998 212.1C145.018 212.1 143.138 210.04 143.138 207.12C143.138 204.16 145.198 202.1 148.038 202.1C151.018 202.1 152.678 204.18 152.678 207.18ZM148.058 204.14C146.958 204.14 146.078 204.76 145.818 206.12H150.118C149.938 204.72 149.178 204.14 148.058 204.14Z" fill="black"/>
<path d="M57.76 378V372.86H56.2V371.58H57.76V369.94H56.2V368.66H57.76V363.72H59.84L61.74 368.66H64.1V363.72H65.68V368.66H67.24V369.94H65.68V371.58H67.24V372.86H65.68V378H63.58L61.68 372.86H59.32V378H57.76ZM59.32 371.58H61.2L60.6 369.94H59.28L59.32 371.58ZM64.1 375.18H64.18L64.12 372.86H63.28L64.1 375.18ZM59.28 368.66H60.12L59.28 366.18H59.2L59.28 368.66ZM62.8 371.58H64.14L64.1 369.94H62.2L62.8 371.58ZM73.3853 369.36C75.9453 369.36 77.9053 371.06 77.9053 373.7C77.9053 376.32 75.9853 378.1 73.3253 378.1C70.1853 378.1 68.2853 375.8 68.2853 371.16C68.2853 366.56 70.2053 364.16 73.3653 364.16C75.8853 364.16 77.6853 365.72 77.6653 367.94H75.9253C75.9053 366.4 74.7653 365.72 73.4253 365.72C71.2453 365.72 69.9653 367.52 69.9653 371.14V371.22C70.6853 370.12 71.9453 369.36 73.3853 369.36ZM73.3253 376.54C74.9053 376.54 76.1253 375.48 76.1253 373.68C76.1253 371.96 75.0253 370.92 73.3853 370.92C71.5853 370.92 69.6053 372.2 70.5453 374.84C71.0653 376.02 71.9853 376.54 73.3253 376.54ZM84.8073 378.1C81.5873 378.1 79.6473 375.68 79.6473 371.14C79.6473 366.6 81.5873 364.12 84.8073 364.12C88.0273 364.12 89.9473 366.6 89.9473 371.14C89.9473 375.68 88.0273 378.1 84.8073 378.1ZM84.8073 376.54C86.9673 376.54 88.1673 374.72 88.1673 371.14C88.1673 367.58 86.9673 365.68 84.8073 365.68C82.6473 365.68 81.4273 367.58 81.4273 371.14C81.4273 374.72 82.6473 376.54 84.8073 376.54ZM96.9511 378.1C93.7311 378.1 91.7911 375.68 91.7911 371.14C91.7911 366.6 93.7311 364.12 96.9511 364.12C100.171 364.12 102.091 366.6 102.091 371.14C102.091 375.68 100.171 378.1 96.9511 378.1ZM96.9511 376.54C99.1111 376.54 100.311 374.72 100.311 371.14C100.311 367.58 99.1111 365.68 96.9511 365.68C94.7911 365.68 93.5711 367.58 93.5711 371.14C93.5711 374.72 94.7911 376.54 96.9511 376.54ZM103.544 379.9C104.264 379.9 105.024 379.12 105.024 378.32C104.984 378.32 104.904 378.34 104.764 378.34C104.004 378.34 103.544 377.82 103.544 377.12C103.544 376.36 104.084 375.88 104.804 375.88C105.484 375.88 106.164 376.32 106.164 377.64C106.164 379.58 104.724 380.96 103.544 380.9V379.9ZM112.743 378.1C109.523 378.1 107.583 375.68 107.583 371.14C107.583 366.6 109.523 364.12 112.743 364.12C115.963 364.12 117.883 366.6 117.883 371.14C117.883 375.68 115.963 378.1 112.743 378.1ZM112.743 376.54C114.903 376.54 116.103 374.72 116.103 371.14C116.103 367.58 114.903 365.68 112.743 365.68C110.583 365.68 109.363 367.58 109.363 371.14C109.363 374.72 110.583 376.54 112.743 376.54ZM124.886 378.1C121.666 378.1 119.726 375.68 119.726 371.14C119.726 366.6 121.666 364.12 124.886 364.12C128.106 364.12 130.026 366.6 130.026 371.14C130.026 375.68 128.106 378.1 124.886 378.1ZM124.886 376.54C127.046 376.54 128.246 374.72 128.246 371.14C128.246 367.58 127.046 365.68 124.886 365.68C122.726 365.68 121.506 367.58 121.506 371.14C121.506 374.72 122.726 376.54 124.886 376.54ZM137.03 378.1C133.81 378.1 131.87 375.68 131.87 371.14C131.87 366.6 133.81 364.12 137.03 364.12C140.25 364.12 142.17 366.6 142.17 371.14C142.17 375.68 140.25 378.1 137.03 378.1ZM137.03 376.54C139.19 376.54 140.39 374.72 140.39 371.14C140.39 367.58 139.19 365.68 137.03 365.68C134.87 365.68 133.65 367.58 133.65 371.14C133.65 374.72 134.87 376.54 137.03 376.54ZM148.683 372.98V371.66H154.903V372.98H148.683ZM162.162 378V372.86H160.602V371.58H162.162V369.94H160.602V368.66H162.162V363.72H164.242L166.142 368.66H168.502V363.72H170.082V368.66H171.642V369.94H170.082V371.58H171.642V372.86H170.082V378H167.982L166.082 372.86H163.722V378H162.162ZM163.722 371.58H165.602L165.002 369.94H163.682L163.722 371.58ZM168.502 375.18H168.582L168.522 372.86H167.682L168.502 375.18ZM163.682 368.66H164.522L163.682 366.18H163.602L163.682 368.66ZM167.202 371.58H168.542L168.502 369.94H166.602L167.202 371.58ZM180.107 370.72C181.387 371.34 182.247 372.46 182.247 374.04C182.247 376.76 180.087 378.1 177.427 378.1C174.767 378.1 172.607 376.76 172.607 374.04C172.607 372.46 173.467 371.34 174.747 370.72C173.767 370.1 173.107 369.12 173.107 367.88C173.107 365.46 175.167 364.12 177.427 364.12C179.687 364.12 181.747 365.46 181.747 367.88C181.747 369.12 181.087 370.1 180.107 370.72ZM177.427 365.68C175.947 365.68 174.867 366.6 174.887 367.88C174.867 369.18 175.947 370.08 177.427 370.08C178.927 370.08 179.987 369.18 179.967 367.88C179.987 366.6 178.927 365.68 177.427 365.68ZM177.427 376.54C179.227 376.54 180.487 375.62 180.467 374.04C180.487 372.44 179.227 371.54 177.427 371.54C175.647 371.54 174.367 372.44 174.387 374.04C174.367 375.62 175.647 376.54 177.427 376.54ZM189.189 378.1C185.969 378.1 184.029 375.68 184.029 371.14C184.029 366.6 185.969 364.12 189.189 364.12C192.409 364.12 194.329 366.6 194.329 371.14C194.329 375.68 192.409 378.1 189.189 378.1ZM189.189 376.54C191.349 376.54 192.549 374.72 192.549 371.14C192.549 367.58 191.349 365.68 189.189 365.68C187.029 365.68 185.809 367.58 185.809 371.14C185.809 374.72 187.029 376.54 189.189 376.54ZM201.333 378.1C198.113 378.1 196.173 375.68 196.173 371.14C196.173 366.6 198.113 364.12 201.333 364.12C204.553 364.12 206.473 366.6 206.473 371.14C206.473 375.68 204.553 378.1 201.333 378.1ZM201.333 376.54C203.493 376.54 204.693 374.72 204.693 371.14C204.693 367.58 203.493 365.68 201.333 365.68C199.173 365.68 197.953 367.58 197.953 371.14C197.953 374.72 199.173 376.54 201.333 376.54ZM207.926 379.9C208.646 379.9 209.406 379.12 209.406 378.32C209.366 378.32 209.286 378.34 209.146 378.34C208.386 378.34 207.926 377.82 207.926 377.12C207.926 376.36 208.466 375.88 209.186 375.88C209.866 375.88 210.546 376.32 210.546 377.64C210.546 379.58 209.106 380.96 207.926 380.9V379.9ZM217.125 378.1C213.905 378.1 211.965 375.68 211.965 371.14C211.965 366.6 213.905 364.12 217.125 364.12C220.345 364.12 222.265 366.6 222.265 371.14C222.265 375.68 220.345 378.1 217.125 378.1ZM217.125 376.54C219.285 376.54 220.485 374.72 220.485 371.14C220.485 367.58 219.285 365.68 217.125 365.68C214.965 365.68 213.745 367.58 213.745 371.14C213.745 374.72 214.965 376.54 217.125 376.54ZM229.268 378.1C226.048 378.1 224.108 375.68 224.108 371.14C224.108 366.6 226.048 364.12 229.268 364.12C232.488 364.12 234.408 366.6 234.408 371.14C234.408 375.68 232.488 378.1 229.268 378.1ZM229.268 376.54C231.428 376.54 232.628 374.72 232.628 371.14C232.628 367.58 231.428 365.68 229.268 365.68C227.108 365.68 225.888 367.58 225.888 371.14C225.888 374.72 227.108 376.54 229.268 376.54ZM241.412 378.1C238.192 378.1 236.252 375.68 236.252 371.14C236.252 366.6 238.192 364.12 241.412 364.12C244.632 364.12 246.552 366.6 246.552 371.14C246.552 375.68 244.632 378.1 241.412 378.1ZM241.412 376.54C243.572 376.54 244.772 374.72 244.772 371.14C244.772 367.58 243.572 365.68 241.412 365.68C239.252 365.68 238.032 367.58 238.032 371.14C238.032 374.72 239.252 376.54 241.412 376.54Z" fill="black"/>
<path d="M59.74 329.02C59.74 332.02 67.54 329.56 67.54 335.22C67.54 337.62 65.34 339.12 62.08 339.12C58.68 339.12 56.7 337.62 56.7 334.9H59.46C59.46 336.14 60.4 336.82 62.22 336.82C63.86 336.82 64.8 336.26 64.8 335.22C64.8 332.08 56.98 334.54 56.98 329.08C56.98 326.74 59.08 325.14 62.2 325.14C65.38 325.14 67.36 326.7 67.36 329.32H64.6C64.58 328.02 63.7 327.44 62.16 327.44C60.5 327.44 59.74 328 59.74 329.02ZM78.4642 336.74L78.6242 338.9C78.2442 339.02 77.7842 339.1 77.2242 339.1C76.1642 339.1 75.3442 338.6 75.0042 337.52H74.9842C74.6642 338.12 73.8442 339.1 71.7642 339.1C69.6042 339.1 68.4442 338.04 68.4442 336.42C68.4442 334.02 70.9042 333.32 73.5842 333.32H74.8442V332.88C74.8442 331.86 74.2242 331.18 72.9842 331.18C71.9442 331.18 71.2842 331.7 71.1842 332.54H68.7042C68.8642 330.32 70.5842 329.1 73.1242 329.1C75.9842 329.1 77.5042 330.6 77.5042 333.08V336.24C77.5042 336.64 77.6842 336.84 77.9642 336.84C78.1442 336.84 78.2442 336.82 78.4642 336.74ZM72.5242 337.1C73.9642 337.1 74.8442 336.22 74.8442 335.44V334.82H73.4242C71.9642 334.82 71.1042 335.24 71.1042 336.1C71.1042 336.74 71.5842 337.1 72.5242 337.1ZM83.2584 336.74L83.4184 338.9C83.0384 339.02 82.5784 339.1 81.9784 339.1C80.3784 339.1 79.5584 338.14 79.5584 336.4V324.8H82.2984V336.24C82.2984 336.62 82.4984 336.84 82.7784 336.84C82.9384 336.84 83.0384 336.82 83.2584 336.74ZM94.1244 336.74L94.2844 338.9C93.9044 339.02 93.4444 339.1 92.8844 339.1C91.8244 339.1 91.0044 338.6 90.6644 337.52H90.6444C90.3244 338.12 89.5044 339.1 87.4244 339.1C85.2644 339.1 84.1044 338.04 84.1044 336.42C84.1044 334.02 86.5644 333.32 89.2444 333.32H90.5044V332.88C90.5044 331.86 89.8844 331.18 88.6444 331.18C87.6044 331.18 86.9444 331.7 86.8444 332.54H84.3644C84.5244 330.32 86.2444 329.1 88.7844 329.1C91.6444 329.1 93.1644 330.6 93.1644 333.08V336.24C93.1644 336.64 93.3444 336.84 93.6244 336.84C93.8044 336.84 93.9044 336.82 94.1244 336.74ZM88.1844 337.1C89.6244 337.1 90.5044 336.22 90.5044 335.44V334.82H89.0844C87.6244 334.82 86.7644 335.24 86.7644 336.1C86.7644 336.74 87.2444 337.1 88.1844 337.1ZM100.499 329.1C100.719 329.1 100.999 329.12 101.119 329.18L101.099 331.86C100.939 331.8 100.799 331.76 100.419 331.76C99.1786 331.76 98.1786 332.54 98.0186 333.94V339H95.2786V329.2H97.9186L97.9786 330.8C98.4386 329.8 99.2186 329.1 100.499 329.1ZM108.481 329.2H111.261L107.681 339L107.461 339.58C106.541 342.1 105.501 343.14 103.301 343.14C102.701 343.14 102.061 343.06 101.701 342.94L101.861 340.66C102.141 340.78 102.401 340.86 102.801 340.86C103.681 340.86 104.421 340.58 104.741 339.52L104.841 339.2L101.121 329.2H104.081L106.001 335.32C106.081 335.58 106.161 335.94 106.261 336.44H106.321C106.401 335.94 106.481 335.58 106.561 335.32L108.481 329.2ZM120.717 329.1C120.937 329.1 121.217 329.12 121.337 329.18L121.317 331.86C121.157 331.8 121.017 331.76 120.637 331.76C119.397 331.76 118.397 332.54 118.237 333.94V339H115.497V329.2H118.137L118.197 330.8C118.657 329.8 119.437 329.1 120.717 329.1ZM131.644 336.74L131.804 338.9C131.424 339.02 130.964 339.1 130.404 339.1C129.344 339.1 128.524 338.6 128.184 337.52H128.164C127.844 338.12 127.024 339.1 124.944 339.1C122.784 339.1 121.624 338.04 121.624 336.42C121.624 334.02 124.084 333.32 126.764 333.32H128.024V332.88C128.024 331.86 127.404 331.18 126.164 331.18C125.124 331.18 124.464 331.7 124.364 332.54H121.884C122.044 330.32 123.764 329.1 126.304 329.1C129.164 329.1 130.684 330.6 130.684 333.08V336.24C130.684 336.64 130.864 336.84 131.144 336.84C131.324 336.84 131.424 336.82 131.644 336.74ZM125.704 337.1C127.144 337.1 128.024 336.22 128.024 335.44V334.82H126.604C125.144 334.82 124.284 335.24 124.284 336.1C124.284 336.74 124.764 337.1 125.704 337.1ZM138.578 329.1C140.798 329.1 141.998 330.66 141.998 332.86V339H139.258V333.48C139.258 332.24 138.678 331.48 137.518 331.48C136.318 331.48 135.538 332.3 135.538 333.52V339H132.798V329.2H135.438L135.518 330.64C136.098 329.72 137.078 329.1 138.578 329.1ZM150.681 329.2H153.321V339C153.321 341.38 151.501 343.24 148.301 343.24C145.641 343.24 143.881 342.2 143.661 340H146.241C146.401 340.82 147.101 341.16 148.301 341.16C149.821 341.16 150.581 340.24 150.581 339.1V337.58C150.041 338.48 149.101 339.08 147.641 339.08C145.021 339.08 143.321 337 143.321 334.12C143.321 330.94 145.321 329.1 147.741 329.1C149.181 329.1 150.101 329.66 150.601 330.46L150.681 329.2ZM148.281 336.78C149.721 336.78 150.581 335.56 150.581 334.38V333.8C150.581 332.68 149.761 331.4 148.281 331.4C147.001 331.4 146.101 332.48 146.101 334.12C146.101 335.72 147.001 336.78 148.281 336.78ZM164.275 334.18V334.7H157.375C157.575 336.2 158.455 336.96 159.735 336.96C161.055 336.96 161.535 336.28 161.695 335.76H164.235C163.915 337.46 162.555 339.1 159.595 339.1C156.615 339.1 154.735 337.04 154.735 334.12C154.735 331.16 156.795 329.1 159.635 329.1C162.615 329.1 164.275 331.18 164.275 334.18ZM159.655 331.14C158.555 331.14 157.675 331.76 157.415 333.12H161.715C161.535 331.72 160.775 331.14 159.655 331.14Z" fill="black"/>
<rect x="57" y="470" width="153" height="55" rx="6" fill="black"/>
<path d="M80.9597 493.412V497.021H85.5137V498.884H80.9597V502.565H86.7377V504.5H78.5297V491.486H86.7377V493.412H80.9597ZM92.9074 500.558C92.2654 500.588 91.7254 500.645 91.2874 500.729C90.8494 500.807 90.4984 500.909 90.2344 501.035C89.9704 501.161 89.7814 501.308 89.6674 501.476C89.5534 501.644 89.4964 501.827 89.4964 502.025C89.4964 502.415 89.6104 502.694 89.8384 502.862C90.0724 503.03 90.3754 503.114 90.7474 503.114C91.2034 503.114 91.5964 503.033 91.9264 502.871C92.2624 502.703 92.5894 502.451 92.9074 502.115V500.558ZM87.8134 496.553C88.8754 495.581 90.1534 495.095 91.6474 495.095C92.1874 495.095 92.6704 495.185 93.0964 495.365C93.5224 495.539 93.8824 495.785 94.1764 496.103C94.4704 496.415 94.6924 496.79 94.8424 497.228C94.9984 497.666 95.0764 498.146 95.0764 498.668V504.5H94.0684C93.8584 504.5 93.6964 504.47 93.5824 504.41C93.4684 504.344 93.3784 504.215 93.3124 504.023L93.1144 503.357C92.8804 503.567 92.6524 503.753 92.4304 503.915C92.2084 504.071 91.9774 504.203 91.7374 504.311C91.4974 504.419 91.2394 504.5 90.9634 504.554C90.6934 504.614 90.3934 504.644 90.0634 504.644C89.6734 504.644 89.3134 504.593 88.9834 504.491C88.6534 504.383 88.3684 504.224 88.1284 504.014C87.8884 503.804 87.7024 503.543 87.5704 503.231C87.4384 502.919 87.3724 502.556 87.3724 502.142C87.3724 501.908 87.4114 501.677 87.4894 501.449C87.5674 501.215 87.6934 500.993 87.8674 500.783C88.0474 500.573 88.2784 500.375 88.5604 500.189C88.8424 500.003 89.1874 499.841 89.5954 499.703C90.0094 499.565 90.4894 499.454 91.0354 499.37C91.5814 499.28 92.2054 499.226 92.9074 499.208V498.668C92.9074 498.05 92.7754 497.594 92.5114 497.3C92.2474 497 91.8664 496.85 91.3684 496.85C91.0084 496.85 90.7084 496.892 90.4684 496.976C90.2344 497.06 90.0274 497.156 89.8474 497.264C89.6674 497.366 89.5024 497.459 89.3524 497.543C89.2084 497.627 89.0464 497.669 88.8664 497.669C88.7104 497.669 88.5784 497.63 88.4704 497.552C88.3624 497.468 88.2754 497.372 88.2094 497.264L87.8134 496.553ZM102.354 497.066C102.294 497.162 102.231 497.231 102.165 497.273C102.099 497.309 102.015 497.327 101.913 497.327C101.805 497.327 101.688 497.297 101.562 497.237C101.442 497.177 101.301 497.111 101.139 497.039C100.977 496.961 100.791 496.892 100.581 496.832C100.377 496.772 100.134 496.742 99.8521 496.742C99.4141 496.742 99.0691 496.835 98.8171 497.021C98.5711 497.207 98.4481 497.45 98.4481 497.75C98.4481 497.948 98.5111 498.116 98.6371 498.254C98.7691 498.386 98.9401 498.503 99.1501 498.605C99.3661 498.707 99.6091 498.8 99.8791 498.884C100.149 498.962 100.422 499.049 100.698 499.145C100.98 499.241 101.256 499.352 101.526 499.478C101.796 499.598 102.036 499.754 102.246 499.946C102.462 500.132 102.633 500.357 102.759 500.621C102.891 500.885 102.957 501.203 102.957 501.575C102.957 502.019 102.876 502.43 102.714 502.808C102.558 503.18 102.324 503.504 102.012 503.78C101.7 504.05 101.313 504.263 100.851 504.419C100.395 504.569 99.8671 504.644 99.2671 504.644C98.9491 504.644 98.6371 504.614 98.3311 504.554C98.0311 504.5 97.7401 504.422 97.4581 504.32C97.1821 504.218 96.9241 504.098 96.6841 503.96C96.4501 503.822 96.2431 503.672 96.0631 503.51L96.5761 502.664C96.6421 502.562 96.7201 502.484 96.8101 502.43C96.9001 502.376 97.0141 502.349 97.1521 502.349C97.2901 502.349 97.4191 502.388 97.5391 502.466C97.6651 502.544 97.8091 502.628 97.9711 502.718C98.1331 502.808 98.3221 502.892 98.5381 502.97C98.7601 503.048 99.0391 503.087 99.3751 503.087C99.6391 503.087 99.8641 503.057 100.05 502.997C100.242 502.931 100.398 502.847 100.518 502.745C100.644 502.643 100.734 502.526 100.788 502.394C100.848 502.256 100.878 502.115 100.878 501.971C100.878 501.755 100.812 501.578 100.68 501.44C100.554 501.302 100.383 501.182 100.167 501.08C99.9571 500.978 99.7141 500.888 99.4381 500.81C99.1681 500.726 98.8891 500.636 98.6011 500.54C98.3191 500.444 98.0401 500.333 97.7641 500.207C97.4941 500.075 97.2511 499.91 97.0351 499.712C96.8251 499.514 96.6541 499.271 96.5221 498.983C96.3961 498.695 96.3331 498.347 96.3331 497.939C96.3331 497.561 96.4081 497.201 96.5581 496.859C96.7081 496.517 96.9271 496.22 97.2151 495.968C97.5091 495.71 97.8721 495.506 98.3041 495.356C98.7421 495.2 99.2461 495.122 99.8161 495.122C100.452 495.122 101.031 495.227 101.553 495.437C102.075 495.647 102.51 495.923 102.858 496.265L102.354 497.066ZM112.392 495.266L107.361 507.038C107.295 507.194 107.208 507.311 107.1 507.389C106.998 507.473 106.839 507.515 106.623 507.515H104.967L106.695 503.807L102.96 495.266H104.913C105.087 495.266 105.222 495.308 105.318 495.392C105.42 495.476 105.495 495.572 105.543 495.68L107.505 500.468C107.571 500.63 107.625 500.792 107.667 500.954C107.715 501.116 107.76 501.281 107.802 501.449C107.856 501.281 107.91 501.116 107.964 500.954C108.018 500.786 108.078 500.621 108.144 500.459L109.998 495.68C110.046 495.56 110.124 495.461 110.232 495.383C110.346 495.305 110.472 495.266 110.61 495.266H112.392ZM123.146 499.586L121.562 495.257C121.484 495.065 121.403 494.837 121.319 494.573C121.235 494.309 121.151 494.024 121.067 493.718C120.989 494.024 120.908 494.312 120.824 494.582C120.74 494.846 120.659 495.077 120.581 495.275L119.006 499.586H123.146ZM127.421 504.5H125.549C125.339 504.5 125.168 504.449 125.036 504.347C124.904 504.239 124.805 504.107 124.739 503.951L123.767 501.296H118.376L117.404 503.951C117.356 504.089 117.263 504.215 117.125 504.329C116.987 504.443 116.816 504.5 116.612 504.5H114.722L119.843 491.486H122.309L127.421 504.5ZM130.172 502.106C130.424 502.412 130.697 502.628 130.991 502.754C131.291 502.88 131.615 502.943 131.963 502.943C132.299 502.943 132.602 502.88 132.872 502.754C133.142 502.628 133.37 502.436 133.556 502.178C133.748 501.92 133.895 501.596 133.997 501.206C134.099 500.81 134.15 500.345 134.15 499.811C134.15 499.271 134.105 498.815 134.015 498.443C133.931 498.065 133.808 497.759 133.646 497.525C133.484 497.291 133.286 497.12 133.052 497.012C132.824 496.904 132.563 496.85 132.269 496.85C131.807 496.85 131.414 496.949 131.09 497.147C130.766 497.339 130.46 497.612 130.172 497.966V502.106ZM130.055 496.526C130.433 496.1 130.862 495.755 131.342 495.491C131.822 495.227 132.386 495.095 133.034 495.095C133.538 495.095 133.997 495.2 134.411 495.41C134.831 495.62 135.191 495.926 135.491 496.328C135.797 496.724 136.031 497.216 136.193 497.804C136.361 498.386 136.445 499.055 136.445 499.811C136.445 500.501 136.352 501.14 136.166 501.728C135.98 502.316 135.713 502.826 135.365 503.258C135.023 503.69 134.606 504.029 134.114 504.275C133.628 504.515 133.082 504.635 132.476 504.635C131.96 504.635 131.519 504.557 131.153 504.401C130.787 504.239 130.46 504.017 130.172 503.735V507.515H127.949V495.266H129.308C129.596 495.266 129.785 495.401 129.875 495.671L130.055 496.526ZM139.953 502.106C140.205 502.412 140.478 502.628 140.772 502.754C141.072 502.88 141.396 502.943 141.744 502.943C142.08 502.943 142.383 502.88 142.653 502.754C142.923 502.628 143.151 502.436 143.337 502.178C143.529 501.92 143.676 501.596 143.778 501.206C143.88 500.81 143.931 500.345 143.931 499.811C143.931 499.271 143.886 498.815 143.796 498.443C143.712 498.065 143.589 497.759 143.427 497.525C143.265 497.291 143.067 497.12 142.833 497.012C142.605 496.904 142.344 496.85 142.05 496.85C141.588 496.85 141.195 496.949 140.871 497.147C140.547 497.339 140.241 497.612 139.953 497.966V502.106ZM139.836 496.526C140.214 496.1 140.643 495.755 141.123 495.491C141.603 495.227 142.167 495.095 142.815 495.095C143.319 495.095 143.778 495.2 144.192 495.41C144.612 495.62 144.972 495.926 145.272 496.328C145.578 496.724 145.812 497.216 145.974 497.804C146.142 498.386 146.226 499.055 146.226 499.811C146.226 500.501 146.133 501.14 145.947 501.728C145.761 502.316 145.494 502.826 145.146 503.258C144.804 503.69 144.387 504.029 143.895 504.275C143.409 504.515 142.863 504.635 142.257 504.635C141.741 504.635 141.3 504.557 140.934 504.401C140.568 504.239 140.241 504.017 139.953 503.735V507.515H137.73V495.266H139.089C139.377 495.266 139.566 495.401 139.656 495.671L139.836 496.526ZM149.76 491.126V504.5H147.537V491.126H149.76ZM159.913 495.266L154.882 507.038C154.816 507.194 154.729 507.311 154.621 507.389C154.519 507.473 154.36 507.515 154.144 507.515H152.488L154.216 503.807L150.481 495.266H152.434C152.608 495.266 152.743 495.308 152.839 495.392C152.941 495.476 153.016 495.572 153.064 495.68L155.026 500.468C155.092 500.63 155.146 500.792 155.188 500.954C155.236 501.116 155.281 501.281 155.323 501.449C155.377 501.281 155.431 501.116 155.485 500.954C155.539 500.786 155.599 500.621 155.665 500.459L157.519 495.68C157.567 495.56 157.645 495.461 157.753 495.383C157.867 495.305 157.993 495.266 158.131 495.266H159.913Z" fill="white"/>
<path d="M178 489.5L176.59 490.91L182.17 496.5H170V498.5H182.17L176.59 504.09L178 505.5L186 497.5L178 489.5Z" fill="white"/>
</svg>
