<svg width="1006" height="827" viewBox="0 0 1006 827" fill="none" xmlns="http://www.w3.org/2000/svg">
<rect width="1006" height="827" rx="5" fill="white"/>
<path d="M53.068 60.164L46.854 71.214V78H43.266V71.162L37.052 60.164H40.874L45.086 67.912L49.272 60.164H53.068ZM57.76 65.13C61.712 65.13 64.312 67.756 64.312 71.578C64.312 75.4 61.712 78.13 57.76 78.13C53.86 78.13 51.234 75.53 51.234 71.708C51.234 67.86 53.86 65.13 57.76 65.13ZM57.76 68.068C55.992 68.068 54.822 69.498 54.822 71.656C54.822 73.762 55.992 75.192 57.76 75.192C59.58 75.192 60.698 73.762 60.698 71.656C60.698 69.498 59.58 68.068 57.76 68.068ZM74.5363 65.26H78.0983V78H74.6663L74.5623 76.128C73.8343 77.324 72.5863 78.13 70.8183 78.13C67.9063 78.13 66.4243 76.076 66.4243 73.45V65.26H70.0123V72.618C70.0123 74.1 70.7663 75.036 72.1963 75.036C73.5223 75.036 74.5363 73.97 74.5363 72.384V65.26ZM87.8068 65.13C88.0928 65.13 88.4568 65.156 88.6128 65.234L88.5868 68.718C88.3788 68.64 88.1968 68.588 87.7028 68.588C86.0908 68.588 84.7908 69.602 84.5828 71.422V78H81.0208V65.26H84.4528L84.5308 67.34C85.1288 66.04 86.1428 65.13 87.8068 65.13ZM103.838 59.54H107.4V78H103.942L103.864 76.154C103.11 77.298 101.81 78.13 99.9123 78.13C96.6883 78.13 94.3483 75.79 94.3483 71.786C94.3483 67.886 96.5583 65.13 100.094 65.13C101.966 65.13 103.136 65.884 103.838 67.002V59.54ZM100.796 75.14C102.772 75.14 103.838 73.476 103.838 72.046V71.24C103.838 69.706 102.72 68.12 100.822 68.12C99.1323 68.12 97.9623 69.524 97.9623 71.682C97.9623 73.788 99.0803 75.14 100.796 75.14ZM122.549 75.062L122.757 77.87C122.263 78.026 121.665 78.13 120.937 78.13C119.559 78.13 118.493 77.48 118.051 76.076H118.025C117.609 76.856 116.543 78.13 113.839 78.13C111.031 78.13 109.523 76.752 109.523 74.646C109.523 71.526 112.721 70.616 116.205 70.616H117.843V70.044C117.843 68.718 117.037 67.834 115.425 67.834C114.073 67.834 113.215 68.51 113.085 69.602H109.861C110.069 66.716 112.305 65.13 115.607 65.13C119.325 65.13 121.301 67.08 121.301 70.304V74.412C121.301 74.932 121.535 75.192 121.899 75.192C122.133 75.192 122.263 75.166 122.549 75.062ZM114.827 75.53C116.699 75.53 117.843 74.386 117.843 73.372V72.566H115.997C114.099 72.566 112.981 73.112 112.981 74.23C112.981 75.062 113.605 75.53 114.827 75.53ZM134.684 74.386C134.71 76.752 132.552 78.13 129.146 78.13C125.558 78.13 123.738 76.674 123.712 74.022L126.754 74.048C126.832 75.088 127.534 75.66 129.094 75.66C130.602 75.66 131.252 75.218 131.226 74.49C131.226 72.098 123.972 74.048 123.972 68.9C123.972 66.56 126.052 65.13 129.406 65.13C132.656 65.13 134.476 66.638 134.502 69.16H131.408C131.33 68.12 130.628 67.6 129.38 67.6C128.028 67.6 127.43 68.068 127.43 68.796C127.43 71.136 134.684 69.082 134.684 74.386ZM144.439 65.13C147.351 65.13 148.911 67.21 148.911 69.81V78H145.349V70.72C145.349 69.212 144.569 68.224 143.113 68.224C141.553 68.224 140.539 69.29 140.539 70.876V78H136.951V59.54H140.487V67.132C141.241 65.962 142.515 65.13 144.439 65.13ZM159.211 65.13C162.435 65.13 164.749 67.392 164.749 71.422C164.749 75.374 162.539 78.13 159.081 78.13C157.157 78.13 155.935 77.324 155.233 76.128L155.155 78H151.697V59.54H155.259V67.054C156.013 65.936 157.313 65.13 159.211 65.13ZM158.275 75.14C159.965 75.14 161.135 73.736 161.135 71.578C161.135 69.472 160.043 68.12 158.301 68.12C156.325 68.12 155.259 69.784 155.259 71.214V72.02C155.259 73.554 156.377 75.14 158.275 75.14ZM172.852 65.13C176.804 65.13 179.404 67.756 179.404 71.578C179.404 75.4 176.804 78.13 172.852 78.13C168.952 78.13 166.326 75.53 166.326 71.708C166.326 67.86 168.952 65.13 172.852 65.13ZM172.852 68.068C171.084 68.068 169.914 69.498 169.914 71.656C169.914 73.762 171.084 75.192 172.852 75.192C174.672 75.192 175.79 73.762 175.79 71.656C175.79 69.498 174.672 68.068 172.852 68.068ZM193.892 75.062L194.1 77.87C193.606 78.026 193.008 78.13 192.28 78.13C190.902 78.13 189.836 77.48 189.394 76.076H189.368C188.952 76.856 187.886 78.13 185.182 78.13C182.374 78.13 180.866 76.752 180.866 74.646C180.866 71.526 184.064 70.616 187.548 70.616H189.186V70.044C189.186 68.718 188.38 67.834 186.768 67.834C185.416 67.834 184.558 68.51 184.428 69.602H181.204C181.412 66.716 183.648 65.13 186.95 65.13C190.668 65.13 192.644 67.08 192.644 70.304V74.412C192.644 74.932 192.878 75.192 193.242 75.192C193.476 75.192 193.606 75.166 193.892 75.062ZM186.17 75.53C188.042 75.53 189.186 74.386 189.186 73.372V72.566H187.34C185.442 72.566 184.324 73.112 184.324 74.23C184.324 75.062 184.948 75.53 186.17 75.53ZM202.568 65.13C202.854 65.13 203.218 65.156 203.374 65.234L203.348 68.718C203.14 68.64 202.958 68.588 202.464 68.588C200.852 68.588 199.552 69.602 199.344 71.422V78H195.782V65.26H199.214L199.292 67.34C199.89 66.04 200.904 65.13 202.568 65.13ZM213.68 59.54H217.242V78H213.784L213.706 76.154C212.952 77.298 211.652 78.13 209.754 78.13C206.53 78.13 204.19 75.79 204.19 71.786C204.19 67.886 206.4 65.13 209.936 65.13C211.808 65.13 212.978 65.884 213.68 67.002V59.54ZM210.638 75.14C212.614 75.14 213.68 73.476 213.68 72.046V71.24C213.68 69.706 212.562 68.12 210.664 68.12C208.974 68.12 207.804 69.524 207.804 71.682C207.804 73.788 208.922 75.14 210.638 75.14ZM229.452 61.152C229.452 62.452 228.438 63.362 227.138 63.362C225.864 63.362 224.85 62.452 224.85 61.152C224.85 59.878 225.864 58.916 227.138 58.916C228.438 58.916 229.452 59.878 229.452 61.152ZM225.344 78V65.26H228.932V78H225.344ZM239.352 65.13C242.238 65.13 243.798 67.158 243.798 70.018V78H240.236V70.824C240.236 69.212 239.482 68.224 237.974 68.224C236.414 68.224 235.4 69.29 235.4 70.876V78H231.838V65.26H235.27L235.374 67.132C236.128 65.936 237.402 65.13 239.352 65.13ZM253.27 62.192C251.684 62.192 250.93 63.05 250.93 64.35V65.26H254.622V68.094H250.93V78H247.368V68.094H245.548V65.26H247.368V64.22C247.368 61.282 249.448 59.202 252.724 59.202C253.504 59.202 254.414 59.332 254.83 59.436L254.7 62.426C254.388 62.296 253.816 62.192 253.27 62.192ZM261.797 65.13C265.749 65.13 268.349 67.756 268.349 71.578C268.349 75.4 265.749 78.13 261.797 78.13C257.897 78.13 255.271 75.53 255.271 71.708C255.271 67.86 257.897 65.13 261.797 65.13ZM261.797 68.068C260.029 68.068 258.859 69.498 258.859 71.656C258.859 73.762 260.029 75.192 261.797 75.192C263.617 75.192 264.735 73.762 264.735 71.656C264.735 69.498 263.617 68.068 261.797 68.068Z" fill="black"/>
<path d="M40.632 101V91.896H37.16V90.024H46.312V91.896H42.84V101H40.632ZM51.9084 93.08C53.7004 93.08 54.6604 94.36 54.6604 95.96V101H52.4684V96.52C52.4684 95.592 51.9884 94.984 51.0924 94.984C50.1324 94.984 49.5084 95.64 49.5084 96.616V101H47.3004V89.64H49.4764V94.312C49.9404 93.592 50.7244 93.08 51.9084 93.08ZM58.9028 90.632C58.9028 91.432 58.2788 91.992 57.4788 91.992C56.6948 91.992 56.0708 91.432 56.0708 90.632C56.0708 89.848 56.6948 89.256 57.4788 89.256C58.2788 89.256 58.9028 89.848 58.9028 90.632ZM56.3748 101V93.16H58.5828V101H56.3748ZM66.675 98.776C66.691 100.232 65.363 101.08 63.267 101.08C61.059 101.08 59.939 100.184 59.923 98.552L61.795 98.568C61.843 99.208 62.275 99.56 63.235 99.56C64.163 99.56 64.563 99.288 64.547 98.84C64.547 97.368 60.083 98.568 60.083 95.4C60.083 93.96 61.363 93.08 63.427 93.08C65.427 93.08 66.547 94.008 66.563 95.56H64.659C64.611 94.92 64.179 94.6 63.411 94.6C62.579 94.6 62.211 94.888 62.211 95.336C62.211 96.776 66.675 95.512 66.675 98.776ZM73.7978 90.632C73.7978 91.432 73.1738 91.992 72.3738 91.992C71.5898 91.992 70.9658 91.432 70.9658 90.632C70.9658 89.848 71.5898 89.256 72.3738 89.256C73.1738 89.256 73.7978 89.848 73.7978 90.632ZM71.2698 101V93.16H73.4778V101H71.2698ZM81.57 98.776C81.586 100.232 80.258 101.08 78.162 101.08C75.954 101.08 74.834 100.184 74.818 98.552L76.69 98.568C76.738 99.208 77.17 99.56 78.13 99.56C79.058 99.56 79.458 99.288 79.442 98.84C79.442 97.368 74.978 98.568 74.978 95.4C74.978 93.96 76.258 93.08 78.322 93.08C80.322 93.08 81.442 94.008 81.458 95.56H79.554C79.506 94.92 79.074 94.6 78.306 94.6C77.474 94.6 77.106 94.888 77.106 95.336C77.106 96.776 81.57 95.512 81.57 98.776ZM91.1568 99.08L91.2208 100.872C90.9328 100.984 90.4368 101.08 89.8608 101.08C87.7808 101.08 86.6288 99.864 86.6288 98.088V94.904H85.4768V93.16H86.7568V90.936H88.8208V93.16H91.1568V94.904H88.8208V97.992C88.8208 98.76 89.2048 99.256 90.2128 99.256C90.5488 99.256 90.8528 99.192 91.1568 99.08ZM96.9721 93.08C98.7641 93.08 99.7241 94.36 99.7241 95.96V101H97.5321V96.52C97.5321 95.592 97.0521 94.984 96.1561 94.984C95.1961 94.984 94.5721 95.64 94.5721 96.616V101H92.3641V89.64H94.5401V94.312C95.0041 93.592 95.7881 93.08 96.9721 93.08ZM108.655 97.144V97.56H103.135C103.295 98.76 103.999 99.368 105.023 99.368C106.079 99.368 106.463 98.824 106.591 98.408H108.623C108.367 99.768 107.279 101.08 104.911 101.08C102.527 101.08 101.023 99.432 101.023 97.096C101.023 94.728 102.671 93.08 104.943 93.08C107.327 93.08 108.655 94.744 108.655 97.144ZM104.959 94.712C104.079 94.712 103.375 95.208 103.167 96.296H106.607C106.463 95.176 105.855 94.712 104.959 94.712ZM117.852 93.08C119.836 93.08 121.26 94.472 121.26 96.952C121.26 99.384 119.9 101.08 117.772 101.08C116.588 101.08 115.836 100.584 115.404 99.848L115.356 101H113.228V89.64H115.42V94.264C115.884 93.576 116.684 93.08 117.852 93.08ZM117.276 99.24C118.316 99.24 119.036 98.376 119.036 97.048C119.036 95.752 118.364 94.92 117.292 94.92C116.076 94.92 115.42 95.944 115.42 96.824V97.32C115.42 98.264 116.108 99.24 117.276 99.24ZM126.822 93.08C126.998 93.08 127.222 93.096 127.318 93.144L127.302 95.288C127.174 95.24 127.062 95.208 126.758 95.208C125.766 95.208 124.966 95.832 124.838 96.952V101H122.646V93.16H124.758L124.806 94.44C125.174 93.64 125.798 93.08 126.822 93.08ZM135.452 97.144V97.56H129.932C130.092 98.76 130.796 99.368 131.82 99.368C132.876 99.368 133.26 98.824 133.388 98.408H135.42C135.164 99.768 134.076 101.08 131.708 101.08C129.324 101.08 127.82 99.432 127.82 97.096C127.82 94.728 129.468 93.08 131.74 93.08C134.124 93.08 135.452 94.744 135.452 97.144ZM131.756 94.712C130.876 94.712 130.172 95.208 129.964 96.296H133.404C133.26 95.176 132.652 94.712 131.756 94.712ZM144.362 99.192L144.49 100.92C144.186 101.016 143.818 101.08 143.37 101.08C142.522 101.08 141.866 100.68 141.594 99.816H141.578C141.322 100.296 140.666 101.08 139.002 101.08C137.274 101.08 136.346 100.232 136.346 98.936C136.346 97.016 138.314 96.456 140.458 96.456H141.466V96.104C141.466 95.288 140.97 94.744 139.978 94.744C139.146 94.744 138.618 95.16 138.538 95.832H136.554C136.682 94.056 138.058 93.08 140.09 93.08C142.378 93.08 143.594 94.28 143.594 96.264V98.792C143.594 99.112 143.738 99.272 143.962 99.272C144.106 99.272 144.186 99.256 144.362 99.192ZM139.61 99.48C140.762 99.48 141.466 98.776 141.466 98.152V97.656H140.33C139.162 97.656 138.474 97.992 138.474 98.68C138.474 99.192 138.858 99.48 139.61 99.48ZM150.917 101L148.821 97.912L147.717 99.128V101H145.525V89.64H147.717V96.392L150.485 93.144H153.093L150.229 96.344L153.381 101H150.917ZM159.149 89.64H161.341V101H159.213L159.165 99.864C158.701 100.568 157.901 101.08 156.733 101.08C154.749 101.08 153.309 99.64 153.309 97.176C153.309 94.776 154.669 93.08 156.845 93.08C157.997 93.08 158.717 93.544 159.149 94.232V89.64ZM157.277 99.24C158.493 99.24 159.149 98.216 159.149 97.336V96.84C159.149 95.896 158.461 94.92 157.293 94.92C156.253 94.92 155.533 95.784 155.533 97.112C155.533 98.408 156.221 99.24 157.277 99.24ZM166.727 93.08C169.159 93.08 170.759 94.696 170.759 97.048C170.759 99.4 169.159 101.08 166.727 101.08C164.327 101.08 162.711 99.48 162.711 97.128C162.711 94.76 164.327 93.08 166.727 93.08ZM166.727 94.888C165.639 94.888 164.919 95.768 164.919 97.096C164.919 98.392 165.639 99.272 166.727 99.272C167.847 99.272 168.535 98.392 168.535 97.096C168.535 95.768 167.847 94.888 166.727 94.888ZM180.942 93.16H183.23L181.006 101H178.494L177.406 96.872C177.358 96.632 177.262 96.2 177.246 96.024H177.198C177.182 96.2 177.118 96.632 177.054 96.872L175.966 101H173.454L171.23 93.16H173.518L174.59 97.896C174.67 98.312 174.75 98.616 174.782 98.92H174.83C174.878 98.616 174.958 98.312 175.054 97.896L176.238 93.16H178.206L179.406 97.896C179.502 98.312 179.582 98.616 179.63 98.92H179.678C179.71 98.616 179.774 98.344 179.87 97.896L180.942 93.16ZM188.869 93.08C190.645 93.08 191.605 94.328 191.605 96.088V101H189.413V96.584C189.413 95.592 188.949 94.984 188.021 94.984C187.061 94.984 186.437 95.64 186.437 96.616V101H184.245V93.16H186.357L186.421 94.312C186.885 93.576 187.669 93.08 188.869 93.08ZM200.118 93.08C202.55 93.08 204.15 94.696 204.15 97.048C204.15 99.4 202.55 101.08 200.118 101.08C197.718 101.08 196.102 99.48 196.102 97.128C196.102 94.76 197.718 93.08 200.118 93.08ZM200.118 94.888C199.03 94.888 198.31 95.768 198.31 97.096C198.31 98.392 199.03 99.272 200.118 99.272C201.238 99.272 201.926 98.392 201.926 97.096C201.926 95.768 201.238 94.888 200.118 94.888ZM209.598 91.272C208.622 91.272 208.158 91.8 208.158 92.6V93.16H210.43V94.904H208.158V101H205.966V94.904H204.846V93.16H205.966V92.52C205.966 90.712 207.246 89.432 209.262 89.432C209.742 89.432 210.302 89.512 210.558 89.576L210.478 91.416C210.286 91.336 209.934 91.272 209.598 91.272ZM219.063 93.16H221.287L218.423 101L218.247 101.464C217.511 103.48 216.679 104.312 214.919 104.312C214.439 104.312 213.927 104.248 213.639 104.152L213.767 102.328C213.991 102.424 214.199 102.488 214.519 102.488C215.223 102.488 215.815 102.264 216.071 101.416L216.151 101.16L213.175 93.16H215.543L217.079 98.056C217.143 98.264 217.207 98.552 217.287 98.952H217.335C217.399 98.552 217.463 98.264 217.527 98.056L219.063 93.16ZM225.588 93.08C228.02 93.08 229.62 94.696 229.62 97.048C229.62 99.4 228.02 101.08 225.588 101.08C223.188 101.08 221.572 99.48 221.572 97.128C221.572 94.76 223.188 93.08 225.588 93.08ZM225.588 94.888C224.5 94.888 223.78 95.768 223.78 97.096C223.78 98.392 224.5 99.272 225.588 99.272C226.708 99.272 227.396 98.392 227.396 97.096C227.396 95.768 226.708 94.888 225.588 94.888ZM235.912 93.16H238.104V101H235.992L235.928 99.848C235.48 100.584 234.712 101.08 233.624 101.08C231.832 101.08 230.92 99.816 230.92 98.2V93.16H233.128V97.688C233.128 98.6 233.592 99.176 234.472 99.176C235.288 99.176 235.912 98.52 235.912 97.544V93.16ZM244.078 93.08C244.254 93.08 244.478 93.096 244.574 93.144L244.558 95.288C244.43 95.24 244.318 95.208 244.014 95.208C243.022 95.208 242.222 95.832 242.094 96.952V101H239.902V93.16H242.014L242.062 94.44C242.43 93.64 243.054 93.08 244.078 93.08ZM256.056 99.192L256.184 100.92C255.88 101.016 255.512 101.08 255.064 101.08C254.216 101.08 253.56 100.68 253.288 99.816H253.272C253.016 100.296 252.36 101.08 250.696 101.08C248.968 101.08 248.04 100.232 248.04 98.936C248.04 97.016 250.008 96.456 252.152 96.456H253.16V96.104C253.16 95.288 252.664 94.744 251.672 94.744C250.84 94.744 250.312 95.16 250.232 95.832H248.248C248.376 94.056 249.752 93.08 251.784 93.08C254.072 93.08 255.288 94.28 255.288 96.264V98.792C255.288 99.112 255.432 99.272 255.656 99.272C255.8 99.272 255.88 99.256 256.056 99.192ZM251.304 99.48C252.456 99.48 253.16 98.776 253.16 98.152V97.656H252.024C250.856 97.656 250.168 97.992 250.168 98.68C250.168 99.192 250.552 99.48 251.304 99.48ZM261.843 93.08C263.827 93.08 265.251 94.472 265.251 96.952C265.251 99.384 263.891 101.08 261.763 101.08C260.611 101.08 259.843 100.6 259.411 99.88V104.232H257.219V93.144H259.347L259.395 94.296C259.843 93.592 260.659 93.08 261.843 93.08ZM261.267 99.24C262.307 99.24 263.027 98.376 263.027 97.048C263.027 95.752 262.355 94.92 261.283 94.92C260.067 94.92 259.411 95.944 259.411 96.824V97.32C259.411 98.264 260.099 99.24 261.267 99.24ZM271.261 93.08C273.245 93.08 274.669 94.472 274.669 96.952C274.669 99.384 273.309 101.08 271.181 101.08C270.029 101.08 269.261 100.6 268.829 99.88V104.232H266.637V93.144H268.765L268.813 94.296C269.261 93.592 270.077 93.08 271.261 93.08ZM270.685 99.24C271.725 99.24 272.445 98.376 272.445 97.048C272.445 95.752 271.773 94.92 270.701 94.92C269.485 94.92 268.829 95.944 268.829 96.824V97.32C268.829 98.264 269.517 99.24 270.685 99.24ZM278.967 99.192L279.095 100.92C278.791 101.016 278.423 101.08 277.943 101.08C276.663 101.08 276.007 100.312 276.007 98.92V89.64H278.199V98.792C278.199 99.096 278.359 99.272 278.583 99.272C278.711 99.272 278.791 99.256 278.967 99.192ZM282.892 90.632C282.892 91.432 282.268 91.992 281.468 91.992C280.684 91.992 280.06 91.432 280.06 90.632C280.06 89.848 280.684 89.256 281.468 89.256C282.268 89.256 282.892 89.848 282.892 90.632ZM280.364 101V93.16H282.572V101H280.364ZM287.8 101.08C285.448 101.08 283.944 99.432 283.944 97.096C283.944 94.728 285.56 93.08 287.832 93.08C290.168 93.08 291.288 94.488 291.48 96.232H289.368C289.24 95.48 288.808 94.888 287.896 94.888C286.872 94.888 286.152 95.656 286.152 97.096C286.152 98.504 286.84 99.272 287.88 99.272C288.84 99.272 289.24 98.696 289.368 97.96H291.48C291.272 99.672 290.136 101.08 287.8 101.08ZM300.299 99.192L300.427 100.92C300.123 101.016 299.755 101.08 299.307 101.08C298.459 101.08 297.803 100.68 297.531 99.816H297.515C297.259 100.296 296.603 101.08 294.939 101.08C293.211 101.08 292.283 100.232 292.283 98.936C292.283 97.016 294.251 96.456 296.395 96.456H297.403V96.104C297.403 95.288 296.907 94.744 295.915 94.744C295.083 94.744 294.555 95.16 294.475 95.832H292.491C292.619 94.056 293.995 93.08 296.027 93.08C298.315 93.08 299.531 94.28 299.531 96.264V98.792C299.531 99.112 299.675 99.272 299.899 99.272C300.043 99.272 300.123 99.256 300.299 99.192ZM295.547 99.48C296.699 99.48 297.403 98.776 297.403 98.152V97.656H296.267C295.099 97.656 294.411 97.992 294.411 98.68C294.411 99.192 294.795 99.48 295.547 99.48ZM306.345 99.08L306.409 100.872C306.121 100.984 305.625 101.08 305.049 101.08C302.969 101.08 301.817 99.864 301.817 98.088V94.904H300.665V93.16H301.945V90.936H304.009V93.16H306.345V94.904H304.009V97.992C304.009 98.76 304.393 99.256 305.401 99.256C305.737 99.256 306.041 99.192 306.345 99.08ZM310.08 90.632C310.08 91.432 309.456 91.992 308.656 91.992C307.872 91.992 307.248 91.432 307.248 90.632C307.248 89.848 307.872 89.256 308.656 89.256C309.456 89.256 310.08 89.848 310.08 90.632ZM307.552 101V93.16H309.76V101H307.552ZM315.149 93.08C317.581 93.08 319.181 94.696 319.181 97.048C319.181 99.4 317.581 101.08 315.149 101.08C312.749 101.08 311.133 99.48 311.133 97.128C311.133 94.76 312.749 93.08 315.149 93.08ZM315.149 94.888C314.061 94.888 313.341 95.768 313.341 97.096C313.341 98.392 314.061 99.272 315.149 99.272C316.269 99.272 316.957 98.392 316.957 97.096C316.957 95.768 316.269 94.888 315.149 94.888ZM325.184 93.08C326.96 93.08 327.92 94.328 327.92 96.088V101H325.728V96.584C325.728 95.592 325.264 94.984 324.336 94.984C323.376 94.984 322.752 95.64 322.752 96.616V101H320.56V93.16H322.672L322.736 94.312C323.2 93.576 323.984 93.08 325.184 93.08ZM335.362 90.632C335.362 91.432 334.738 91.992 333.938 91.992C333.154 91.992 332.53 91.432 332.53 90.632C332.53 89.848 333.154 89.256 333.938 89.256C334.738 89.256 335.362 89.848 335.362 90.632ZM332.834 101V93.16H335.042V101H332.834ZM341.454 93.08C343.23 93.08 344.19 94.328 344.19 96.088V101H341.998V96.584C341.998 95.592 341.534 94.984 340.606 94.984C339.646 94.984 339.022 95.64 339.022 96.616V101H336.83V93.16H338.942L339.006 94.312C339.47 93.576 340.254 93.08 341.454 93.08ZM350.019 91.272C349.043 91.272 348.579 91.8 348.579 92.6V93.16H350.851V94.904H348.579V101H346.387V94.904H345.267V93.16H346.387V92.52C346.387 90.712 347.667 89.432 349.683 89.432C350.163 89.432 350.723 89.512 350.979 89.576L350.899 91.416C350.707 91.336 350.355 91.272 350.019 91.272ZM355.267 93.08C357.699 93.08 359.299 94.696 359.299 97.048C359.299 99.4 357.699 101.08 355.267 101.08C352.867 101.08 351.251 99.48 351.251 97.128C351.251 94.76 352.867 93.08 355.267 93.08ZM355.267 94.888C354.179 94.888 353.459 95.768 353.459 97.096C353.459 98.392 354.179 99.272 355.267 99.272C356.387 99.272 357.075 98.392 357.075 97.096C357.075 95.768 356.387 94.888 355.267 94.888Z" fill="#7C8698"/>
<g filter="url(#filter0_dd_180_2530)">
<rect x="37" y="137" width="446" height="277" rx="5" fill="#010D3E"/>
</g>
<path d="M81.324 215L80.442 212.318H75.456L74.574 215H72.09L76.5 202.652H79.398L83.808 215H81.324ZM76.122 210.356H79.776L77.958 204.848L76.122 210.356ZM88.5126 215.09C85.8666 215.09 84.1746 213.236 84.1746 210.608C84.1746 207.944 85.9926 206.09 88.5486 206.09C91.1766 206.09 92.4366 207.674 92.6526 209.636H90.2766C90.1326 208.79 89.6466 208.124 88.6206 208.124C87.4686 208.124 86.6586 208.988 86.6586 210.608C86.6586 212.192 87.4326 213.056 88.6026 213.056C89.6826 213.056 90.1326 212.408 90.2766 211.58H92.6526C92.4186 213.506 91.1406 215.09 88.5126 215.09ZM99.6235 212.84L99.6955 214.856C99.3715 214.982 98.8135 215.09 98.1655 215.09C95.8255 215.09 94.5295 213.722 94.5295 211.724V208.142H93.2335V206.18H94.6735V203.678H96.9955V206.18H99.6235V208.142H96.9955V211.616C96.9955 212.48 97.4275 213.038 98.5615 213.038C98.9395 213.038 99.2815 212.966 99.6235 212.84ZM103.826 203.336C103.826 204.236 103.124 204.866 102.224 204.866C101.342 204.866 100.64 204.236 100.64 203.336C100.64 202.454 101.342 201.788 102.224 201.788C103.124 201.788 103.826 202.454 103.826 203.336ZM100.982 215V206.18H103.466V215H100.982ZM111.22 206.18H113.722L110.5 215H107.746L104.524 206.18H107.17L108.934 211.634C109.024 211.868 109.096 212.21 109.186 212.66H109.24C109.312 212.21 109.384 211.868 109.456 211.634L111.22 206.18ZM122.644 210.662V211.13H116.434C116.614 212.48 117.406 213.164 118.558 213.164C119.746 213.164 120.178 212.552 120.322 212.084H122.608C122.32 213.614 121.096 215.09 118.432 215.09C115.75 215.09 114.058 213.236 114.058 210.608C114.058 207.944 115.912 206.09 118.468 206.09C121.15 206.09 122.644 207.962 122.644 210.662ZM118.486 207.926C117.496 207.926 116.704 208.484 116.47 209.708H120.34C120.178 208.448 119.494 207.926 118.486 207.926ZM128.881 210.932C128.899 212.372 129.583 212.93 130.519 212.93C131.527 212.93 132.139 212.3 132.139 210.932V202.652H134.623V210.788C134.623 213.362 133.237 215.072 130.483 215.072C127.855 215.072 126.433 213.56 126.451 210.932H128.881ZM140.712 206.09C143.448 206.09 145.248 207.908 145.248 210.554C145.248 213.2 143.448 215.09 140.712 215.09C138.012 215.09 136.194 213.29 136.194 210.644C136.194 207.98 138.012 206.09 140.712 206.09ZM140.712 208.124C139.488 208.124 138.678 209.114 138.678 210.608C138.678 212.066 139.488 213.056 140.712 213.056C141.972 213.056 142.746 212.066 142.746 210.608C142.746 209.114 141.972 208.124 140.712 208.124ZM152.002 206.09C154.234 206.09 155.836 207.656 155.836 210.446C155.836 213.182 154.306 215.09 151.912 215.09C150.58 215.09 149.734 214.532 149.248 213.704L149.194 215H146.8V202.22H149.266V207.422C149.788 206.648 150.688 206.09 152.002 206.09ZM151.354 213.02C152.524 213.02 153.334 212.048 153.334 210.554C153.334 209.096 152.578 208.16 151.372 208.16C150.004 208.16 149.266 209.312 149.266 210.302V210.86C149.266 211.922 150.04 213.02 151.354 213.02ZM168.764 215L167.882 212.318H162.896L162.014 215H159.53L163.94 202.652H166.838L171.248 215H168.764ZM163.562 210.356H167.216L165.398 204.848L163.562 210.356ZM177.46 206.09C179.692 206.09 181.294 207.656 181.294 210.446C181.294 213.182 179.764 215.09 177.37 215.09C176.074 215.09 175.21 214.55 174.724 213.74V218.636H172.258V206.162H174.652L174.706 207.458C175.21 206.666 176.128 206.09 177.46 206.09ZM176.812 213.02C177.982 213.02 178.792 212.048 178.792 210.554C178.792 209.096 178.036 208.16 176.83 208.16C175.462 208.16 174.724 209.312 174.724 210.302V210.86C174.724 211.922 175.498 213.02 176.812 213.02ZM188.056 206.09C190.288 206.09 191.89 207.656 191.89 210.446C191.89 213.182 190.36 215.09 187.966 215.09C186.67 215.09 185.806 214.55 185.32 213.74V218.636H182.854V206.162H185.248L185.302 207.458C185.806 206.666 186.724 206.09 188.056 206.09ZM187.408 213.02C188.578 213.02 189.388 212.048 189.388 210.554C189.388 209.096 188.632 208.16 187.426 208.16C186.058 208.16 185.32 209.312 185.32 210.302V210.86C185.32 211.922 186.094 213.02 187.408 213.02ZM196.725 212.966L196.869 214.91C196.527 215.018 196.113 215.09 195.573 215.09C194.133 215.09 193.395 214.226 193.395 212.66V202.22H195.861V212.516C195.861 212.858 196.041 213.056 196.293 213.056C196.437 213.056 196.527 213.038 196.725 212.966ZM201.14 203.336C201.14 204.236 200.438 204.866 199.538 204.866C198.656 204.866 197.954 204.236 197.954 203.336C197.954 202.454 198.656 201.788 199.538 201.788C200.438 201.788 201.14 202.454 201.14 203.336ZM198.296 215V206.18H200.78V215H198.296ZM206.662 215.09C204.016 215.09 202.324 213.236 202.324 210.608C202.324 207.944 204.142 206.09 206.698 206.09C209.326 206.09 210.586 207.674 210.802 209.636H208.426C208.282 208.79 207.796 208.124 206.77 208.124C205.618 208.124 204.808 208.988 204.808 210.608C204.808 212.192 205.582 213.056 206.752 213.056C207.832 213.056 208.282 212.408 208.426 211.58H210.802C210.568 213.506 209.29 215.09 206.662 215.09ZM220.723 212.966L220.867 214.91C220.525 215.018 220.111 215.09 219.607 215.09C218.653 215.09 217.915 214.64 217.609 213.668H217.591C217.303 214.208 216.565 215.09 214.693 215.09C212.749 215.09 211.705 214.136 211.705 212.678C211.705 210.518 213.919 209.888 216.331 209.888H217.465V209.492C217.465 208.574 216.907 207.962 215.791 207.962C214.855 207.962 214.261 208.43 214.171 209.186H211.939C212.083 207.188 213.631 206.09 215.917 206.09C218.491 206.09 219.859 207.44 219.859 209.672V212.516C219.859 212.876 220.021 213.056 220.273 213.056C220.435 213.056 220.525 213.038 220.723 212.966ZM215.377 213.29C216.673 213.29 217.465 212.498 217.465 211.796V211.238H216.187C214.873 211.238 214.099 211.616 214.099 212.39C214.099 212.966 214.531 213.29 215.377 213.29ZM227.525 212.84L227.597 214.856C227.273 214.982 226.715 215.09 226.067 215.09C223.727 215.09 222.431 213.722 222.431 211.724V208.142H221.135V206.18H222.575V203.678H224.897V206.18H227.525V208.142H224.897V211.616C224.897 212.48 225.329 213.038 226.463 213.038C226.841 213.038 227.183 212.966 227.525 212.84ZM231.727 203.336C231.727 204.236 231.025 204.866 230.125 204.866C229.243 204.866 228.541 204.236 228.541 203.336C228.541 202.454 229.243 201.788 230.125 201.788C231.025 201.788 231.727 202.454 231.727 203.336ZM228.883 215V206.18H231.367V215H228.883ZM237.429 206.09C240.165 206.09 241.965 207.908 241.965 210.554C241.965 213.2 240.165 215.09 237.429 215.09C234.729 215.09 232.911 213.29 232.911 210.644C232.911 207.98 234.729 206.09 237.429 206.09ZM237.429 208.124C236.205 208.124 235.395 209.114 235.395 210.608C235.395 212.066 236.205 213.056 237.429 213.056C238.689 213.056 239.463 212.066 239.463 210.608C239.463 209.114 238.689 208.124 237.429 208.124ZM248.719 206.09C250.717 206.09 251.797 207.494 251.797 209.474V215H249.331V210.032C249.331 208.916 248.809 208.232 247.765 208.232C246.685 208.232 245.983 208.97 245.983 210.068V215H243.517V206.18H245.893L245.965 207.476C246.487 206.648 247.369 206.09 248.719 206.09ZM260.818 212.498C260.836 214.136 259.342 215.09 256.984 215.09C254.5 215.09 253.24 214.082 253.222 212.246L255.328 212.264C255.382 212.984 255.868 213.38 256.948 213.38C257.992 213.38 258.442 213.074 258.424 212.57C258.424 210.914 253.402 212.264 253.402 208.7C253.402 207.08 254.842 206.09 257.164 206.09C259.414 206.09 260.674 207.134 260.692 208.88H258.55C258.496 208.16 258.01 207.8 257.146 207.8C256.21 207.8 255.796 208.124 255.796 208.628C255.796 210.248 260.818 208.826 260.818 212.498Z" fill="white"/>
<path d="M80.288 342L79.504 339.616H75.072L74.288 342H72.08L76 331.024H78.576L82.496 342H80.288ZM75.664 337.872H78.912L77.296 332.976L75.664 337.872ZM88.3745 342V332.896H84.9025V331.024H94.0545V332.896H90.5825V342H88.3745ZM96.9085 334.08C99.3405 334.08 100.941 335.696 100.941 338.048C100.941 340.4 99.3405 342.08 96.9085 342.08C94.5085 342.08 92.8925 340.48 92.8925 338.128C92.8925 335.76 94.5085 334.08 96.9085 334.08ZM96.9085 335.888C95.8205 335.888 95.1005 336.768 95.1005 338.096C95.1005 339.392 95.8205 340.272 96.9085 340.272C98.0285 340.272 98.7165 339.392 98.7165 338.096C98.7165 336.768 98.0285 335.888 96.9085 335.888ZM107.172 340.08L107.236 341.872C106.948 341.984 106.452 342.08 105.876 342.08C103.796 342.08 102.644 340.864 102.644 339.088V335.904H101.492V334.16H102.772V331.936H104.836V334.16H107.172V335.904H104.836V338.992C104.836 339.76 105.22 340.256 106.228 340.256C106.564 340.256 106.868 340.192 107.172 340.08ZM115.915 340.192L116.043 341.92C115.739 342.016 115.371 342.08 114.923 342.08C114.075 342.08 113.419 341.68 113.147 340.816H113.131C112.875 341.296 112.219 342.08 110.555 342.08C108.827 342.08 107.899 341.232 107.899 339.936C107.899 338.016 109.867 337.456 112.011 337.456H113.019V337.104C113.019 336.288 112.523 335.744 111.531 335.744C110.699 335.744 110.171 336.16 110.091 336.832H108.107C108.235 335.056 109.611 334.08 111.643 334.08C113.931 334.08 115.147 335.28 115.147 337.264V339.792C115.147 340.112 115.291 340.272 115.515 340.272C115.659 340.272 115.739 340.256 115.915 340.192ZM111.163 340.48C112.315 340.48 113.019 339.776 113.019 339.152V338.656H111.883C110.715 338.656 110.027 338.992 110.027 339.68C110.027 340.192 110.411 340.48 111.163 340.48ZM119.991 340.192L120.119 341.92C119.815 342.016 119.447 342.08 118.967 342.08C117.687 342.08 117.031 341.312 117.031 339.92V330.64H119.223V339.792C119.223 340.096 119.383 340.272 119.607 340.272C119.735 340.272 119.815 340.256 119.991 340.192ZM128.187 334.08C130.619 334.08 132.219 335.696 132.219 338.048C132.219 340.4 130.619 342.08 128.187 342.08C125.787 342.08 124.171 340.48 124.171 338.128C124.171 335.76 125.787 334.08 128.187 334.08ZM128.187 335.888C127.099 335.888 126.379 336.768 126.379 338.096C126.379 339.392 127.099 340.272 128.187 340.272C129.307 340.272 129.995 339.392 129.995 338.096C129.995 336.768 129.307 335.888 128.187 335.888ZM137.666 332.272C136.69 332.272 136.226 332.8 136.226 333.6V334.16H138.498V335.904H136.226V342H134.034V335.904H132.914V334.16H134.034V333.52C134.034 331.712 135.314 330.432 137.33 330.432C137.81 330.432 138.37 330.512 138.626 330.576L138.546 332.416C138.354 332.336 138.002 332.272 137.666 332.272ZM142.852 342L146.884 332.896V332.88H141.636V331.024H149.284V332.816L145.284 342H142.852ZM158.351 331.024C160.783 331.024 162.303 332.24 162.303 334.48C162.303 336.72 160.783 337.984 158.351 337.984H156.063V342H153.855V331.024H158.351ZM158.351 336.176C159.471 336.176 160.063 335.472 160.063 334.496C160.063 333.536 159.471 332.848 158.351 332.848H156.063V336.176H158.351ZM167.678 334.08C167.854 334.08 168.078 334.096 168.174 334.144L168.158 336.288C168.03 336.24 167.918 336.208 167.614 336.208C166.622 336.208 165.822 336.832 165.694 337.952V342H163.502V334.16H165.614L165.662 335.44C166.03 334.64 166.654 334.08 167.678 334.08ZM172.692 334.08C175.124 334.08 176.724 335.696 176.724 338.048C176.724 340.4 175.124 342.08 172.692 342.08C170.292 342.08 168.676 340.48 168.676 338.128C168.676 335.76 170.292 334.08 172.692 334.08ZM172.692 335.888C171.604 335.888 170.884 336.768 170.884 338.096C170.884 339.392 171.604 340.272 172.692 340.272C173.812 340.272 174.5 339.392 174.5 338.096C174.5 336.768 173.812 335.888 172.692 335.888ZM184.955 333.056C184.203 333.056 183.595 332.512 183.595 331.744C183.595 330.976 184.203 330.416 184.955 330.416C185.723 330.416 186.331 330.976 186.331 331.744C186.331 332.512 185.723 333.056 184.955 333.056ZM186.059 334.16V342H183.867V335.904H180.731V342H178.539V335.904H177.419V334.16H178.539V333.52C178.539 331.712 179.787 330.432 181.675 330.432C182.155 330.432 182.715 330.512 182.955 330.576L182.891 332.416C182.699 332.336 182.347 332.272 181.995 332.272C181.147 332.272 180.731 332.816 180.731 333.6V334.16H186.059ZM190.762 340.192L190.89 341.92C190.586 342.016 190.218 342.08 189.738 342.08C188.458 342.08 187.802 341.312 187.802 339.92V330.64H189.994V339.792C189.994 340.096 190.154 340.272 190.378 340.272C190.506 340.272 190.586 340.256 190.762 340.192ZM199.312 338.144V338.56H193.792C193.952 339.76 194.656 340.368 195.68 340.368C196.736 340.368 197.12 339.824 197.248 339.408H199.28C199.024 340.768 197.936 342.08 195.568 342.08C193.184 342.08 191.68 340.432 191.68 338.096C191.68 335.728 193.328 334.08 195.6 334.08C197.984 334.08 199.312 335.744 199.312 338.144ZM195.616 335.712C194.736 335.712 194.032 336.208 193.824 337.296H197.264C197.12 336.176 196.512 335.712 195.616 335.712ZM210.583 331.024H212.791L208.871 342H206.487L202.567 331.024H204.775L207.687 339.712L210.583 331.024ZM216.206 331.632C216.206 332.432 215.582 332.992 214.782 332.992C213.998 332.992 213.374 332.432 213.374 331.632C213.374 330.848 213.998 330.256 214.782 330.256C215.582 330.256 216.206 330.848 216.206 331.632ZM213.678 342V334.16H215.886V342H213.678ZM224.891 338.144V338.56H219.371C219.531 339.76 220.235 340.368 221.259 340.368C222.315 340.368 222.699 339.824 222.827 339.408H224.859C224.603 340.768 223.515 342.08 221.147 342.08C218.763 342.08 217.259 340.432 217.259 338.096C217.259 335.728 218.907 334.08 221.179 334.08C223.563 334.08 224.891 335.744 224.891 338.144ZM221.195 335.712C220.315 335.712 219.611 336.208 219.403 337.296H222.843C222.699 336.176 222.091 335.712 221.195 335.712ZM235.068 334.16H237.356L235.132 342H232.62L231.532 337.872C231.484 337.632 231.388 337.2 231.372 337.024H231.324C231.308 337.2 231.244 337.632 231.18 337.872L230.092 342H227.58L225.356 334.16H227.644L228.716 338.896C228.796 339.312 228.876 339.616 228.908 339.92H228.956C229.004 339.616 229.084 339.312 229.18 338.896L230.364 334.16H232.332L233.532 338.896C233.628 339.312 233.708 339.616 233.756 339.92H233.804C233.836 339.616 233.9 339.344 233.996 338.896L235.068 334.16ZM244.581 339.776C244.597 341.232 243.269 342.08 241.173 342.08C238.965 342.08 237.845 341.184 237.829 339.552L239.701 339.568C239.749 340.208 240.181 340.56 241.141 340.56C242.069 340.56 242.469 340.288 242.453 339.84C242.453 338.368 237.989 339.568 237.989 336.4C237.989 334.96 239.269 334.08 241.333 334.08C243.333 334.08 244.453 335.008 244.469 336.56H242.565C242.517 335.92 242.085 335.6 241.317 335.6C240.485 335.6 240.117 335.888 240.117 336.336C240.117 337.776 244.581 336.512 244.581 339.776Z" fill="#D8D8D8"/>
<path d="M93.35 305.88H100.84V314H74.94V305.88H83.76V278.16C81.31 279.42 79.14 279.84 75.08 279.84V271.79C80.47 271.79 83.62 270.25 85.86 265.98H93.35V305.88ZM124.488 283.69C133.518 283.62 140.308 289.5 140.308 298.6C140.308 307.63 134.008 314.49 123.298 314.49C111.258 314.49 103.978 305.67 103.978 290.27C103.978 274.24 111.328 265.42 123.228 265.42C132.748 265.42 139.258 271.09 139.258 279.21L129.598 279.14C129.528 275.5 126.798 273.89 123.298 273.89C117.418 273.89 113.918 278.37 113.568 288.38C116.088 285.58 119.798 283.69 124.488 283.69ZM122.948 306.02C127.778 306.02 130.648 303.01 130.648 298.6C130.648 294.26 127.988 291.25 123.018 291.25C117.208 291.25 112.798 296.01 115.948 302.24L115.808 302.17C117.278 304.83 119.658 306.02 122.948 306.02Z" fill="white"/>
<rect x="522" y="137" width="446" height="277" rx="5" fill="#EAEEFE"/>
<path d="M561.086 215V204.758H557.18V202.652H567.476V204.758H563.57V215H561.086ZM570.687 206.09C573.423 206.09 575.223 207.908 575.223 210.554C575.223 213.2 573.423 215.09 570.687 215.09C567.987 215.09 566.169 213.29 566.169 210.644C566.169 207.98 567.987 206.09 570.687 206.09ZM570.687 208.124C569.463 208.124 568.653 209.114 568.653 210.608C568.653 212.066 569.463 213.056 570.687 213.056C571.947 213.056 572.721 212.066 572.721 210.608C572.721 209.114 571.947 208.124 570.687 208.124ZM582.233 212.84L582.305 214.856C581.981 214.982 581.423 215.09 580.775 215.09C578.435 215.09 577.139 213.722 577.139 211.724V208.142H575.843V206.18H577.283V203.678H579.605V206.18H582.233V208.142H579.605V211.616C579.605 212.48 580.037 213.038 581.171 213.038C581.549 213.038 581.891 212.966 582.233 212.84ZM592.069 212.966L592.213 214.91C591.871 215.018 591.457 215.09 590.953 215.09C589.999 215.09 589.261 214.64 588.955 213.668H588.937C588.649 214.208 587.911 215.09 586.039 215.09C584.095 215.09 583.051 214.136 583.051 212.678C583.051 210.518 585.265 209.888 587.677 209.888H588.811V209.492C588.811 208.574 588.253 207.962 587.137 207.962C586.201 207.962 585.607 208.43 585.517 209.186H583.285C583.429 207.188 584.977 206.09 587.263 206.09C589.837 206.09 591.205 207.44 591.205 209.672V212.516C591.205 212.876 591.367 213.056 591.619 213.056C591.781 213.056 591.871 213.038 592.069 212.966ZM586.723 213.29C588.019 213.29 588.811 212.498 588.811 211.796V211.238H587.533C586.219 211.238 585.445 211.616 585.445 212.39C585.445 212.966 585.877 213.29 586.723 213.29ZM596.654 212.966L596.798 214.91C596.456 215.018 596.042 215.09 595.502 215.09C594.062 215.09 593.324 214.226 593.324 212.66V202.22H595.79V212.516C595.79 212.858 595.97 213.056 596.222 213.056C596.366 213.056 596.456 213.038 596.654 212.966ZM609.594 215L608.712 212.318H603.726L602.844 215H600.36L604.77 202.652H607.668L612.078 215H609.594ZM604.392 210.356H608.046L606.228 204.848L604.392 210.356ZM618.29 206.09C620.522 206.09 622.124 207.656 622.124 210.446C622.124 213.182 620.594 215.09 618.2 215.09C616.904 215.09 616.04 214.55 615.554 213.74V218.636H613.088V206.162H615.482L615.536 207.458C616.04 206.666 616.958 206.09 618.29 206.09ZM617.642 213.02C618.812 213.02 619.622 212.048 619.622 210.554C619.622 209.096 618.866 208.16 617.66 208.16C616.292 208.16 615.554 209.312 615.554 210.302V210.86C615.554 211.922 616.328 213.02 617.642 213.02ZM628.885 206.09C631.117 206.09 632.719 207.656 632.719 210.446C632.719 213.182 631.189 215.09 628.795 215.09C627.499 215.09 626.635 214.55 626.149 213.74V218.636H623.683V206.162H626.077L626.131 207.458C626.635 206.666 627.553 206.09 628.885 206.09ZM628.237 213.02C629.407 213.02 630.217 212.048 630.217 210.554C630.217 209.096 629.461 208.16 628.255 208.16C626.887 208.16 626.149 209.312 626.149 210.302V210.86C626.149 211.922 626.923 213.02 628.237 213.02ZM637.555 212.966L637.699 214.91C637.357 215.018 636.943 215.09 636.403 215.09C634.963 215.09 634.225 214.226 634.225 212.66V202.22H636.691V212.516C636.691 212.858 636.871 213.056 637.123 213.056C637.267 213.056 637.357 213.038 637.555 212.966ZM641.97 203.336C641.97 204.236 641.268 204.866 640.368 204.866C639.486 204.866 638.784 204.236 638.784 203.336C638.784 202.454 639.486 201.788 640.368 201.788C641.268 201.788 641.97 202.454 641.97 203.336ZM639.126 215V206.18H641.61V215H639.126ZM647.492 215.09C644.846 215.09 643.154 213.236 643.154 210.608C643.154 207.944 644.972 206.09 647.528 206.09C650.156 206.09 651.416 207.674 651.632 209.636H649.256C649.112 208.79 648.626 208.124 647.6 208.124C646.448 208.124 645.638 208.988 645.638 210.608C645.638 212.192 646.412 213.056 647.582 213.056C648.662 213.056 649.112 212.408 649.256 211.58H651.632C651.398 213.506 650.12 215.09 647.492 215.09ZM661.553 212.966L661.697 214.91C661.355 215.018 660.941 215.09 660.437 215.09C659.483 215.09 658.745 214.64 658.439 213.668H658.421C658.133 214.208 657.395 215.09 655.523 215.09C653.579 215.09 652.535 214.136 652.535 212.678C652.535 210.518 654.749 209.888 657.161 209.888H658.295V209.492C658.295 208.574 657.737 207.962 656.621 207.962C655.685 207.962 655.091 208.43 655.001 209.186H652.769C652.913 207.188 654.461 206.09 656.747 206.09C659.321 206.09 660.689 207.44 660.689 209.672V212.516C660.689 212.876 660.851 213.056 661.103 213.056C661.265 213.056 661.355 213.038 661.553 212.966ZM656.207 213.29C657.503 213.29 658.295 212.498 658.295 211.796V211.238H657.017C655.703 211.238 654.929 211.616 654.929 212.39C654.929 212.966 655.361 213.29 656.207 213.29ZM668.354 212.84L668.426 214.856C668.102 214.982 667.544 215.09 666.896 215.09C664.556 215.09 663.26 213.722 663.26 211.724V208.142H661.964V206.18H663.404V203.678H665.726V206.18H668.354V208.142H665.726V211.616C665.726 212.48 666.158 213.038 667.292 213.038C667.67 213.038 668.012 212.966 668.354 212.84ZM672.557 203.336C672.557 204.236 671.855 204.866 670.955 204.866C670.073 204.866 669.371 204.236 669.371 203.336C669.371 202.454 670.073 201.788 670.955 201.788C671.855 201.788 672.557 202.454 672.557 203.336ZM669.713 215V206.18H672.197V215H669.713ZM678.259 206.09C680.995 206.09 682.795 207.908 682.795 210.554C682.795 213.2 680.995 215.09 678.259 215.09C675.559 215.09 673.741 213.29 673.741 210.644C673.741 207.98 675.559 206.09 678.259 206.09ZM678.259 208.124C677.035 208.124 676.225 209.114 676.225 210.608C676.225 212.066 677.035 213.056 678.259 213.056C679.519 213.056 680.293 212.066 680.293 210.608C680.293 209.114 679.519 208.124 678.259 208.124ZM689.549 206.09C691.547 206.09 692.627 207.494 692.627 209.474V215H690.161V210.032C690.161 208.916 689.639 208.232 688.595 208.232C687.515 208.232 686.813 208.97 686.813 210.068V215H684.347V206.18H686.723L686.795 207.476C687.317 206.648 688.199 206.09 689.549 206.09ZM701.648 212.498C701.666 214.136 700.172 215.09 697.814 215.09C695.33 215.09 694.07 214.082 694.052 212.246L696.158 212.264C696.212 212.984 696.698 213.38 697.778 213.38C698.822 213.38 699.272 213.074 699.254 212.57C699.254 210.914 694.232 212.264 694.232 208.7C694.232 207.08 695.672 206.09 697.994 206.09C700.244 206.09 701.504 207.134 701.522 208.88H699.38C699.326 208.16 698.84 207.8 697.976 207.8C697.04 207.8 696.626 208.124 696.626 208.628C696.626 210.248 701.648 208.826 701.648 212.498Z" fill="black"/>
<path d="M565.496 338.848C565.512 340.848 563.688 342.112 561.448 342.112C559.16 342.112 557.544 340.832 557.544 338.56L559.752 338.576C559.768 339.712 560.52 340.176 561.544 340.176C562.6 340.176 563.272 339.696 563.256 338.784C563.256 337.744 562.552 337.296 561.448 337.296H560.424V335.6H561.368C562.36 335.6 563.016 335.136 563.032 334.208C563.032 333.232 562.344 332.816 561.528 332.816C560.664 332.816 559.96 333.296 559.96 334.496H557.752C557.736 332.256 559.336 330.896 561.56 330.88C563.688 330.88 565.256 332.144 565.272 334.16C565.272 335.168 564.808 335.904 564.088 336.368C564.936 336.864 565.48 337.664 565.496 338.848ZM572.219 334.016C572.219 336.416 578.459 334.448 578.459 338.976C578.459 340.896 576.699 342.096 574.091 342.096C571.371 342.096 569.787 340.896 569.787 338.72H571.995C571.995 339.712 572.747 340.256 574.203 340.256C575.515 340.256 576.267 339.808 576.267 338.976C576.267 336.464 570.011 338.432 570.011 334.064C570.011 332.192 571.691 330.912 574.187 330.912C576.731 330.912 578.315 332.16 578.315 334.256H576.107C576.091 333.216 575.387 332.752 574.155 332.752C572.827 332.752 572.219 333.2 572.219 334.016ZM584.51 334.08C586.302 334.08 587.262 335.36 587.262 336.96V342H585.07V337.52C585.07 336.592 584.59 335.984 583.694 335.984C582.734 335.984 582.11 336.64 582.11 337.616V342H579.902V330.64H582.078V335.312C582.542 334.592 583.326 334.08 584.51 334.08ZM592.577 334.08C595.009 334.08 596.609 335.696 596.609 338.048C596.609 340.4 595.009 342.08 592.577 342.08C590.177 342.08 588.561 340.48 588.561 338.128C588.561 335.76 590.177 334.08 592.577 334.08ZM592.577 335.888C591.489 335.888 590.769 336.768 590.769 338.096C590.769 339.392 591.489 340.272 592.577 340.272C593.697 340.272 594.385 339.392 594.385 338.096C594.385 336.768 593.697 335.888 592.577 335.888ZM602.165 334.08C602.341 334.08 602.565 334.096 602.661 334.144L602.645 336.288C602.517 336.24 602.405 336.208 602.101 336.208C601.109 336.208 600.309 336.832 600.181 337.952V342H597.989V334.16H600.101L600.149 335.44C600.517 334.64 601.141 334.08 602.165 334.08ZM608.742 340.08L608.806 341.872C608.518 341.984 608.022 342.08 607.446 342.08C605.366 342.08 604.214 340.864 604.214 339.088V335.904H603.062V334.16H604.342V331.936H606.406V334.16H608.742V335.904H606.406V338.992C606.406 339.76 606.79 340.256 607.798 340.256C608.134 340.256 608.438 340.192 608.742 340.08ZM612.862 340.192L612.99 341.92C612.686 342.016 612.318 342.08 611.838 342.08C610.558 342.08 609.902 341.312 609.902 339.92V330.64H612.094V339.792C612.094 340.096 612.254 340.272 612.478 340.272C612.606 340.272 612.686 340.256 612.862 340.192ZM616.787 331.632C616.787 332.432 616.163 332.992 615.363 332.992C614.579 332.992 613.955 332.432 613.955 331.632C613.955 330.848 614.579 330.256 615.363 330.256C616.163 330.256 616.787 330.848 616.787 331.632ZM614.259 342V334.16H616.467V342H614.259ZM624.559 339.776C624.575 341.232 623.247 342.08 621.151 342.08C618.943 342.08 617.823 341.184 617.807 339.552L619.679 339.568C619.727 340.208 620.159 340.56 621.119 340.56C622.047 340.56 622.447 340.288 622.431 339.84C622.431 338.368 617.967 339.568 617.967 336.4C617.967 334.96 619.247 334.08 621.311 334.08C623.311 334.08 624.431 335.008 624.447 336.56H622.543C622.495 335.92 622.063 335.6 621.295 335.6C620.463 335.6 620.095 335.888 620.095 336.336C620.095 337.776 624.559 336.512 624.559 339.776ZM630.852 340.08L630.916 341.872C630.628 341.984 630.132 342.08 629.556 342.08C627.476 342.08 626.324 340.864 626.324 339.088V335.904H625.172V334.16H626.452V331.936H628.516V334.16H630.852V335.904H628.516V338.992C628.516 339.76 628.9 340.256 629.908 340.256C630.244 340.256 630.548 340.192 630.852 340.08ZM639.182 338.144V338.56H633.662C633.822 339.76 634.526 340.368 635.55 340.368C636.606 340.368 636.99 339.824 637.118 339.408H639.15C638.894 340.768 637.806 342.08 635.438 342.08C633.054 342.08 631.55 340.432 631.55 338.096C631.55 335.728 633.198 334.08 635.47 334.08C637.854 334.08 639.182 335.744 639.182 338.144ZM635.486 335.712C634.606 335.712 633.902 336.208 633.694 337.296H637.134C636.99 336.176 636.382 335.712 635.486 335.712ZM645.98 330.64H648.172V342H646.044L645.996 340.864C645.532 341.568 644.732 342.08 643.564 342.08C641.58 342.08 640.14 340.64 640.14 338.176C640.14 335.776 641.5 334.08 643.676 334.08C644.828 334.08 645.548 334.544 645.98 335.232V330.64ZM644.108 340.24C645.324 340.24 645.98 339.216 645.98 338.336V337.84C645.98 336.896 645.292 335.92 644.124 335.92C643.084 335.92 642.364 336.784 642.364 338.112C642.364 339.408 643.052 340.24 644.108 340.24ZM660.064 342L659.28 339.616H654.848L654.064 342H651.856L655.776 331.024H658.352L662.272 342H660.064ZM655.44 337.872H658.688L657.072 332.976L655.44 337.872ZM667.794 334.08C669.778 334.08 671.202 335.472 671.202 337.952C671.202 340.384 669.842 342.08 667.714 342.08C666.562 342.08 665.794 341.6 665.362 340.88V345.232H663.17V334.144H665.298L665.346 335.296C665.794 334.592 666.61 334.08 667.794 334.08ZM667.218 340.24C668.258 340.24 668.978 339.376 668.978 338.048C668.978 336.752 668.306 335.92 667.234 335.92C666.018 335.92 665.362 336.944 665.362 337.824V338.32C665.362 339.264 666.05 340.24 667.218 340.24ZM677.212 334.08C679.196 334.08 680.62 335.472 680.62 337.952C680.62 340.384 679.26 342.08 677.132 342.08C675.98 342.08 675.212 341.6 674.78 340.88V345.232H672.588V334.144H674.716L674.764 335.296C675.212 334.592 676.028 334.08 677.212 334.08ZM676.636 340.24C677.676 340.24 678.396 339.376 678.396 338.048C678.396 336.752 677.724 335.92 676.652 335.92C675.436 335.92 674.78 336.944 674.78 337.824V338.32C674.78 339.264 675.468 340.24 676.636 340.24ZM684.918 340.192L685.046 341.92C684.742 342.016 684.374 342.08 683.894 342.08C682.614 342.08 681.958 341.312 681.958 339.92V330.64H684.15V339.792C684.15 340.096 684.31 340.272 684.534 340.272C684.662 340.272 684.742 340.256 684.918 340.192ZM688.843 331.632C688.843 332.432 688.219 332.992 687.419 332.992C686.635 332.992 686.011 332.432 686.011 331.632C686.011 330.848 686.635 330.256 687.419 330.256C688.219 330.256 688.843 330.848 688.843 331.632ZM686.315 342V334.16H688.523V342H686.315ZM693.751 342.08C691.399 342.08 689.895 340.432 689.895 338.096C689.895 335.728 691.511 334.08 693.783 334.08C696.119 334.08 697.239 335.488 697.431 337.232H695.319C695.191 336.48 694.759 335.888 693.847 335.888C692.823 335.888 692.103 336.656 692.103 338.096C692.103 339.504 692.791 340.272 693.831 340.272C694.791 340.272 695.191 339.696 695.319 338.96H697.431C697.223 340.672 696.087 342.08 693.751 342.08ZM706.25 340.192L706.378 341.92C706.074 342.016 705.706 342.08 705.258 342.08C704.41 342.08 703.754 341.68 703.482 340.816H703.466C703.21 341.296 702.554 342.08 700.89 342.08C699.162 342.08 698.234 341.232 698.234 339.936C698.234 338.016 700.202 337.456 702.346 337.456H703.354V337.104C703.354 336.288 702.858 335.744 701.866 335.744C701.034 335.744 700.506 336.16 700.426 336.832H698.442C698.57 335.056 699.946 334.08 701.978 334.08C704.266 334.08 705.482 335.28 705.482 337.264V339.792C705.482 340.112 705.626 340.272 705.85 340.272C705.994 340.272 706.074 340.256 706.25 340.192ZM701.498 340.48C702.65 340.48 703.354 339.776 703.354 339.152V338.656H702.218C701.05 338.656 700.362 338.992 700.362 339.68C700.362 340.192 700.746 340.48 701.498 340.48ZM712.295 340.08L712.359 341.872C712.071 341.984 711.575 342.08 710.999 342.08C708.919 342.08 707.767 340.864 707.767 339.088V335.904H706.615V334.16H707.895V331.936H709.959V334.16H712.295V335.904H709.959V338.992C709.959 339.76 710.343 340.256 711.351 340.256C711.687 340.256 711.991 340.192 712.295 340.08ZM716.031 331.632C716.031 332.432 715.407 332.992 714.607 332.992C713.823 332.992 713.199 332.432 713.199 331.632C713.199 330.848 713.823 330.256 714.607 330.256C715.407 330.256 716.031 330.848 716.031 331.632ZM713.503 342V334.16H715.711V342H713.503ZM721.099 334.08C723.531 334.08 725.131 335.696 725.131 338.048C725.131 340.4 723.531 342.08 721.099 342.08C718.699 342.08 717.083 340.48 717.083 338.128C717.083 335.76 718.699 334.08 721.099 334.08ZM721.099 335.888C720.011 335.888 719.291 336.768 719.291 338.096C719.291 339.392 720.011 340.272 721.099 340.272C722.219 340.272 722.907 339.392 722.907 338.096C722.907 336.768 722.219 335.888 721.099 335.888ZM731.135 334.08C732.911 334.08 733.871 335.328 733.871 337.088V342H731.679V337.584C731.679 336.592 731.215 335.984 730.287 335.984C729.327 335.984 728.703 336.64 728.703 337.616V342H726.511V334.16H728.623L728.687 335.312C729.151 334.576 729.935 334.08 731.135 334.08ZM741.889 339.776C741.905 341.232 740.577 342.08 738.481 342.08C736.273 342.08 735.153 341.184 735.137 339.552L737.009 339.568C737.057 340.208 737.489 340.56 738.449 340.56C739.377 340.56 739.777 340.288 739.761 339.84C739.761 338.368 735.297 339.568 735.297 336.4C735.297 334.96 736.577 334.08 738.641 334.08C740.641 334.08 741.761 335.008 741.777 336.56H739.873C739.825 335.92 739.393 335.6 738.625 335.6C737.793 335.6 737.425 335.888 737.425 336.336C737.425 337.776 741.889 336.512 741.889 339.776Z" fill="#7C8698"/>
<path d="M578.35 305.88H585.84V314H559.94V305.88H568.76V278.16C566.31 279.42 564.14 279.84 560.08 279.84V271.79C565.47 271.79 568.62 270.25 570.86 265.98H578.35V305.88ZM623.48 300.21C623.55 308.96 615.57 314.49 605.77 314.49C595.76 314.49 588.69 308.89 588.69 298.95L598.35 299.02C598.42 303.99 601.71 306.02 606.19 306.02C610.81 306.02 613.75 303.92 613.68 299.93C613.68 295.38 610.6 293.42 605.77 293.42H601.29V286H605.42C609.76 286 612.63 283.97 612.7 279.91C612.7 275.64 609.69 273.82 606.12 273.82C602.34 273.82 599.26 275.92 599.26 281.17H589.6C589.53 271.37 596.53 265.42 606.26 265.35C615.57 265.35 622.43 270.88 622.5 279.7C622.5 284.11 620.47 287.33 617.32 289.36C621.03 291.53 623.41 295.03 623.48 300.21ZM649.325 283.69C658.355 283.62 665.145 289.5 665.145 298.6C665.145 307.63 658.845 314.49 648.135 314.49C636.095 314.49 628.815 305.67 628.815 290.27C628.815 274.24 636.165 265.42 648.065 265.42C657.585 265.42 664.095 271.09 664.095 279.21L654.435 279.14C654.365 275.5 651.635 273.89 648.135 273.89C642.255 273.89 638.755 278.37 638.405 288.38C640.925 285.58 644.635 283.69 649.325 283.69ZM647.785 306.02C652.615 306.02 655.485 303.01 655.485 298.6C655.485 294.26 652.825 291.25 647.855 291.25C642.045 291.25 637.635 296.01 640.785 302.24L640.645 302.17C642.115 304.83 644.495 306.02 647.785 306.02Z" fill="#001E80"/>
<rect x="522" y="463" width="446" height="277" rx="5" fill="#EAEEFE"/>
<path d="M561.086 541V530.758H557.18V528.652H567.476V530.758H563.57V541H561.086ZM570.687 532.09C573.423 532.09 575.223 533.908 575.223 536.554C575.223 539.2 573.423 541.09 570.687 541.09C567.987 541.09 566.169 539.29 566.169 536.644C566.169 533.98 567.987 532.09 570.687 532.09ZM570.687 534.124C569.463 534.124 568.653 535.114 568.653 536.608C568.653 538.066 569.463 539.056 570.687 539.056C571.947 539.056 572.721 538.066 572.721 536.608C572.721 535.114 571.947 534.124 570.687 534.124ZM582.233 538.84L582.305 540.856C581.981 540.982 581.423 541.09 580.775 541.09C578.435 541.09 577.139 539.722 577.139 537.724V534.142H575.843V532.18H577.283V529.678H579.605V532.18H582.233V534.142H579.605V537.616C579.605 538.48 580.037 539.038 581.171 539.038C581.549 539.038 581.891 538.966 582.233 538.84ZM592.069 538.966L592.213 540.91C591.871 541.018 591.457 541.09 590.953 541.09C589.999 541.09 589.261 540.64 588.955 539.668H588.937C588.649 540.208 587.911 541.09 586.039 541.09C584.095 541.09 583.051 540.136 583.051 538.678C583.051 536.518 585.265 535.888 587.677 535.888H588.811V535.492C588.811 534.574 588.253 533.962 587.137 533.962C586.201 533.962 585.607 534.43 585.517 535.186H583.285C583.429 533.188 584.977 532.09 587.263 532.09C589.837 532.09 591.205 533.44 591.205 535.672V538.516C591.205 538.876 591.367 539.056 591.619 539.056C591.781 539.056 591.871 539.038 592.069 538.966ZM586.723 539.29C588.019 539.29 588.811 538.498 588.811 537.796V537.238H587.533C586.219 537.238 585.445 537.616 585.445 538.39C585.445 538.966 585.877 539.29 586.723 539.29ZM596.654 538.966L596.798 540.91C596.456 541.018 596.042 541.09 595.502 541.09C594.062 541.09 593.324 540.226 593.324 538.66V528.22H595.79V538.516C595.79 538.858 595.97 539.056 596.222 539.056C596.366 539.056 596.456 539.038 596.654 538.966ZM607.603 541.108C604.075 541.108 601.429 538.714 601.429 534.844C601.429 530.974 604.075 528.526 607.603 528.526C611.131 528.526 613.759 530.92 613.759 534.79C613.759 538.678 611.131 541.108 607.603 541.108ZM607.603 538.966C609.619 538.966 611.239 537.436 611.239 534.826C611.239 532.216 609.619 530.686 607.603 530.686C605.569 530.686 603.949 532.216 603.949 534.826C603.949 537.436 605.569 538.966 607.603 538.966ZM620.125 530.056C619.027 530.056 618.505 530.65 618.505 531.55V532.18H621.061V534.142H618.505V541H616.039V534.142H614.779V532.18H616.039V531.46C616.039 529.426 617.479 527.986 619.747 527.986C620.287 527.986 620.917 528.076 621.205 528.148L621.115 530.218C620.899 530.128 620.503 530.056 620.125 530.056ZM626.976 530.056C625.878 530.056 625.356 530.65 625.356 531.55V532.18H627.912V534.142H625.356V541H622.89V534.142H621.63V532.18H622.89V531.46C622.89 529.426 624.33 527.986 626.598 527.986C627.138 527.986 627.768 528.076 628.056 528.148L627.966 530.218C627.75 530.128 627.354 530.056 626.976 530.056ZM636.948 536.662V537.13H630.738C630.918 538.48 631.71 539.164 632.862 539.164C634.05 539.164 634.482 538.552 634.626 538.084H636.912C636.624 539.614 635.4 541.09 632.736 541.09C630.054 541.09 628.362 539.236 628.362 536.608C628.362 533.944 630.216 532.09 632.772 532.09C635.454 532.09 636.948 533.962 636.948 536.662ZM632.79 533.926C631.8 533.926 631.008 534.484 630.774 535.708H634.644C634.482 534.448 633.798 533.926 632.79 533.926ZM643.191 532.09C643.389 532.09 643.641 532.108 643.749 532.162L643.731 534.574C643.587 534.52 643.461 534.484 643.119 534.484C642.003 534.484 641.103 535.186 640.959 536.446V541H638.493V532.18H640.869L640.923 533.62C641.337 532.72 642.039 532.09 643.191 532.09ZM652.015 538.498C652.033 540.136 650.539 541.09 648.181 541.09C645.697 541.09 644.437 540.082 644.419 538.246L646.525 538.264C646.579 538.984 647.065 539.38 648.145 539.38C649.189 539.38 649.639 539.074 649.621 538.57C649.621 536.914 644.599 538.264 644.599 534.7C644.599 533.08 646.039 532.09 648.361 532.09C650.611 532.09 651.871 533.134 651.889 534.88H649.747C649.693 534.16 649.207 533.8 648.343 533.8C647.407 533.8 646.993 534.124 646.993 534.628C646.993 536.248 652.015 534.826 652.015 538.498Z" fill="black"/>
<path d="M561.88 666.144H563.592V668H557.672V666.144H559.688V659.808C559.128 660.096 558.632 660.192 557.704 660.192V658.352C558.936 658.352 559.656 658 560.168 657.024H561.88V666.144ZM577.123 666.208L577.251 667.92C576.979 668 576.595 668.08 576.115 668.08C574.531 668.08 573.907 667.376 573.347 666.304L572.131 663.968H570.355V668H568.147V657.024H572.499C574.963 657.024 576.483 658.272 576.483 660.512C576.483 662.048 575.699 663.104 574.467 663.616L575.475 665.6C575.747 666.128 576.083 666.288 576.499 666.288C576.771 666.288 576.963 666.256 577.123 666.208ZM570.355 658.848V662.256H572.499C573.667 662.24 574.259 661.568 574.259 660.544C574.259 659.536 573.667 658.848 572.499 658.848H570.355ZM585.446 664.144V664.56H579.926C580.086 665.76 580.79 666.368 581.814 666.368C582.87 666.368 583.254 665.824 583.382 665.408H585.414C585.158 666.768 584.07 668.08 581.702 668.08C579.318 668.08 577.814 666.432 577.814 664.096C577.814 661.728 579.462 660.08 581.734 660.08C584.118 660.08 585.446 661.744 585.446 664.144ZM581.75 661.712C580.87 661.712 580.166 662.208 579.958 663.296H583.398C583.254 662.176 582.646 661.712 581.75 661.712ZM589.524 657.632C589.524 658.432 588.884 658.992 588.1 658.992C587.3 658.992 586.692 658.432 586.692 657.632C586.692 656.848 587.3 656.256 588.1 656.256C588.884 656.256 589.524 656.848 589.524 657.632ZM586.052 671.312C585.572 671.312 585.06 671.248 584.756 671.152L584.9 669.328C585.124 669.424 585.316 669.488 585.652 669.488C586.468 669.488 586.948 669.024 586.948 668.16V660.16H589.14V668.24C589.14 670.096 587.94 671.312 586.052 671.312ZM598.158 664.144V664.56H592.638C592.798 665.76 593.502 666.368 594.526 666.368C595.582 666.368 595.966 665.824 596.094 665.408H598.126C597.87 666.768 596.782 668.08 594.414 668.08C592.03 668.08 590.526 666.432 590.526 664.096C590.526 661.728 592.174 660.08 594.446 660.08C596.83 660.08 598.158 661.744 598.158 664.144ZM594.462 661.712C593.582 661.712 592.878 662.208 592.67 663.296H596.11C595.966 662.176 595.358 661.712 594.462 661.712ZM602.972 668.08C600.62 668.08 599.116 666.432 599.116 664.096C599.116 661.728 600.732 660.08 603.004 660.08C605.34 660.08 606.46 661.488 606.652 663.232H604.54C604.412 662.48 603.98 661.888 603.068 661.888C602.044 661.888 601.324 662.656 601.324 664.096C601.324 665.504 602.012 666.272 603.052 666.272C604.012 666.272 604.412 665.696 604.54 664.96H606.652C606.444 666.672 605.308 668.08 602.972 668.08ZM612.848 666.08L612.912 667.872C612.624 667.984 612.128 668.08 611.552 668.08C609.472 668.08 608.32 666.864 608.32 665.088V661.904H607.168V660.16H608.448V657.936H610.512V660.16H612.848V661.904H610.512V664.992C610.512 665.76 610.896 666.256 611.904 666.256C612.24 666.256 612.544 666.192 612.848 666.08ZM621.178 664.144V664.56H615.658C615.818 665.76 616.522 666.368 617.546 666.368C618.602 666.368 618.986 665.824 619.114 665.408H621.146C620.89 666.768 619.802 668.08 617.434 668.08C615.05 668.08 613.546 666.432 613.546 664.096C613.546 661.728 615.194 660.08 617.466 660.08C619.85 660.08 621.178 661.744 621.178 664.144ZM617.482 661.712C616.602 661.712 615.898 662.208 615.69 663.296H619.13C618.986 662.176 618.378 661.712 617.482 661.712ZM627.976 656.64H630.168V668H628.04L627.992 666.864C627.528 667.568 626.728 668.08 625.56 668.08C623.576 668.08 622.136 666.64 622.136 664.176C622.136 661.776 623.496 660.08 625.672 660.08C626.824 660.08 627.544 660.544 627.976 661.232V656.64ZM626.104 666.24C627.32 666.24 627.976 665.216 627.976 664.336V663.84C627.976 662.896 627.288 661.92 626.12 661.92C625.08 661.92 624.36 662.784 624.36 664.112C624.36 665.408 625.048 666.24 626.104 666.24ZM640.289 668.096C637.153 668.096 634.801 665.968 634.801 662.528C634.801 659.088 637.153 656.912 640.289 656.912C643.425 656.912 645.761 659.04 645.761 662.48C645.761 665.936 643.425 668.096 640.289 668.096ZM640.289 666.192C642.081 666.192 643.521 664.832 643.521 662.512C643.521 660.192 642.081 658.832 640.289 658.832C638.481 658.832 637.041 660.192 637.041 662.512C637.041 664.832 638.481 666.192 640.289 666.192ZM651.421 658.272C650.445 658.272 649.981 658.8 649.981 659.6V660.16H652.253V661.904H649.981V668H647.789V661.904H646.669V660.16H647.789V659.52C647.789 657.712 649.069 656.432 651.085 656.432C651.565 656.432 652.125 656.512 652.381 656.576L652.301 658.416C652.109 658.336 651.757 658.272 651.421 658.272ZM657.511 658.272C656.535 658.272 656.071 658.8 656.071 659.6V660.16H658.343V661.904H656.071V668H653.879V661.904H652.759V660.16H653.879V659.52C653.879 657.712 655.159 656.432 657.175 656.432C657.655 656.432 658.215 656.512 658.471 656.576L658.391 658.416C658.199 658.336 657.847 658.272 657.511 658.272ZM666.374 664.144V664.56H660.854C661.014 665.76 661.718 666.368 662.742 666.368C663.798 666.368 664.182 665.824 664.31 665.408H666.342C666.086 666.768 664.998 668.08 662.63 668.08C660.246 668.08 658.742 666.432 658.742 664.096C658.742 661.728 660.39 660.08 662.662 660.08C665.046 660.08 666.374 661.744 666.374 664.144ZM662.678 661.712C661.798 661.712 661.094 662.208 660.886 663.296H664.326C664.182 662.176 663.574 661.712 662.678 661.712ZM671.924 660.08C672.1 660.08 672.324 660.096 672.42 660.144L672.404 662.288C672.276 662.24 672.164 662.208 671.86 662.208C670.868 662.208 670.068 662.832 669.94 663.952V668H667.748V660.16H669.86L669.908 661.44C670.276 660.64 670.9 660.08 671.924 660.08Z" fill="#7C8698"/>
<path d="M594.17 626.21C594.24 634.96 586.26 640.49 576.46 640.49C566.45 640.49 559.38 634.89 559.38 624.95L569.04 625.02C569.11 629.99 572.4 632.02 576.88 632.02C581.5 632.02 584.44 629.92 584.37 625.93C584.37 621.38 581.29 619.42 576.46 619.42H571.98V612H576.11C580.45 612 583.32 609.97 583.39 605.91C583.39 601.64 580.38 599.82 576.81 599.82C573.03 599.82 569.95 601.92 569.95 607.17H560.29C560.22 597.37 567.22 591.42 576.95 591.35C586.26 591.35 593.12 596.88 593.19 605.7C593.19 610.11 591.16 613.33 588.01 615.36C591.72 617.53 594.1 621.03 594.17 626.21Z" fill="#001E80"/>
<rect x="37" y="463" width="446" height="277" rx="5" fill="#EAEEFE"/>
<path d="M76.086 541V530.758H72.18V528.652H82.476V530.758H78.57V541H76.086ZM90.273 538.966L90.417 540.91C90.075 541.018 89.661 541.09 89.157 541.09C88.203 541.09 87.465 540.64 87.159 539.668H87.141C86.853 540.208 86.115 541.09 84.243 541.09C82.299 541.09 81.255 540.136 81.255 538.678C81.255 536.518 83.469 535.888 85.881 535.888H87.015V535.492C87.015 534.574 86.457 533.962 85.341 533.962C84.405 533.962 83.811 534.43 83.721 535.186H81.489C81.633 533.188 83.181 532.09 85.467 532.09C88.041 532.09 89.409 533.44 89.409 535.672V538.516C89.409 538.876 89.571 539.056 89.823 539.056C89.985 539.056 90.075 539.038 90.273 538.966ZM84.927 539.29C86.223 539.29 87.015 538.498 87.015 537.796V537.238H85.737C84.423 537.238 83.649 537.616 83.649 538.39C83.649 538.966 84.081 539.29 84.927 539.29ZM94.8577 538.966L95.0017 540.91C94.6597 541.018 94.2457 541.09 93.7057 541.09C92.2657 541.09 91.5277 540.226 91.5277 538.66V528.22H93.9937V538.516C93.9937 538.858 94.1737 539.056 94.4257 539.056C94.5697 539.056 94.6597 539.038 94.8577 538.966ZM104.477 536.662V537.13H98.2668C98.4468 538.48 99.2388 539.164 100.391 539.164C101.579 539.164 102.011 538.552 102.155 538.084H104.441C104.153 539.614 102.929 541.09 100.265 541.09C97.5828 541.09 95.8908 539.236 95.8908 536.608C95.8908 533.944 97.7448 532.09 100.301 532.09C102.983 532.09 104.477 533.962 104.477 536.662ZM100.319 533.926C99.3288 533.926 98.5368 534.484 98.3028 535.708H102.173C102.011 534.448 101.327 533.926 100.319 533.926ZM111.225 532.09C113.223 532.09 114.303 533.494 114.303 535.474V541H111.837V536.032C111.837 534.916 111.315 534.232 110.271 534.232C109.191 534.232 108.489 534.97 108.489 536.068V541H106.023V532.18H108.399L108.471 533.476C108.993 532.648 109.875 532.09 111.225 532.09ZM121.759 538.84L121.831 540.856C121.507 540.982 120.949 541.09 120.301 541.09C117.961 541.09 116.665 539.722 116.665 537.724V534.142H115.369V532.18H116.809V529.678H119.131V532.18H121.759V534.142H119.131V537.616C119.131 538.48 119.563 539.038 120.697 539.038C121.075 539.038 121.417 538.966 121.759 538.84ZM127.023 541V528.652H129.507V541H127.023ZM136.942 532.09C138.94 532.09 140.02 533.494 140.02 535.474V541H137.554V536.032C137.554 534.916 137.032 534.232 135.988 534.232C134.908 534.232 134.206 534.97 134.206 536.068V541H131.74V532.18H134.116L134.188 533.476C134.71 532.648 135.592 532.09 136.942 532.09ZM147.477 538.84L147.549 540.856C147.225 540.982 146.667 541.09 146.019 541.09C143.679 541.09 142.383 539.722 142.383 537.724V534.142H141.087V532.18H142.527V529.678H144.849V532.18H147.477V534.142H144.849V537.616C144.849 538.48 145.281 539.038 146.415 539.038C146.793 539.038 147.135 538.966 147.477 538.84ZM156.848 536.662V537.13H150.638C150.818 538.48 151.61 539.164 152.762 539.164C153.95 539.164 154.382 538.552 154.526 538.084H156.812C156.524 539.614 155.3 541.09 152.636 541.09C149.954 541.09 148.262 539.236 148.262 536.608C148.262 533.944 150.116 532.09 152.672 532.09C155.354 532.09 156.848 533.962 156.848 536.662ZM152.69 533.926C151.7 533.926 150.908 534.484 150.674 535.708H154.544C154.382 534.448 153.698 533.926 152.69 533.926ZM163.091 532.09C163.289 532.09 163.541 532.108 163.649 532.162L163.631 534.574C163.487 534.52 163.361 534.484 163.019 534.484C161.903 534.484 161.003 535.186 160.859 536.446V541H158.393V532.18H160.769L160.823 533.62C161.237 532.72 161.939 532.09 163.091 532.09ZM170.617 532.18H173.119L169.897 541H167.143L163.921 532.18H166.567L168.331 537.634C168.421 537.868 168.493 538.21 168.583 538.66H168.637C168.709 538.21 168.781 537.868 168.853 537.634L170.617 532.18ZM177.032 529.336C177.032 530.236 176.33 530.866 175.43 530.866C174.548 530.866 173.846 530.236 173.846 529.336C173.846 528.454 174.548 527.788 175.43 527.788C176.33 527.788 177.032 528.454 177.032 529.336ZM174.188 541V532.18H176.672V541H174.188ZM186.801 536.662V537.13H180.591C180.771 538.48 181.563 539.164 182.715 539.164C183.903 539.164 184.335 538.552 184.479 538.084H186.765C186.477 539.614 185.253 541.09 182.589 541.09C179.907 541.09 178.215 539.236 178.215 536.608C178.215 533.944 180.069 532.09 182.625 532.09C185.307 532.09 186.801 533.962 186.801 536.662ZM182.643 533.926C181.653 533.926 180.861 534.484 180.627 535.708H184.497C184.335 534.448 183.651 533.926 182.643 533.926ZM198.251 532.18H200.825L198.323 541H195.497L194.273 536.356C194.219 536.086 194.111 535.6 194.093 535.402H194.039C194.021 535.6 193.949 536.086 193.877 536.356L192.653 541H189.827L187.325 532.18H189.899L191.105 537.508C191.195 537.976 191.285 538.318 191.321 538.66H191.375C191.429 538.318 191.519 537.976 191.627 537.508L192.959 532.18H195.173L196.523 537.508C196.631 537.976 196.721 538.318 196.775 538.66H196.829C196.865 538.318 196.937 538.012 197.045 537.508L198.251 532.18ZM208.953 538.498C208.971 540.136 207.477 541.09 205.119 541.09C202.635 541.09 201.375 540.082 201.357 538.246L203.463 538.264C203.517 538.984 204.003 539.38 205.083 539.38C206.127 539.38 206.577 539.074 206.559 538.57C206.559 536.914 201.537 538.264 201.537 534.7C201.537 533.08 202.977 532.09 205.299 532.09C207.549 532.09 208.809 533.134 208.827 534.88H206.685C206.631 534.16 206.145 533.8 205.281 533.8C204.345 533.8 203.931 534.124 203.931 534.628C203.931 536.248 208.953 534.826 208.953 538.498Z" fill="black"/>
<path d="M76.88 666.144H78.592V668H72.672V666.144H74.688V659.808C74.128 660.096 73.632 660.192 72.704 660.192V658.352C73.936 658.352 74.656 658 75.168 657.024H76.88V666.144ZM89.7805 668L88.9965 665.616H84.5645L83.7805 668H81.5725L85.4925 657.024H88.0685L91.9885 668H89.7805ZM85.1565 663.872H88.4045L86.7885 658.976L85.1565 663.872ZM96.1704 668.08C93.8184 668.08 92.3144 666.432 92.3144 664.096C92.3144 661.728 93.9304 660.08 96.2024 660.08C98.5384 660.08 99.6584 661.488 99.8504 663.232H97.7384C97.6104 662.48 97.1784 661.888 96.2664 661.888C95.2424 661.888 94.5224 662.656 94.5224 664.096C94.5224 665.504 95.2104 666.272 96.2504 666.272C97.2104 666.272 97.6104 665.696 97.7384 664.96H99.8504C99.6424 666.672 98.5064 668.08 96.1704 668.08ZM106.047 666.08L106.111 667.872C105.823 667.984 105.327 668.08 104.751 668.08C102.671 668.08 101.519 666.864 101.519 665.088V661.904H100.367V660.16H101.647V657.936H103.711V660.16H106.047V661.904H103.711V664.992C103.711 665.76 104.095 666.256 105.103 666.256C105.439 666.256 105.743 666.192 106.047 666.08ZM109.782 657.632C109.782 658.432 109.158 658.992 108.358 658.992C107.574 658.992 106.95 658.432 106.95 657.632C106.95 656.848 107.574 656.256 108.358 656.256C109.158 656.256 109.782 656.848 109.782 657.632ZM107.254 668V660.16H109.462V668H107.254ZM116.354 660.16H118.578L115.714 668H113.266L110.402 660.16H112.754L114.322 665.008C114.402 665.216 114.466 665.52 114.546 665.92H114.594C114.658 665.52 114.722 665.216 114.786 665.008L116.354 660.16ZM126.51 664.144V664.56H120.99C121.15 665.76 121.854 666.368 122.878 666.368C123.934 666.368 124.318 665.824 124.446 665.408H126.478C126.222 666.768 125.134 668.08 122.766 668.08C120.382 668.08 118.878 666.432 118.878 664.096C118.878 661.728 120.526 660.08 122.798 660.08C125.182 660.08 126.51 661.744 126.51 664.144ZM122.814 661.712C121.934 661.712 121.23 662.208 121.022 663.296H124.462C124.318 662.176 123.71 661.712 122.814 661.712ZM131.355 668V657.024H133.563V668H131.355ZM140.172 660.08C141.948 660.08 142.908 661.328 142.908 663.088V668H140.716V663.584C140.716 662.592 140.252 661.984 139.324 661.984C138.364 661.984 137.74 662.64 137.74 663.616V668H135.548V660.16H137.66L137.724 661.312C138.188 660.576 138.972 660.08 140.172 660.08ZM149.536 666.08L149.6 667.872C149.312 667.984 148.816 668.08 148.24 668.08C146.16 668.08 145.008 666.864 145.008 665.088V661.904H143.856V660.16H145.136V657.936H147.2V660.16H149.536V661.904H147.2V664.992C147.2 665.76 147.584 666.256 148.592 666.256C148.928 666.256 149.232 666.192 149.536 666.08ZM157.866 664.144V664.56H152.346C152.506 665.76 153.21 666.368 154.234 666.368C155.29 666.368 155.674 665.824 155.802 665.408H157.834C157.578 666.768 156.49 668.08 154.122 668.08C151.738 668.08 150.234 666.432 150.234 664.096C150.234 661.728 151.882 660.08 154.154 660.08C156.538 660.08 157.866 661.744 157.866 664.144ZM154.17 661.712C153.29 661.712 152.586 662.208 152.378 663.296H155.818C155.674 662.176 155.066 661.712 154.17 661.712ZM163.416 660.08C163.592 660.08 163.816 660.096 163.912 660.144L163.896 662.288C163.768 662.24 163.656 662.208 163.352 662.208C162.36 662.208 161.56 662.832 161.432 663.952V668H159.24V660.16H161.352L161.4 661.44C161.768 660.64 162.392 660.08 163.416 660.08ZM170.106 660.16H172.33L169.466 668H167.018L164.154 660.16H166.506L168.074 665.008C168.154 665.216 168.218 665.52 168.298 665.92H168.346C168.41 665.52 168.474 665.216 168.538 665.008L170.106 660.16ZM175.807 657.632C175.807 658.432 175.183 658.992 174.383 658.992C173.599 658.992 172.975 658.432 172.975 657.632C172.975 656.848 173.599 656.256 174.383 656.256C175.183 656.256 175.807 656.848 175.807 657.632ZM173.279 668V660.16H175.487V668H173.279ZM184.491 664.144V664.56H178.971C179.131 665.76 179.835 666.368 180.859 666.368C181.915 666.368 182.299 665.824 182.427 665.408H184.459C184.203 666.768 183.115 668.08 180.747 668.08C178.363 668.08 176.859 666.432 176.859 664.096C176.859 661.728 178.507 660.08 180.779 660.08C183.163 660.08 184.491 661.744 184.491 664.144ZM180.795 661.712C179.915 661.712 179.211 662.208 179.003 663.296H182.443C182.299 662.176 181.691 661.712 180.795 661.712ZM194.668 660.16H196.956L194.732 668H192.22L191.132 663.872C191.084 663.632 190.988 663.2 190.972 663.024H190.924C190.908 663.2 190.844 663.632 190.78 663.872L189.692 668H187.18L184.956 660.16H187.244L188.316 664.896C188.396 665.312 188.476 665.616 188.508 665.92H188.556C188.604 665.616 188.684 665.312 188.78 664.896L189.964 660.16H191.932L193.132 664.896C193.228 665.312 193.308 665.616 193.356 665.92H193.404C193.436 665.616 193.5 665.344 193.596 664.896L194.668 660.16Z" fill="#7C8698"/>
<path d="M93.35 631.88H100.84V640H74.94V631.88H83.76V604.16C81.31 605.42 79.14 605.84 75.08 605.84V597.79C80.47 597.79 83.62 596.25 85.86 591.98H93.35V631.88ZM123.438 640.42C111.258 640.42 103.978 631.74 103.978 615.99C103.978 600.17 111.258 591.42 123.438 591.42C135.688 591.42 142.968 600.17 142.968 615.99C142.968 631.74 135.688 640.42 123.438 640.42ZM123.438 632.02C129.738 632.02 133.238 626.77 133.238 615.99C133.238 605.14 129.738 599.82 123.438 599.82C117.208 599.82 113.708 605.14 113.708 615.99C113.708 626.77 117.208 632.02 123.438 632.02Z" fill="#001E80"/>
<defs>
<filter id="filter0_dd_180_2530" x="33" y="137" width="454" height="285" filterUnits="userSpaceOnUse" color-interpolation-filters="sRGB">
<feFlood flood-opacity="0" result="BackgroundImageFix"/>
<feColorMatrix in="SourceAlpha" type="matrix" values="0 0 0 0 0 0 0 0 0 0 0 0 0 0 0 0 0 0 127 0" result="hardAlpha"/>
<feOffset dy="4"/>
<feGaussianBlur stdDeviation="2"/>
<feComposite in2="hardAlpha" operator="out"/>
<feColorMatrix type="matrix" values="0 0 0 0 0 0 0 0 0 0 0 0 0 0 0 0 0 0 0.25 0"/>
<feBlend mode="normal" in2="BackgroundImageFix" result="effect1_dropShadow_180_2530"/>
<feColorMatrix in="SourceAlpha" type="matrix" values="0 0 0 0 0 0 0 0 0 0 0 0 0 0 0 0 0 0 127 0" result="hardAlpha"/>
<feOffset dy="4"/>
<feGaussianBlur stdDeviation="2"/>
<feComposite in2="hardAlpha" operator="out"/>
<feColorMatrix type="matrix" values="0 0 0 0 0 0 0 0 0 0 0 0 0 0 0 0 0 0 0.25 0"/>
<feBlend mode="normal" in2="effect1_dropShadow_180_2530" result="effect2_dropShadow_180_2530"/>
<feBlend mode="normal" in="SourceGraphic" in2="effect2_dropShadow_180_2530" result="shape"/>
</filter>
</defs>
</svg>
